<?xml version="1.0" encoding="UTF-8" standalone="no"?>
<svg width="1012px" height="592px" viewBox="0 0 1012 592" version="1.1" xmlns="http://www.w3.org/2000/svg" xmlns:xlink="http://www.w3.org/1999/xlink">
    <!-- Generator: Sketch 3.7 (28169) - http://www.bohemiancoding.com/sketch -->
    <title>Apparatus</title>
    <desc>Created with Sketch.</desc>
    <defs>
        <rect id="path-1" x="0" y="0" width="1012" height="76" rx="8"></rect>
        <mask id="mask-2" maskContentUnits="userSpaceOnUse" maskUnits="objectBoundingBox" x="0" y="0" width="1012" height="76" fill="white">
            <use xlink:href="#path-1"></use>
        </mask>
    </defs>
    <g id="Page-1" stroke="none" stroke-width="1" fill="none" fill-rule="evenodd">
        <g id="Desktop-HD-Copy" transform="translate(0.000000, -432.000000)">
            <g id="Apparatus" transform="translate(0.000000, 435.000000)">
                <g id="Group-8" transform="translate(0.000000, 108.000000)">
                    <rect id="Rectangle-35" fill="#602900" x="85" y="308" width="42" height="173"></rect>
                    <rect id="Rectangle-35" fill="#602900" x="349" y="308" width="42" height="173"></rect>
                    <rect id="Rectangle-35" fill="#602900" x="603" y="308" width="42" height="173"></rect>
                    <rect id="Rectangle-35" fill="#602900" x="871" y="308" width="42" height="173"></rect>
                    <g id="Group" transform="translate(0.000000, 244.000000)">
                        <use id="Rectangle-30" stroke="#602900" mask="url(#mask-2)" stroke-width="22" fill="#F7E8D5" xlink:href="#path-1"></use>
                        <circle id="Oval-244" fill="#602900" cx="57" cy="38" r="21"></circle>
                        <circle id="Oval-244" fill="#602900" cx="624" cy="38" r="21"></circle>
                        <circle id="Oval-244" fill="#602900" cx="705" cy="38" r="21"></circle>
                        <circle id="Oval-244" fill="#602900" cx="786" cy="38" r="21"></circle>
                        <circle id="Oval-244" fill="#602900" cx="867" cy="38" r="21"></circle>
                        <circle id="Oval-244" fill="#602900" cx="954" cy="38" r="21"></circle>
                        <circle id="Oval-244" fill="#602900" cx="138" cy="38" r="21"></circle>
                        <circle id="Oval-244" fill="#602900" cx="219" cy="38" r="21"></circle>
                        <circle id="Oval-244" fill="#602900" cx="300" cy="38" r="21"></circle>
                        <circle id="Oval-244" fill="#602900" cx="381" cy="38" r="21"></circle>
                        <circle id="Oval-244" fill="#602900" cx="462" cy="38" r="21"></circle>
                        <circle id="Oval-244" fill="#602900" cx="543" cy="38" r="21"></circle>
                    </g>
                    <rect id="Rectangle-31" fill="#602900" x="349" y="52" width="296" height="268" rx="8"></rect>
                    <rect id="Rectangle-32" fill="#AB6432" x="388" y="18" width="42" height="76" rx="8"></rect>
                    <rect id="Rectangle-33" fill="#AB6432" x="388" y="64" width="68" height="42" rx="8"></rect>
                    <rect id="Rectangle-34" fill="#AB6432" x="381" y="0" width="56" height="20" rx="8"></rect>
                    <circle id="Oval-256" fill="#F7E8D5" cx="506" cy="112" r="34"></circle>
                    <path d="M507,112 L528,99" id="Line" stroke="#602900" stroke-width="3" stroke-linecap="round" stroke-linejoin="round"></path>
                    <circle id="Oval-256" fill="#F7E8D5" cx="590" cy="112" r="34"></circle>
                    <ellipse id="Oval-258" fill="#602900" cx="506" cy="112" rx="4" ry="4"></ellipse>
                    <path d="M590,112 L607,132" id="Line" stroke="#602900" stroke-width="3" stroke-linecap="round" stroke-linejoin="round"></path>
                    <ellipse id="Oval-258" fill="#602900" cx="590" cy="112" rx="4" ry="4"></ellipse>
                    <rect id="Rectangle-45" fill="#F7E8D5" x="395" y="188" width="31" height="16" rx="3"></rect>
                    <text id="OFF" font-family="HelveticaNeue-CondensedBold, Helvetica Neue" font-size="8" font-style="condensed" font-weight="bold" fill="#602900">
                        <tspan x="404" y="199">OFF</tspan>
                    </text>
                    <path d="M626.5,177.5 L670.5,116.5" id="Line" stroke="#602900" stroke-width="10" stroke-linecap="square"></path>
                    <circle id="Oval-298" fill="#ED3822" cx="677.5" cy="105.5" r="15.5"></circle>
                    <path d="M677.5,121 C686.060414,121 693,114.060414 693,105.5 C693,96.9395864 686.060414,90 677.5,90 C677.5,90 677.5,121 677.5,121 Z" id="Oval-298" fill="#C71500"></path>
                </g>
                <g id="Group-3" transform="translate(395.000000, 321.000000)">
                    <rect id="Rectangle-45" fill="#F7E8D5" x="0" y="0" width="29" height="16" rx="3"></rect>
                    <text id="ON" font-family="HelveticaNeue-CondensedBold, Helvetica Neue" font-size="8" font-style="condensed" font-weight="bold" fill="#602900">
                        <tspan x="10" y="11">ON</tspan>
                    </text>
                </g>
                <g id="Smoke" transform="translate(368.000000, 0.000000)" stroke-linecap="round" stroke="#4A4A4A" stroke-width="5" stroke-linejoin="round">
                    <g id="Group-5" transform="translate(0.000000, 21.000000)">
                        <path d="M23.9930328,12.3135164 L23.5,82" id="Line"></path>
                        <path d="M24,12 C24,5.372583 18.627417,0 12,0 C5.372583,0 0,5.372583 0,12 C0,18.627417 5.372583,24 12,24 L12,24" id="Oval-300"></path>
                    </g>
                    <g id="Group-5" transform="translate(66.000000, 62.500000) scale(-1, 1) translate(-66.000000, -62.500000) translate(53.000000, 21.000000)">
                        <path d="M23.9498485,10.2342016 L23.9498485,81.500002" id="Line"></path>
                        <path d="M24,12 C24,5.372583 18.627417,0 12,0 C5.372583,0 0,5.372583 0,12 C0,18.627417 5.372583,24 12,24 L12,24" id="Oval-300"></path>
                    </g>
                    <g id="Group-5" transform="translate(24.000000, 0.000000)">
                        <path d="M16.0635729,8.24403489 L16.5,103" id="Line"></path>
                        <path d="M16,8 C16,3.581722 12.418278,0 8,0 C3.581722,0 0,3.581722 0,8 C0,12.418278 3.581722,16 8,16 L8,16" id="Oval-300"></path>
                    </g>
                </g>
            </g>
        </g>
    </g>
</svg>