<?xml version="1.0" encoding="UTF-8" standalone="no"?>
<svg width="1452px" height="481px" viewBox="0 0 1452 481" version="1.1" xmlns="http://www.w3.org/2000/svg" xmlns:xlink="http://www.w3.org/1999/xlink">
    <!-- Generator: Sketch 3.7 (28169) - http://www.bohemiancoding.com/sketch -->
    <title>Group 11</title>
    <desc>Created with Sketch.</desc>
    <defs>
        <rect id="path-1" x="0" y="0" width="1012" height="76" rx="8"></rect>
        <mask id="mask-2" maskContentUnits="userSpaceOnUse" maskUnits="objectBoundingBox" x="0" y="0" width="1012" height="76" fill="white">
            <use xlink:href="#path-1"></use>
        </mask>
        <rect id="path-3" x="0" y="0" width="1012" height="76" rx="8"></rect>
        <mask id="mask-4" maskContentUnits="userSpaceOnUse" maskUnits="objectBoundingBox" x="0" y="0" width="1012" height="76" fill="white">
            <use xlink:href="#path-3"></use>
        </mask>
    </defs>
    <g id="Page-1" stroke="none" stroke-width="1" fill="none" fill-rule="evenodd">
        <g id="Desktop-HD-Copy" transform="translate(-1096.000000, -368.000000)">
            <g id="Group-11" transform="translate(1096.000000, 368.000000)">
                <g id="Group-10">
                    <rect id="Rectangle-35" fill="#602900" x="85" y="308" width="42" height="173"></rect>
                    <rect id="Rectangle-35" fill="#602900" x="349" y="308" width="42" height="173"></rect>
                    <rect id="Rectangle-35" fill="#602900" x="603" y="308" width="42" height="173"></rect>
                    <rect id="Rectangle-35" fill="#602900" x="871" y="308" width="42" height="173"></rect>
                    <rect id="Rectangle-35" fill="#602900" x="1101" y="308" width="42" height="173"></rect>
                    <rect id="Rectangle-35" fill="#602900" x="1321" y="308" width="42" height="173"></rect>
                    <g id="Group" transform="translate(0.000000, 244.000000)">
                        <use id="Rectangle-30" stroke="#602900" mask="url(#mask-2)" stroke-width="22" fill="#F7E8D5" xlink:href="#path-1"></use>
                        <circle id="Oval-244" fill="#602900" cx="57" cy="38" r="21"></circle>
                        <circle id="Oval-244" fill="#602900" cx="624" cy="38" r="21"></circle>
                        <circle id="Oval-244" fill="#602900" cx="705" cy="38" r="21"></circle>
                        <circle id="Oval-244" fill="#602900" cx="786" cy="38" r="21"></circle>
                        <circle id="Oval-244" fill="#602900" cx="867" cy="38" r="21"></circle>
                        <circle id="Oval-244" fill="#602900" cx="954" cy="38" r="21"></circle>
                        <circle id="Oval-244" fill="#602900" cx="138" cy="38" r="21"></circle>
                        <circle id="Oval-244" fill="#602900" cx="219" cy="38" r="21"></circle>
                        <circle id="Oval-244" fill="#602900" cx="300" cy="38" r="21"></circle>
                        <circle id="Oval-244" fill="#602900" cx="381" cy="38" r="21"></circle>
                        <circle id="Oval-244" fill="#602900" cx="462" cy="38" r="21"></circle>
                        <circle id="Oval-244" fill="#602900" cx="543" cy="38" r="21"></circle>
                    </g>
                    <g id="Group" transform="translate(440.000000, 244.000000)">
                        <use id="Rectangle-30" stroke="#602900" mask="url(#mask-4)" stroke-width="22" fill="#F7E8D5" xlink:href="#path-3"></use>
                        <circle id="Oval-244" fill="#602900" cx="57" cy="38" r="21"></circle>
                        <circle id="Oval-244" fill="#602900" cx="624" cy="38" r="21"></circle>
                        <circle id="Oval-244" fill="#602900" cx="705" cy="38" r="21"></circle>
                        <circle id="Oval-244" fill="#602900" cx="786" cy="38" r="21"></circle>
                        <circle id="Oval-244" fill="#602900" cx="867" cy="38" r="21"></circle>
                        <circle id="Oval-244" fill="#602900" cx="954" cy="38" r="21"></circle>
                        <circle id="Oval-244" fill="#602900" cx="138" cy="38" r="21"></circle>
                        <circle id="Oval-244" fill="#602900" cx="219" cy="38" r="21"></circle>
                        <circle id="Oval-244" fill="#602900" cx="300" cy="38" r="21"></circle>
                        <circle id="Oval-244" fill="#602900" cx="381" cy="38" r="21"></circle>
                        <circle id="Oval-244" fill="#602900" cx="462" cy="38" r="21"></circle>
                        <circle id="Oval-244" fill="#602900" cx="543" cy="38" r="21"></circle>
                    </g>
                    <rect id="Rectangle-31" fill="#602900" x="349" y="52" width="296" height="268" rx="8"></rect>
                    <rect id="Rectangle-32" fill="#AB6432" x="388" y="18" width="42" height="76" rx="8"></rect>
                    <rect id="Rectangle-33" fill="#AB6432" x="388" y="64" width="68" height="42" rx="8"></rect>
                    <rect id="Rectangle-34" fill="#AB6432" x="381" y="0" width="56" height="20" rx="8"></rect>
                </g>
                <circle id="Oval-256" fill="#F7E8D5" cx="506" cy="112" r="34"></circle>
                <circle id="Oval-256" fill="#F7E8D5" cx="590" cy="112" r="34"></circle>
                <rect id="Rectangle-45" fill="#F7E8D5" x="395" y="188" width="31" height="16" rx="3"></rect>
                <text id="OFF" font-family="HelveticaNeue-CondensedBold, Helvetica Neue" font-size="8" font-style="condensed" font-weight="bold" fill="#602900">
                    <tspan x="404" y="199">OFF</tspan>
                </text>
                <rect id="Rectangle-45" fill="#F7E8D5" x="395" y="213" width="29" height="16" rx="3"></rect>
                <text id="ON" font-family="HelveticaNeue-CondensedBold, Helvetica Neue" font-size="8" font-style="condensed" font-weight="bold" fill="#602900">
                    <tspan x="405" y="224">ON</tspan>
                </text>
            </g>
        </g>
    </g>
</svg>