<?xml version="1.0" encoding="UTF-8" standalone="no"?>
<svg width="298px" height="200px" viewBox="0 0 298 200" version="1.1" xmlns="http://www.w3.org/2000/svg" xmlns:xlink="http://www.w3.org/1999/xlink">
    <!-- Generator: Sketch 3.7 (28169) - http://www.bohemiancoding.com/sketch -->
    <title>cloud</title>
    <desc>Created with Sketch.</desc>
    <defs></defs>
    <g id="Page-1" stroke="none" stroke-width="1" fill="none" fill-rule="evenodd">
        <g id="Desktop-HD-Copy" transform="translate(0.000000, -170.000000)" fill="#FFFFFF">
            <g id="cloud" transform="translate(-50.000000, 170.000000)">
                <path d="M189.497976,198.591549 C214.370032,198.591549 284.958467,204.220222 302.383458,189.11842 C323.390674,170.911994 288.825911,129.271313 288.825911,99.2957746 C288.825911,44.4562326 244.35528,0 189.497976,0 C134.640672,0 90.1700405,44.4562326 90.1700405,99.2957746 C90.1700405,154.135317 134.640672,198.591549 189.497976,198.591549 Z" id="Oval-181"></path>
                <path d="M90.1700405,198.591549 C139.969579,198.591549 237.511096,207.412458 237.511096,171.241696 C237.511096,135.070934 139.969579,67.6056338 90.1700405,67.6056338 C40.3705022,67.6056338 0,96.9278298 0,133.098592 C0,169.269353 40.3705022,198.591549 90.1700405,198.591549 Z" id="Oval-183"></path>
                <ellipse id="Oval-183" cx="269.101215" cy="127.464789" rx="78.8987854" ry="71.1267606"></ellipse>
            </g>
        </g>
    </g>
</svg>