<?xml version="1.0" encoding="UTF-8" standalone="no"?>
<svg width="247px" height="142px" viewBox="0 0 247 142" version="1.1" xmlns="http://www.w3.org/2000/svg" xmlns:xlink="http://www.w3.org/1999/xlink">
    <!-- Generator: Sketch 3.7 (28169) - http://www.bohemiancoding.com/sketch -->
    <title>cloud</title>
    <desc>Created with Sketch.</desc>
    <defs></defs>
    <g id="Page-1" stroke="none" stroke-width="1" fill="none" fill-rule="evenodd">
        <g id="Desktop-HD-Copy" transform="translate(-599.000000, -66.000000)" fill="#FFFFFF">
            <g id="cloud" transform="translate(599.000000, 66.000000)">
                <path d="M134.5,141 C152.153442,141 202.255004,144.996358 214.622742,134.274078 C229.533036,121.347516 205,91.7826325 205,70.5 C205,31.5639251 173.436075,0 134.5,0 C95.5639251,0 64,31.5639251 64,70.5 C64,109.436075 95.5639251,141 134.5,141 Z" id="Oval-181"></path>
                <path d="M64,141 C99.346224,141 168.578278,147.262845 168.578278,121.581604 C168.578278,95.9003631 99.346224,48 64,48 C28.653776,48 0,68.8187591 0,94.5 C0,120.181241 28.653776,141 64,141 Z" id="Oval-183"></path>
                <ellipse id="Oval-183" cx="191" cy="90.5" rx="56" ry="50.5"></ellipse>
            </g>
        </g>
    </g>
</svg>