<?xml version="1.0" encoding="UTF-8" standalone="no"?>
<svg width="259px" height="71px" viewBox="0 0 259 71" version="1.1" xmlns="http://www.w3.org/2000/svg" xmlns:xlink="http://www.w3.org/1999/xlink">
    <!-- Generator: Sketch 3.7 (28169) - http://www.bohemiancoding.com/sketch -->
    <title>Group 8</title>
    <desc>Created with Sketch.</desc>
    <defs></defs>
    <g id="Page-1" stroke="none" stroke-width="1" fill="none" fill-rule="evenodd">
        <g id="Desktop-HD-Copy" transform="translate(-1153.000000, -541.000000)">
            <g id="Group-8" transform="translate(1153.000000, 541.000000)">
                <g id="orange" transform="translate(110.000000, 4.000000)">
                    <g id="Group-7" transform="translate(68.000000, 8.000000)">
                        <g id="Group-4">
                            <circle id="Oval-192" fill="#F68D2F" cx="18" cy="18" r="18"></circle>
                            <path d="M18,36 C27.9411255,36 36,27.9411255 36,18 C36,8.0588745 27.9411255,0 18,0 C18.0000002,0 18,8.0588745 18,18 C18,27.9411255 18.0000002,36 18,36 Z" id="Oval-192" fill="#F76A28"></path>
                        </g>
                    </g>
                    <g id="Group-7" transform="translate(29.000000, 0.000000)">
                        <g id="Group-4">
                            <circle id="Oval-192" fill="#F68D2F" cx="19.5" cy="19.5" r="19.5"></circle>
                            <path d="M19.5,39 C30.2695526,39 39,30.2695526 39,19.5 C39,8.73044738 30.2695526,0 19.5,0 C19.5000002,0 19.5,8.73044738 19.5,19.5 C19.5,30.2695526 19.5000002,39 19.5,39 Z" id="Oval-192" fill="#F76A28"></path>
                        </g>
                    </g>
                    <g id="Group-7" transform="translate(0.000000, 8.000000)">
                        <g id="Group-4">
                            <circle id="Oval-192" fill="#F68D2F" cx="18" cy="18" r="18"></circle>
                            <path d="M18,36 C27.9411255,36 36,27.9411255 36,18 C36,8.0588745 27.9411255,0 18,0 C18.0000002,0 18,8.0588745 18,18 C18,27.9411255 18.0000002,36 18,36 Z" id="Oval-192" fill="#F76A28"></path>
                        </g>
                    </g>
                </g>
                <g id="orange" transform="translate(19.000000, 0.000000)">
                    <g id="Group-7" transform="translate(61.000000, 12.000000)">
                        <g id="Group-4">
                            <circle id="Oval-192" fill="#F68D2F" cx="18" cy="18" r="18"></circle>
                            <path d="M18,36 C27.9411255,36 36,27.9411255 36,18 C36,8.0588745 27.9411255,0 18,0 C18.0000002,0 18,8.0588745 18,18 C18,27.9411255 18.0000002,36 18,36 Z" id="Oval-192" fill="#F76A28"></path>
                        </g>
                    </g>
                    <g id="Group-7" transform="translate(29.000000, 0.000000)">
                        <g id="Group-4">
                            <circle id="Oval-192" fill="#F68D2F" cx="19.5" cy="19.5" r="19.5"></circle>
                            <path d="M19.5,39 C30.2695526,39 39,30.2695526 39,19.5 C39,8.73044738 30.2695526,0 19.5,0 C19.5000002,0 19.5,8.73044738 19.5,19.5 C19.5,30.2695526 19.5000002,39 19.5,39 Z" id="Oval-192" fill="#F76A28"></path>
                        </g>
                    </g>
                    <g id="Group-7" transform="translate(0.000000, 12.000000)">
                        <g id="Group-4">
                            <circle id="Oval-192" fill="#F68D2F" cx="18" cy="18" r="18"></circle>
                            <path d="M18,36 C27.9411255,36 36,27.9411255 36,18 C36,8.0588745 27.9411255,0 18,0 C18.0000002,0 18,8.0588745 18,18 C18,27.9411255 18.0000002,36 18,36 Z" id="Oval-192" fill="#F76A28"></path>
                        </g>
                    </g>
                </g>
                <g id="orange" transform="translate(92.000000, 35.000000)">
                    <g id="Group-7" transform="translate(68.000000, 0.000000)">
                        <g id="Group-4">
                            <circle id="Oval-192" fill="#F68D2F" cx="18" cy="18" r="18"></circle>
                            <path d="M18,36 C27.9411255,36 36,27.9411255 36,18 C36,8.0588745 27.9411255,0 18,0 C18.0000002,0 18,8.0588745 18,18 C18,27.9411255 18.0000002,36 18,36 Z" id="Oval-192" fill="#F76A28"></path>
                        </g>
                    </g>
                    <g id="Group-7" transform="translate(36.000000, 4.000000)">
                        <g id="Group-4">
                            <circle id="Oval-192" fill="#F68D2F" cx="16" cy="16" r="16"></circle>
                            <path d="M16,32 C24.836556,32 32,24.836556 32,16 C32,7.163444 24.836556,0 16,0 C16.0000002,0 16,7.163444 16,16 C16,24.836556 16.0000002,32 16,32 Z" id="Oval-192" fill="#F76A28"></path>
                        </g>
                    </g>
                    <g id="Group-7">
                        <g id="Group-4">
                            <circle id="Oval-192" fill="#F68D2F" cx="18" cy="18" r="18"></circle>
                            <path d="M18,36 C27.9411255,36 36,27.9411255 36,18 C36,8.0588745 27.9411255,0 18,0 C18.0000002,0 18,8.0588745 18,18 C18,27.9411255 18.0000002,36 18,36 Z" id="Oval-192" fill="#F76A28"></path>
                        </g>
                    </g>
                </g>
                <g id="orange" transform="translate(0.000000, 32.000000)">
                    <g id="Group-7" transform="translate(56.000000, 3.000000)">
                        <g id="Group-4">
                            <circle id="Oval-192" fill="#F68D2F" cx="18" cy="18" r="18"></circle>
                            <path d="M18,36 C27.9411255,36 36,27.9411255 36,18 C36,8.0588745 27.9411255,0 18,0 C18.0000002,0 18,8.0588745 18,18 C18,27.9411255 18.0000002,36 18,36 Z" id="Oval-192" fill="#F76A28"></path>
                        </g>
                    </g>
                    <g id="Group-7" transform="translate(24.000000, 0.000000)">
                        <g id="Group-4">
                            <circle id="Oval-192" fill="#F68D2F" cx="19.5" cy="19.5" r="19.5"></circle>
                            <path d="M19.5,39 C30.2695526,39 39,30.2695526 39,19.5 C39,8.73044738 30.2695526,0 19.5,0 C19.5000002,0 19.5,8.73044738 19.5,19.5 C19.5,30.2695526 19.5000002,39 19.5,39 Z" id="Oval-192" fill="#F76A28"></path>
                        </g>
                    </g>
                    <g id="Group-7" transform="translate(0.000000, 3.000000)">
                        <g id="Group-4">
                            <circle id="Oval-192" fill="#F68D2F" cx="18" cy="18" r="18"></circle>
                            <path d="M18,36 C27.9411255,36 36,27.9411255 36,18 C36,8.0588745 27.9411255,0 18,0 C18.0000002,0 18,8.0588745 18,18 C18,27.9411255 18.0000002,36 18,36 Z" id="Oval-192" fill="#F76A28"></path>
                        </g>
                    </g>
                </g>
                <g id="orange" transform="translate(196.000000, 32.000000)">
                    <g id="Group-7" transform="translate(24.000000, 0.000000)">
                        <g id="Group-4">
                            <circle id="Oval-192" fill="#F68D2F" cx="19.5" cy="19.5" r="19.5"></circle>
                            <path d="M19.5,39 C30.2695526,39 39,30.2695526 39,19.5 C39,8.73044738 30.2695526,0 19.5,0 C19.5000002,0 19.5,8.73044738 19.5,19.5 C19.5,30.2695526 19.5000002,39 19.5,39 Z" id="Oval-192" fill="#F76A28"></path>
                        </g>
                    </g>
                    <g id="Group-7" transform="translate(0.000000, 3.000000)">
                        <g id="Group-4">
                            <circle id="Oval-192" fill="#F68D2F" cx="18" cy="18" r="18"></circle>
                            <path d="M18,36 C27.9411255,36 36,27.9411255 36,18 C36,8.0588745 27.9411255,0 18,0 C18.0000002,0 18,8.0588745 18,18 C18,27.9411255 18.0000002,36 18,36 Z" id="Oval-192" fill="#F76A28"></path>
                        </g>
                    </g>
                </g>
            </g>
        </g>
    </g>
</svg>