<?xml version="1.0" encoding="UTF-8" standalone="no"?>
<svg width="113px" height="98px" viewBox="0 0 113 98" version="1.1" xmlns="http://www.w3.org/2000/svg" xmlns:xlink="http://www.w3.org/1999/xlink">
    <!-- Generator: Sketch 3.7 (28169) - http://www.bohemiancoding.com/sketch -->
    <title>Group 2</title>
    <desc>Created with Sketch.</desc>
    <defs></defs>
    <g id="Page-1" stroke="none" stroke-width="1" fill="none" fill-rule="evenodd">
        <g id="Desktop-HD-Copy" transform="translate(-1875.000000, -514.000000)">
            <g id="Group-2" transform="translate(1875.000000, 514.000000)">
                <rect id="Rectangle-39" fill="#F5A623" x="0" y="0" width="113" height="98"></rect>
                <rect id="Rectangle-39" fill="#DD8900" x="0" y="0" width="32" height="98"></rect>
                <rect id="Rectangle-41" fill="#F7E8D5" x="53" y="35" width="37" height="48" rx="3"></rect>
                <g id="Group-7" transform="translate(72.000000, 64.000000)">
                    <g id="Group-4">
                        <circle id="Oval-192" fill="#F68D2F" cx="6.5" cy="6.5" r="6.5"></circle>
                        <path d="M6.5,13 C10.0898509,13 13,10.0898509 13,6.5 C13,2.91014913 10.0898509,0 6.5,0 C6.50000008,0 6.5,2.91014913 6.5,6.5 C6.5,10.0898509 6.50000008,13 6.5,13 Z" id="Oval-192" fill="#F76A28"></path>
                    </g>
                </g>
                <g id="Group-7" transform="translate(57.000000, 59.000000)">
                    <g id="Group-4">
                        <circle id="Oval-192" fill="#F68D2F" cx="9" cy="9" r="9"></circle>
                        <path d="M9,18 C13.9705627,18 18,13.9705627 18,9 C18,4.02943725 13.9705627,0 9,0 C9.00000011,0 9,4.02943725 9,9 C9,13.9705627 9.00000011,18 9,18 Z" id="Oval-192" fill="#F76A28"></path>
                    </g>
                </g>
                <text id="Orange" font-family="AmericanTypewriter, American Typewriter" font-size="8" font-weight="normal" fill="#F66A29">
                    <tspan x="58" y="49">Orange</tspan>
                </text>
            </g>
        </g>
    </g>
</svg>