<?xml version="1.0" encoding="UTF-8" standalone="no"?>
<svg width="85px" height="109px" viewBox="0 0 85 109" version="1.1" xmlns="http://www.w3.org/2000/svg" xmlns:xlink="http://www.w3.org/1999/xlink">
    <!-- Generator: Sketch 3.7 (28169) - http://www.bohemiancoding.com/sketch -->
    <title>Group 15</title>
    <desc>Created with Sketch.</desc>
    <defs></defs>
    <g id="Page-1" stroke="none" stroke-width="1" fill="none" fill-rule="evenodd" stroke-linecap="round" stroke-linejoin="round">
        <g id="Desktop-HD-Copy" transform="translate(-1461.000000, -257.000000)" stroke="#4A4A4A" stroke-width="5">
            <g id="Group-15" transform="translate(1464.000000, 260.000000)">
                <g id="Group-5" transform="translate(0.000000, 21.000000)">
                    <path d="M23.9930328,12.3135164 L23.5,82" id="Line"></path>
                    <path d="M24,12 C24,5.372583 18.627417,0 12,0 C5.372583,0 0,5.372583 0,12 C0,18.627417 5.372583,24 12,24 L12,24" id="Oval-300"></path>
                </g>
                <g id="Group-5" transform="translate(66.000000, 62.500000) scale(-1, 1) translate(-66.000000, -62.500000) translate(53.000000, 21.000000)">
                    <g id="Group-14">
                        <path d="M23.9498485,10.2342016 L23.9498485,81.500002" id="Line"></path>
                        <path d="M24,12 C24,5.372583 18.627417,0 12,0 C5.372583,0 0,5.372583 0,12 C0,18.627417 5.372583,24 12,24 L12,24" id="Oval-300"></path>
                    </g>
                </g>
                <g id="Group-5" transform="translate(24.000000, 0.000000)">
                    <path d="M16.0635729,8.24403489 L16.5,103" id="Line"></path>
                    <path d="M16,8 C16,3.581722 12.418278,0 8,0 C3.581722,0 0,3.581722 0,8 C0,12.418278 3.581722,16 8,16 L8,16" id="Oval-300"></path>
                </g>
            </g>
        </g>
    </g>
</svg>