<?xml version="1.0" encoding="UTF-8" standalone="no"?>
<svg width="189px" height="111px" viewBox="0 0 189 111" version="1.1" xmlns="http://www.w3.org/2000/svg" xmlns:xlink="http://www.w3.org/1999/xlink">
    <!-- Generator: Sketch 3.6.1 (26313) - http://www.bohemiancoding.com/sketch -->
    <title>cloud</title>
    <desc>Created with Sketch.</desc>
    <defs></defs>
    <g id="Page-1" stroke="none" stroke-width="1" fill="none" fill-rule="evenodd">
        <g id="Desktop-HD" transform="translate(-786.000000, -249.000000)" fill="#FFFFFF">
            <g id="cloud" transform="translate(786.000000, 249.000000)">
                <path d="M102.38575,110.005159 C115.824121,110.005159 153.96305,113.123032 163.377772,104.75774 C174.727971,94.6727148 156.05263,71.6068307 156.05263,55.0025797 C156.05263,24.6254937 132.025149,0 102.38575,0 C72.7463505,0 48.7188699,24.6254937 48.7188699,55.0025797 C48.7188699,85.3796657 72.7463505,110.005159 102.38575,110.005159 Z" id="Oval-181"></path>
                <path d="M48.7188699,110.005159 C75.6255587,110.005159 128.327237,114.891296 128.327237,94.8553456 C128.327237,74.8193953 75.6255587,37.4485649 48.7188699,37.4485649 C21.812181,37.4485649 0,53.6909118 0,73.7268622 C0,93.7628125 21.812181,110.005159 48.7188699,110.005159 Z" id="Oval-183"></path>
                <ellipse id="Oval-183" cx="145.395377" cy="70.6061484" rx="42.6290111" ry="39.399011"></ellipse>
            </g>
        </g>
    </g>
</svg>