<?xml version="1.0" encoding="UTF-8" standalone="no"?>
<svg width="184px" height="322px" viewBox="0 0 184 322" version="1.1" xmlns="http://www.w3.org/2000/svg" xmlns:xlink="http://www.w3.org/1999/xlink">
    <!-- Generator: Sketch 3.7 (28169) - http://www.bohemiancoding.com/sketch -->
    <title>girl</title>
    <desc>Created with Sketch.</desc>
    <defs></defs>
    <g id="Page-1" stroke="none" stroke-width="1" fill="none" fill-rule="evenodd">
        <g id="Desktop-HD-Copy-2" transform="translate(-46.000000, -530.000000)">
            <g id="girl" transform="translate(46.000000, 530.000000)">
                <polygon id="Rectangle-6" fill="#4A4A4A" points="61.1306826 249.336327 83.717988 249.336327 76.3820757 315.83818 70.3623877 315.83818"></polygon>
                <polygon id="Rectangle-6-Copy" fill="#4A4A4A" points="100.282012 249.336327 122.869317 249.336327 115.533405 315.83818 107.975558 315.83818"></polygon>
                <path d="M8.21500873,54.7934161 C10.772859,32.8539147 30.1476673,10.4402625 51.694551,5.59623758 C51.694551,5.59623758 61.492678,0.675832761 92.0348609,0.675832761 C122.577044,0.675832761 135.01995,5.92788992 135.01995,5.92788992 C156.524885,10.9760734 175.661424,32.9044754 177.584933,54.8997875 C177.584933,54.8997875 190.525474,177.889829 178.584671,187.368691 C178.584671,187.368691 92.7529082,208.671934 6.92114939,187.368691 C-8.41436356,178.388976 8.21500873,54.7934161 8.21500873,54.7934161 Z" id="Rectangle-1" fill="#62514F"></path>
                <g id="face" transform="translate(14.450251, 49.830767)" fill="#FFEFDB">
                    <path d="M79.0555689,95.2185626 C134.194348,95.2185626 146.064575,73.9031613 146.064575,47.6092813 C146.064575,21.3154013 116.063621,0 79.0555689,0 C42.0475168,0 12.0465629,21.3154013 12.0465629,47.6092813 C12.0465629,73.9031613 23.9167895,95.2185626 79.0555689,95.2185626 Z" id="Oval-1"></path>
                    <ellipse id="Oval-4" cx="144.558754" cy="40.0522525" rx="12.0465629" ry="11.3355432"></ellipse>
                    <ellipse id="Oval-4-Copy" cx="12.0465629" cy="40.0522525" rx="12.0465629" ry="11.3355432"></ellipse>
                </g>
                <g id="clothes" transform="translate(18.967713, 143.537924)">
                    <path d="M24.0906992,45.5507401 C25.7553226,23.5205654 44.862047,3.34246324 66.7876424,0.648075447 C66.7876424,0.648075447 69.5847437,0 73.7851976,0 C78.87072,0 80.7976803,0.611267462 80.7976803,0.611267462 C102.705683,3.40047813 121.961986,23.5112931 123.806332,45.512071 L129.620405,114.866837 L18.8531014,114.866837 L24.0906992,45.5507401 Z" id="Rectangle-1-Copy" fill="#82BD5D"></path>
                    <path d="M60.9640458,12.091246 C60.9640458,12.091246 44.8029493,12.0912461 28.9813953,27.2053036 C13.1598414,42.3193611 0.0701028124,94.8809374 0.0701028124,94.8809374" id="Line-Copy-3" stroke="#82BD5D" stroke-width="16" stroke-linejoin="round"></path>
                    <path d="M86.2541064,12.091246 C86.2541064,12.091246 102.415203,12.0912461 118.236757,27.2053036 C134.058311,42.3193611 147.148049,94.8809374 147.148049,94.8809374" id="Line-Copy-5" stroke="#82BD5D" stroke-width="16" stroke-linejoin="round"></path>
                </g>
                <path d="M141.22171,73.3192842 C163.676034,73.3192842 170.808647,66.2141504 170.808647,57.4495237 C170.808647,48.6848971 163.676034,41.5797633 141.22171,41.5797633 C118.767386,41.5797633 100.56456,48.6848971 100.56456,57.4495237 C100.56456,66.2141504 118.767386,73.3192842 141.22171,73.3192842 Z" id="Oval-3" fill="#62514F" transform="translate(135.686603, 57.449524) rotate(18.000000) translate(-135.686603, -57.449524) "></path>
                <ellipse id="Oval-2" fill="#62514F" transform="translate(70.165605, 51.342173) rotate(-23.000000) translate(-70.165605, -51.342173) " cx="70.1656048" cy="51.3421727" rx="58.726994" ry="18.1368691"></ellipse>
                <path d="M68.362852,76.2334337 C68.362852,76.2334337 64.2005875,75.8517832 59.5143754,77.2458969 C54.8281633,78.6400105 53.8919189,80.0548585 53.8919189,80.0548585" id="Line" stroke="#62514F" stroke-width="2" stroke-linecap="round"></path>
                <path d="M126.806102,76.2334337 C126.806102,76.2334337 122.641941,75.8517832 117.953594,77.2458969 C113.265246,78.6400105 112.328575,80.0548585 112.328575,80.0548585" id="Line-Copy" stroke="#62514F" stroke-width="2" stroke-linecap="round" transform="translate(119.567339, 78.120259) scale(-1, 1) translate(-119.567339, -78.120259) "></path>
                <ellipse id="Oval-8" fill="#FFA094" cx="46.8253892" cy="111.798403" rx="12.7994731" ry="6.04562302"></ellipse>
                <ellipse id="Oval-8-Copy" fill="#FFA094" cx="135.66879" cy="111.798403" rx="12.7994731" ry="6.04562302"></ellipse>
                <ellipse id="Oval-6" fill="#62514F" cx="65.6481437" cy="95.1729396" rx="4.51746108" ry="4.53421727"></ellipse>
                <ellipse id="Oval-6-Copy" fill="#62514F" cx="116.846036" cy="95.1729396" rx="4.51746108" ry="4.53421727"></ellipse>
                <path d="M84.4708982,123.133946 C84.4708982,123.133946 87.2475113,126.119408 92.7529102,125.772663 C98.258309,125.425919 101.034922,123.133946 101.034922,123.133946" id="Line" stroke="#62514F" stroke-width="2" stroke-linecap="round"></path>
                <path d="M92,104.997077 C92,104.997077 89.4228584,108.210463 88.3711229,109.530009 C87.4150979,110.729473 92.7529102,111.999846 92.7529102,111.999846" id="Line" stroke="#62514F" stroke-width="2" stroke-linecap="round"></path>
                <ellipse id="Oval-10" fill="#FFEFDB" cx="18.9677126" cy="240.267892" rx="9.03492216" ry="9.06843453"></ellipse>
                <ellipse id="Oval-10-Copy" fill="#FFEFDB" cx="166.538108" cy="240.267892" rx="9.03492216" ry="9.06843453"></ellipse>
                <ellipse id="Oval-14" fill="#FFEFDB" cx="93.5058204" cy="147.316438" rx="11.2936527" ry="6.8013259"></ellipse>
                <path d="M83.695501,158.894263 C89.1011715,158.894263 93.4833333,155.066386 93.4833333,150.344461 C93.4833333,145.622536 73.9076687,145.622536 73.9076687,150.344461 C73.9076687,155.066386 78.2898305,158.894263 83.695501,158.894263 Z" id="Oval-12" fill="#FFFFFF" transform="translate(83.695501, 152.848640) rotate(22.000000) translate(-83.695501, -152.848640) "></path>
                <path d="M103.271166,158.894263 C108.676836,158.894263 113.058998,155.066386 113.058998,150.344461 C113.058998,145.622536 93.4833333,145.622536 93.4833333,150.344461 C93.4833333,155.066386 97.8654951,158.894263 103.271166,158.894263 Z" id="Oval-12-Copy" fill="#FFFFFF" transform="translate(103.271166, 152.848640) scale(-1, 1) rotate(22.000000) translate(-103.271166, -152.848640) "></path>
                <g id="boot-left" transform="translate(55.107401, 302.235528)"></g>
                <g id="boot-right" transform="translate(115.886778, 312.235528) scale(-1, 1) translate(-115.886778, -312.235528) translate(104.386778, 302.235528)" fill="#8B572A">
                    <path d="M15.0166895,19.6482748 L19.8290067,19.6482748 L22.4014919,0 L6.02328144,0 L9.00582594,13.2151858 L2.31263325,16.7981293 C-0.626450591,18.3714549 -0.301627772,19.6482748 3.04134261,19.6482748 L15.0166895,19.6482748 Z" id="Combined-Shape"></path>
                </g>
                <path d="M71.4834232,321.883803 L77.9480486,321.883803 L80.5205338,302.235528 L64.1423234,302.235528 L66.7686567,313.872398 L57.1270587,319.033657 C54.1879748,320.606983 54.5127977,321.883803 57.8557681,321.883803 L71.4834232,321.883803 Z" id="Combined-Shape" fill="#8B572A"></path>
            </g>
        </g>
    </g>
</svg>