<?xml version="1.0" encoding="UTF-8" standalone="no"?>
<svg width="624px" height="279px" viewBox="0 0 624 279" version="1.1" xmlns="http://www.w3.org/2000/svg" xmlns:xlink="http://www.w3.org/1999/xlink">
    <!-- Generator: Sketch 3.7 (28169) - http://www.bohemiancoding.com/sketch -->
    <title>Food Truck</title>
    <desc>Created with Sketch.</desc>
    <defs></defs>
    <g id="Page-1" stroke="none" stroke-width="1" fill="none" fill-rule="evenodd">
        <g id="Desktop-HD" transform="translate(-96.000000, -573.000000)">
            <g id="Food-Truck" transform="translate(96.000000, 573.000000)">
                
                <g id="Group-2">
                    <rect id="Rectangle-70" fill="#AB6432" x="357" y="184" width="50" height="21"></rect>
                    <rect id="Rectangle-70" fill="#AB6432" x="371" y="156" width="36" height="21"></rect>
                    <path d="M407,0 L507.5,0 C507.5,0 558.416012,110.444703 558.416021,110.444702 C558.416024,110.444702 617,139.978943 617,139.978943 C617,139.978943 617,218 617,218 L407,218 L407,0 Z" id="Rectangle-28" fill="#AB6432"></path>
                    <rect id="Rectangle-29" fill="#AB6432" x="8" y="156" width="364" height="62"></rect>
                    <circle id="Oval-310" fill="#ECF5FF" cx="111" cy="219" r="60"></circle>
                    <circle id="Oval-310" fill="#ECF5FF" cx="508" cy="219" r="60"></circle>
                    <circle id="Oval-310" fill="#602900" cx="111" cy="219" r="45"></circle>
                    <circle id="Oval-310" fill="#602900" cx="508" cy="218" r="45"></circle>
                    <rect id="Rectangle-68" fill="#FFFFFF" x="424" y="20" width="56" height="82" rx="8"></rect>
                    <path d="M499,27.993081 C499,23.5786243 500.433802,23.2905338 502.194398,27.3310485 L531.535907,94.6689515 C533.300124,98.7177778 531.140753,102 526.733973,102 L506.996332,102 C502.58008,102 499,98.4238354 499,94.006919 L499,27.993081 Z" id="Rectangle-68" fill="#FFFFFF"></path>
                    <circle id="Oval-318" fill="#E0E0E0" cx="111.5" cy="218.5" r="18.5"></circle>
                    <circle id="Oval-318" fill="#E0E0E0" cx="508.5" cy="218.5" r="18.5"></circle>
                    <rect id="Rectangle-73" fill="#8B572A" x="604" y="190" width="20" height="33" rx="8"></rect>
                    <rect id="Rectangle-73" fill="#8B572A" x="0" y="190" width="41" height="33" rx="8"></rect>
                    <rect id="Rectangle-199" fill="#AB6432" x="13" y="93" width="356" height="7"></rect>
                    <rect id="Rectangle-199" fill="#AB6432" x="13" y="125" width="356" height="7"></rect>
                    <path d="M8,73.0099916 C8,70.2430496 10.2441952,68 13,68 L13,68 C15.7614237,68 18,70.2286759 18,73.0023406 L18,100.149535 C18,102.910385 18,107.377974 18,110.142785 L18,185.000088 C18,187.761463 15.7558048,190 13,190 L13,190 C10.2385763,190 8,187.751914 8,184.990008 L8,73.0099916 Z" id="Rectangle-197" fill="#AB6432"></path>
                    <path d="M364,72.9907684 C364,70.2344431 366.244195,68 369,68 L369,68 C371.761424,68 374,70.2314879 374,72.9956353 L374,108.66455 C374,111.431402 374,115.909835 374,118.672455 L374,212.99018 C374,215.757027 371.755805,218 369,218 L369,218 C366.238576,218 364,215.763174 364,213.009232 L364,72.9907684 Z" id="Rectangle-197" fill="#AB6432"></path>
                </g>
            </g>
        </g>
    </g>
</svg>