<?xml version="1.0" encoding="UTF-8" standalone="no"?>
<svg width="2384px" height="172px" viewBox="0 0 2384 172" version="1.1" xmlns="http://www.w3.org/2000/svg" xmlns:xlink="http://www.w3.org/1999/xlink">
    <!-- Generator: Sketch 3.7.1 (28215) - http://www.bohemiancoding.com/sketch -->
    <title>Group 6</title>
    <desc>Created with Sketch.</desc>
    <defs></defs>
    <g id="Page-1" stroke="none" stroke-width="1" fill="none" fill-rule="evenodd">
        <g id="Desktop-HD" transform="translate(0.000000, -852.000000)">
            <g id="Group-6" transform="translate(0.000000, 852.000000)">
                <rect id="Rectangle-75" fill="#9BB32E" x="0" y="0" width="3432" height="185"></rect>
                <g id="Group-5" transform="translate(55.000000, 54.000000)" stroke="#92AE19" stroke-width="13" stroke-linecap="round" stroke-linejoin="round">
                    <path d="M60.5,6.5 L352.5,6.5" id="Line"></path>
                    <path d="M86.5,40.5 L241.5,40.5" id="Line"></path>
                    <path d="M0.5,74.5 L292.5,74.5" id="Line"></path>
                    <path d="M584.5,6.5 L841.5,6.5" id="Line"></path>
                    <path d="M496.5,40.5 L847.5,40.5" id="Line"></path>
                    <path d="M635.5,74.5 L781.5,74.5" id="Line"></path>
                    <path d="M1057.5,4.5 L1297.5,4.5" id="Line"></path>
                    <path d="M1130.5,37.5 L1285.5,37.5" id="Line"></path>
                    <path d="M988.5,72.5 L1237.5,72.5" id="Line"></path>
                    <path d="M1532.5,6.5 L1789.5,6.5" id="Line"></path>
                    <path d="M1444.5,40.5 L1795.5,40.5" id="Line"></path>
                    <path d="M1583.5,74.5 L1729.5,74.5" id="Line"></path>
                    <path d="M2005.5,4.5 L2245.5,4.5" id="Line"></path>
                    <path d="M2078.5,37.5 L2233.5,37.5" id="Line"></path>
                    <path d="M1936.5,72.5 L2185.5,72.5" id="Line"></path>
                </g>
            </g>
        </g>
    </g>
</svg>