<?xml version="1.0" encoding="UTF-8" standalone="no"?>
<svg width="1039px" height="631px" viewBox="0 0 1039 631" version="1.1" xmlns="http://www.w3.org/2000/svg" xmlns:xlink="http://www.w3.org/1999/xlink">
    <!-- Generator: Sketch 3.7 (28169) - http://www.bohemiancoding.com/sketch -->
    <title>Mountains</title>
    <desc>Created with Sketch.</desc>
    <defs></defs>
    <g id="Page-1" stroke="none" stroke-width="1" fill="none" fill-rule="evenodd">
        <g id="Desktop-HD" transform="translate(0.000000, -228.000000)">
            <g id="Mountains" transform="translate(0.000000, 228.000000)">
                <polygon id="Rectangle-85" fill="#CBCBCB" points="737.505211 209.053711 823.595118 209.053711 1039 630.053711 510 630.053711"></polygon>
                <path d="M737.505211,209.053711 L823.595118,209.053711 L878.981369,317.451591 C878.981369,317.451591 847.032059,305.106697 823.595123,317.451591 C800.158188,329.796486 807.20847,284.529014 796.208015,284 C786.622914,283.539051 776.776627,318.742827 767.653931,317.451591 C756.559401,315.88126 755.394192,283.169712 745.38398,284 C729.741166,285.297479 732.695807,337.351249 720,336.572037 C709.503659,335.927818 682.668241,308.100632 682.668241,308.100632 L737.505211,209.053711 Z" id="Rectangle-85" fill="#FFFFFF"></path>
                <polygon id="Rectangle-85" fill="#E0E0E0" points="345.343449 0 476.024347 0 803 624.053711 0 624.053711"></polygon>
                <path d="M345.343449,0 L476.024347,0 L539.992645,122.174408 C539.992645,122.174408 510.626045,104.312727 497.019272,111.139946 C484.580649,117.381044 488.434312,148.540069 476.024353,145.107025 C459.573139,140.556024 455.029403,96.3600453 445.368759,98.7354813 C426.219045,103.444165 455.035779,144.009753 430.961426,145.107025 C415.670694,145.803953 398.236171,119.641679 384.18782,122.174408 C369.746789,124.777932 367.916273,170.265884 355.87944,170.265884 C347.82076,170.265884 325.354737,122.174408 317.296056,122.174408 L276.985291,122.174408 L345.343449,0 Z" id="Rectangle-85" fill="#FFFFFF"></path>
            </g>
        </g>
    </g>
</svg>