<?xml version="1.0" encoding="UTF-8" standalone="no"?>
<svg width="1440px" height="1024px" viewBox="0 0 1440 1024" version="1.1" xmlns="http://www.w3.org/2000/svg" xmlns:xlink="http://www.w3.org/1999/xlink">
    <!-- Generator: Sketch 3.6.1 (26313) - http://www.bohemiancoding.com/sketch -->
    <title>farm</title>
    <desc>Created with Sketch.</desc>
    <defs>
        <ellipse id="path-1" cx="1038" cy="1070" rx="473" ry="306"></ellipse>
    </defs>
    <g id="Page-1" stroke="none" stroke-width="1" fill="none" fill-rule="evenodd">
        <g id="farm">
            <rect id="Rectangle-7" fill="#F7E8D5" x="-17" y="0" width="1457" height="1024"></rect>
            <g id="Group-6" transform="translate(846.000000, 851.000000)">
                <path d="M18.5,55.5 L13.5,56.5" id="Line" stroke="#602900" stroke-linecap="round" stroke-linejoin="round"></path>
                <path d="M18.5,55.5 L16.5,58.5" id="Line" stroke="#602900" stroke-linecap="round" stroke-linejoin="round"></path>
                <path d="M18.5,55.5 L20.5,58.5" id="Line" stroke="#602900" stroke-linecap="round" stroke-linejoin="round"></path>
                <path d="M46.5,55.5 L43.5,58.5" id="Line" stroke="#602900" stroke-linecap="round" stroke-linejoin="round"></path>
                <path d="M46.5,55.5 L46.5,58.5" id="Line" stroke="#602900" stroke-linecap="round" stroke-linejoin="round"></path>
                <path d="M46.5,55.5 L49.5,56.5" id="Line" stroke="#602900" stroke-linecap="round" stroke-linejoin="round"></path>
                <path d="M25,43 L18.5,55.5" id="Line" stroke="#602900" stroke-width="2" stroke-linecap="round" stroke-linejoin="round"></path>
                <path d="M47,43 L40.5,55.5" id="Line" stroke="#602900" stroke-width="2" stroke-linecap="round" stroke-linejoin="round" transform="translate(43.500000, 49.500000) scale(-1, 1) translate(-43.500000, -49.500000) "></path>
                <circle id="Oval-161" fill="#FFFFFF" cx="23.5" cy="43.5" r="6.5"></circle>
                <circle id="Oval-161" fill="#FFFFFF" cx="41.5" cy="43.5" r="6.5"></circle>
                <polygon id="Polygon-9" fill="#FD614E" transform="translate(69.500000, 9.000000) rotate(-270.000000) translate(-69.500000, -9.000000) " points="69.5 6.5 71.5 11.5 67.5 11.5 "></polygon>
                <path d="M56.8525374,4.79424912 C57.9433429,3.19991827 59.8515529,3.09458985 61.1142584,4.55854472 L62.6585054,6.34891302 C63.9213834,7.81306793 64.6135434,10.5370508 64.2064178,12.4241543 L60.5086756,29.563883 C60.1006861,31.4549911 58.5768811,31.9644881 57.1132156,30.7087856 L48.4333376,23.2621767 C46.9660664,22.0033808 46.6633963,19.6867876 47.751686,18.0961337 L56.8525374,4.79424912 Z" id="Rectangle-18" fill="#FFFFFF"></path>
                <path d="M33,47 C46.8925171,47 58.4219305,39.4452543 60.6217148,29.5375965 C60.870544,28.416889 61,27.2660759 61,26.0926858 C61,14.5458949 48.463973,14 33,14 C17.536027,14 5,14.5458949 5,26.0926858 C5,37.6394766 17.536027,47 33,47 Z" id="Oval-157" fill="#FFFFFF"></path>
                <circle id="Oval-158" fill="#FFFFFF" cx="62" cy="8" r="6"></circle>
                <path d="M5.51876963,10.6152605 C6.26932723,6.25711591 9.09767258,5.54623742 11.8211026,9.00845938 L19.1850413,18.3700329 C21.9151661,21.8407657 20.6846151,25.640101 16.4392234,26.8553145 L7.77848968,29.3343886 C4.59299118,30.2462151 2.46633564,28.3393481 3.02798278,25.0781201 L5.51876963,10.6152605 Z" id="Rectangle-17" fill="#FFFFFF" transform="translate(11.787910, 18.188639) rotate(-14.000000) translate(-11.787910, -18.188639) "></path>
                <circle id="Oval-160" fill="#4A4A4A" cx="63" cy="6" r="1"></circle>
                <path d="M62,3 C64.209139,3 65.6293089,3.82842712 65.6293089,3 C65.6293089,2.17157288 64.209139,0 62,0 C59.790861,0 58.4608581,2.17157288 58.4608581,3 C58.4608581,3.82842712 59.790861,3 62,3 Z" id="Oval-159" fill="#FD614E"></path>
            </g>
            <ellipse id="Oval-82" fill="#74881C" cx="1384" cy="1038" rx="473" ry="306"></ellipse>
            <ellipse id="Oval-82" fill="#00C5FF" cx="1058" cy="1068" rx="473" ry="306"></ellipse>
            <g id="Oval-82">
                <use fill="#42B9DD" xlink:href="#path-1"></use>
                <use fill="#4BD4FD" xlink:href="#path-1"></use>
            </g>
            <ellipse id="Oval-82" fill="#74881C" cx="194" cy="909.5" rx="629" ry="331.5"></ellipse>
            <g id="Group-8" transform="translate(420.000000, 283.000000)">
                <rect id="Rectangle-25" fill="#602900" x="65" y="163" width="25" height="194"></rect>
                <ellipse id="Oval-190" fill="#9BB32E" cx="77.5" cy="142" rx="77.5" ry="142"></ellipse>
                <path d="M77.5,284 C120.302068,284 155,220.424434 155,142 C155,63.5755655 120.302068,0 77.5,0 C77.5000004,0 77.4999998,68.2208292 77.4999998,146.645264 C77.4999998,225.069698 77.5000004,284 77.5,284 Z" id="Oval-190" fill="#74881C"></path>
            </g>
            <g id="Group-8" transform="translate(256.000000, 325.000000)">
                <rect id="Rectangle-25" fill="#602900" x="65" y="73" width="25" height="194"></rect>
                <ellipse id="Oval-190" fill="#9BB32E" cx="77.5" cy="97" rx="77.5" ry="97"></ellipse>
                <path d="M77.5,194 C120.302068,194 155,150.571621 155,97 C155,43.4283793 120.302068,0 77.5,0 C77.5000004,0 77.4999998,46.6015523 77.4999998,100.173173 C77.4999998,153.744794 77.5000004,194 77.5,194 Z" id="Oval-190" fill="#74881C"></path>
            </g>
            <g id="Group-8" transform="translate(1251.000000, 470.000000)">
                <rect id="Rectangle-25" fill="#602900" x="65" y="73" width="25" height="194"></rect>
                <ellipse id="Oval-190" fill="#9BB32E" cx="77.5" cy="97" rx="77.5" ry="97"></ellipse>
                <path d="M77.5,194 C120.302068,194 155,150.571621 155,97 C155,43.4283793 120.302068,0 77.5,0 C77.5000004,0 77.4999998,46.6015523 77.4999998,100.173173 C77.4999998,153.744794 77.5000004,194 77.5,194 Z" id="Oval-190" fill="#74881C"></path>
            </g>
            <g id="orange" transform="translate(438.000000, 317.000000)">
                <g id="Group-7" transform="translate(0.000000, 108.000000)">
                    <g id="Group-4">
                        <circle id="Oval-192" fill="#F68D2F" cx="18" cy="18" r="18"></circle>
                        <path d="M18,36 C27.9411255,36 36,27.9411255 36,18 C36,8.0588745 27.9411255,0 18,0 C18.0000002,0 18,8.0588745 18,18 C18,27.9411255 18.0000002,36 18,36 Z" id="Oval-192" fill="#F76A28"></path>
                    </g>
                </g>
                <g id="Group-7" transform="translate(77.000000, 147.000000)">
                    <g id="Group-4">
                        <circle id="Oval-192" fill="#F68D2F" cx="14" cy="14" r="14"></circle>
                        <path d="M14,28 C21.7319865,28 28,21.7319865 28,14 C28,6.2680135 21.7319865,0 14,0 C14.0000002,0 14,6.2680135 14,14 C14,21.7319865 14.0000002,28 14,28 Z" id="Oval-192" fill="#F76A28"></path>
                    </g>
                </g>
                <g id="Group-7" transform="translate(52.000000, 84.000000)">
                    <g id="Group-4">
                        <circle id="Oval-192" fill="#F68D2F" cx="14.5" cy="14.5" r="14.5"></circle>
                        <path d="M14.5,29 C22.5081289,29 29,22.5081289 29,14.5 C29,6.49187113 22.5081289,0 14.5,0 C14.5000002,0 14.5,6.49187113 14.5,14.5 C14.5,22.5081289 14.5000002,29 14.5,29 Z" id="Oval-192" fill="#F76A28"></path>
                    </g>
                </g>
                <g id="Group-7" transform="translate(25.000000, 0.000000)">
                    <g id="Group-4">
                        <circle id="Oval-192" fill="#F68D2F" cx="13.5" cy="13.5" r="13.5"></circle>
                        <path d="M13.5,27 C20.9558441,27 27,20.9558441 27,13.5 C27,6.04415588 20.9558441,0 13.5,0 C13.5000002,0 13.5,6.04415588 13.5,13.5 C13.5,20.9558441 13.5000002,27 13.5,27 Z" id="Oval-192" fill="#F76A28"></path>
                    </g>
                </g>
                <g id="Group-7" transform="translate(77.000000, 39.000000)">
                    <g id="Group-4">
                        <circle id="Oval-192" fill="#F68D2F" cx="11.5" cy="11.5" r="11.5"></circle>
                        <path d="M11.5,23 C17.8512746,23 23,17.8512746 23,11.5 C23,5.14872538 17.8512746,0 11.5,0 C11.5000001,0 11.5,5.14872538 11.5,11.5 C11.5,17.8512746 11.5000001,23 11.5,23 Z" id="Oval-192" fill="#F76A28"></path>
                    </g>
                </g>
            </g>
            <g id="orange" transform="translate(282.000000, 358.000000)">
                <g id="Group-7" transform="translate(65.000000, 77.000000)">
                    <g id="Group-4">
                        <circle id="Oval-192" fill="#F68D2F" cx="18" cy="18" r="18"></circle>
                        <path d="M18,36 C27.9411255,36 36,27.9411255 36,18 C36,8.0588745 27.9411255,0 18,0 C18.0000002,0 18,8.0588745 18,18 C18,27.9411255 18.0000002,36 18,36 Z" id="Oval-192" fill="#F76A28"></path>
                    </g>
                </g>
                <g id="Group-7" transform="translate(23.000000, 0.000000)">
                    <g id="Group-4">
                        <circle id="Oval-192" fill="#F68D2F" cx="14.5" cy="14.5" r="14.5"></circle>
                        <path d="M14.5,29 C22.5081289,29 29,22.5081289 29,14.5 C29,6.49187113 22.5081289,0 14.5,0 C14.5000002,0 14.5,6.49187113 14.5,14.5 C14.5,22.5081289 14.5000002,29 14.5,29 Z" id="Oval-192" fill="#F76A28"></path>
                    </g>
                </g>
                <g id="Group-7" transform="translate(0.000000, 54.000000)">
                    <g id="Group-4">
                        <circle id="Oval-192" fill="#F68D2F" cx="11.5" cy="11.5" r="11.5"></circle>
                        <path d="M11.5,23 C17.8512746,23 23,17.8512746 23,11.5 C23,5.14872538 17.8512746,0 11.5,0 C11.5000001,0 11.5,5.14872538 11.5,11.5 C11.5,17.8512746 11.5000001,23 11.5,23 Z" id="Oval-192" fill="#F76A28"></path>
                    </g>
                </g>
            </g>
            <g id="orange" transform="translate(1277.000000, 508.000000)">
                <g id="Group-7" transform="translate(65.000000, 77.000000)">
                    <g id="Group-4">
                        <circle id="Oval-192" fill="#F68D2F" cx="18" cy="18" r="18"></circle>
                        <path d="M18,36 C27.9411255,36 36,27.9411255 36,18 C36,8.0588745 27.9411255,0 18,0 C18.0000002,0 18,8.0588745 18,18 C18,27.9411255 18.0000002,36 18,36 Z" id="Oval-192" fill="#F76A28"></path>
                    </g>
                </g>
                <g id="Group-7" transform="translate(23.000000, 0.000000)">
                    <g id="Group-4">
                        <circle id="Oval-192" fill="#F68D2F" cx="14.5" cy="14.5" r="14.5"></circle>
                        <path d="M14.5,29 C22.5081289,29 29,22.5081289 29,14.5 C29,6.49187113 22.5081289,0 14.5,0 C14.5000002,0 14.5,6.49187113 14.5,14.5 C14.5,22.5081289 14.5000002,29 14.5,29 Z" id="Oval-192" fill="#F76A28"></path>
                    </g>
                </g>
                <g id="Group-7" transform="translate(0.000000, 54.000000)">
                    <g id="Group-4">
                        <circle id="Oval-192" fill="#F68D2F" cx="11.5" cy="11.5" r="11.5"></circle>
                        <path d="M11.5,23 C17.8512746,23 23,17.8512746 23,11.5 C23,5.14872538 17.8512746,0 11.5,0 C11.5000001,0 11.5,5.14872538 11.5,11.5 C11.5,17.8512746 11.5000001,23 11.5,23 Z" id="Oval-192" fill="#F76A28"></path>
                    </g>
                </g>
            </g>
            <g id="fengche" transform="translate(69.000000, 175.000000)">
                <path d="M99,100 L10.5,506.5" id="Line" stroke="#602900" stroke-width="10" stroke-linecap="square"></path>
                <path d="M189,100 L100.5,506.5" id="Line" stroke="#602900" stroke-width="10" stroke-linecap="square" transform="translate(145.000000, 303.500000) scale(1, -1) translate(-145.000000, -303.500000) "></path>
                <path d="M33.5,228 L164.5,228" id="Line" stroke="#602900" stroke-width="10" stroke-linecap="round" stroke-linejoin="round"></path>
                <polygon id="Polygon-1" fill="#FAB233" points="100 -33.3333333 131 66.6666667 69 66.6666667 "></polygon>
                <polygon id="Polygon-1" fill="#FAB233" points="33.3333333 33.3333333 64.3333333 133.333333 2.33333333 133.333333 "></polygon>
                <polygon id="Polygon-1" fill="#FAB233" transform="translate(151.000000, 100.000000) scale(-1, -1) rotate(-270.000000) translate(-151.000000, -100.000000) " points="151 50 182 150 120 150 "></polygon>
                <polygon id="Polygon-1" fill="#FAB233" points="101 100 132 200 70 200 "></polygon>
                <polygon id="Polygon-1" fill="#FAB233" points="50.4905363 -15.1761304 81.4905363 84.8238696 19.4905363 84.8238696 "></polygon>
                <polygon id="Polygon-1" fill="#FAB233" points="54.4905363 80.3940956 85.4905363 180.394096 23.4905363 180.394096 "></polygon>
                <polygon id="Polygon-1" fill="#FAB233" transform="translate(136.275649, 136.275649) scale(-1, 1) rotate(-315.000000) translate(-136.275649, -136.275649) " points="136.275649 86.2756493 167.275649 186.275649 105.275649 186.275649 "></polygon>
                <polygon id="Polygon-1" fill="#FAB233" points="149.060762 -14.1761304 180.060762 85.8238696 118.060762 85.8238696 "></polygon>
                <circle id="Oval-2" fill="#C57C43" cx="100" cy="100" r="26"></circle>
            </g>
            <g id="truck" transform="translate(270.000000, 614.000000)">
                <path d="M59.5,10.5 L80.5,39.5" id="Line" stroke="#602900" stroke-width="5" stroke-linecap="square"></path>
                <path d="M48.5,18.5 L70.5,0.5" id="Line" stroke="#602900" stroke-width="5" stroke-linecap="round" stroke-linejoin="round"></path>
                <rect id="Rectangle-8" fill="#F6A623" x="47" y="32" width="160" height="76" rx="8"></rect>
                <rect id="Rectangle-8" fill="#DD8900" x="127" y="32" width="80" height="76" rx="8"></rect>
                <circle id="Oval-84" fill="#602900" cx="53" cy="95" r="53"></circle>
                <ellipse id="Oval-84" fill="#602900" cx="199.5" cy="108.5" rx="30.5" ry="30.5"></ellipse>
                <circle id="Oval-86" fill="#F7E8D5" cx="54" cy="96" r="25"></circle>
                <circle id="Oval-86" fill="#F7E8D5" cx="199.5" cy="108.5" r="15.5"></circle>
                <circle id="Oval-88" fill="#602900" cx="53.5" cy="95.5" r="9.5"></circle>
                <circle id="Oval-88" fill="#602900" cx="200" cy="109" r="7"></circle>
            </g>
            <ellipse id="Oval-81" fill="#9BB32E" cx="721" cy="1193" rx="769" ry="482"></ellipse>
            <g id="hens" transform="translate(846.000000, 874.000000)">
                <path d="M18.5,55.5 L13.5,56.5" id="Line" stroke="#602900" stroke-linecap="round" stroke-linejoin="round"></path>
                <path d="M18.5,55.5 L16.5,58.5" id="Line" stroke="#602900" stroke-linecap="round" stroke-linejoin="round"></path>
                <path d="M18.5,55.5 L20.5,58.5" id="Line" stroke="#602900" stroke-linecap="round" stroke-linejoin="round"></path>
                <path d="M46.5,55.5 L43.5,58.5" id="Line" stroke="#602900" stroke-linecap="round" stroke-linejoin="round"></path>
                <path d="M46.5,55.5 L46.5,58.5" id="Line" stroke="#602900" stroke-linecap="round" stroke-linejoin="round"></path>
                <path d="M46.5,55.5 L49.5,56.5" id="Line" stroke="#602900" stroke-linecap="round" stroke-linejoin="round"></path>
                <path d="M25,43 L18.5,55.5" id="Line" stroke="#602900" stroke-width="2" stroke-linecap="round" stroke-linejoin="round"></path>
                <path d="M47,43 L40.5,55.5" id="Line" stroke="#602900" stroke-width="2" stroke-linecap="round" stroke-linejoin="round" transform="translate(43.500000, 49.500000) scale(-1, 1) translate(-43.500000, -49.500000) "></path>
                <circle id="Oval-161" fill="#FFFFFF" cx="23.5" cy="43.5" r="6.5"></circle>
                <circle id="Oval-161" fill="#FFFFFF" cx="41.5" cy="43.5" r="6.5"></circle>
                <polygon id="Polygon-9" fill="#FD614E" transform="translate(69.500000, 9.000000) rotate(-270.000000) translate(-69.500000, -9.000000) " points="69.5 6.5 71.5 11.5 67.5 11.5 "></polygon>
                <path d="M56.8525374,4.79424912 C57.9433429,3.19991827 59.8515529,3.09458985 61.1142584,4.55854472 L62.6585054,6.34891302 C63.9213834,7.81306793 64.6135434,10.5370508 64.2064178,12.4241543 L60.5086756,29.563883 C60.1006861,31.4549911 58.5768811,31.9644881 57.1132156,30.7087856 L48.4333376,23.2621767 C46.9660664,22.0033808 46.6633963,19.6867876 47.751686,18.0961337 L56.8525374,4.79424912 Z" id="Rectangle-18" fill="#FFFFFF"></path>
                <path d="M33,47 C46.8925171,47 58.4219305,39.4452543 60.6217148,29.5375965 C60.870544,28.416889 61,27.2660759 61,26.0926858 C61,14.5458949 48.463973,14 33,14 C17.536027,14 5,14.5458949 5,26.0926858 C5,37.6394766 17.536027,47 33,47 Z" id="Oval-157" fill="#FFFFFF"></path>
                <circle id="Oval-158" fill="#FFFFFF" cx="62" cy="8" r="6"></circle>
                <path d="M5.51876963,10.6152605 C6.26932723,6.25711591 9.09767258,5.54623742 11.8211026,9.00845938 L19.1850413,18.3700329 C21.9151661,21.8407657 20.6846151,25.640101 16.4392234,26.8553145 L7.77848968,29.3343886 C4.59299118,30.2462151 2.46633564,28.3393481 3.02798278,25.0781201 L5.51876963,10.6152605 Z" id="Rectangle-17" fill="#FFFFFF" transform="translate(11.787910, 18.188639) rotate(-14.000000) translate(-11.787910, -18.188639) "></path>
                <circle id="Oval-160" fill="#4A4A4A" cx="63" cy="6" r="1"></circle>
                <path d="M62,3 C64.209139,3 65.6293089,3.82842712 65.6293089,3 C65.6293089,2.17157288 64.209139,0 62,0 C59.790861,0 58.4608581,2.17157288 58.4608581,3 C58.4608581,3.82842712 59.790861,3 62,3 Z" id="Oval-159" fill="#FD614E"></path>
            </g>
            <g id="hens" transform="translate(990.500000, 880.500000) scale(-1, 1) translate(-990.500000, -880.500000) translate(963.000000, 858.000000)">
                <path d="M14.1319444,42.3305085 L10.3125,43.0932203" id="Line" stroke="#602900" stroke-linecap="round" stroke-linejoin="round"></path>
                <path d="M14.1319444,42.3305085 L12.6041667,44.6186441" id="Line" stroke="#602900" stroke-linecap="round" stroke-linejoin="round"></path>
                <path d="M14.1319444,42.3305085 L15.6597222,44.6186441" id="Line" stroke="#602900" stroke-linecap="round" stroke-linejoin="round"></path>
                <path d="M35.5208333,42.3305085 L33.2291667,44.6186441" id="Line" stroke="#602900" stroke-linecap="round" stroke-linejoin="round"></path>
                <path d="M35.5208333,42.3305085 L35.5208333,44.6186441" id="Line" stroke="#602900" stroke-linecap="round" stroke-linejoin="round"></path>
                <path d="M35.5208333,42.3305085 L37.8125,43.0932203" id="Line" stroke="#602900" stroke-linecap="round" stroke-linejoin="round"></path>
                <path d="M19.0972222,32.7966102 L14.1319444,42.3305085" id="Line" stroke="#602900" stroke-width="2" stroke-linecap="round" stroke-linejoin="round"></path>
                <path d="M35.9027778,32.7966102 L30.9375,42.3305085" id="Line" stroke="#602900" stroke-width="2" stroke-linecap="round" stroke-linejoin="round" transform="translate(33.229167, 37.754237) scale(-1, 1) translate(-33.229167, -37.754237) "></path>
                <ellipse id="Oval-161" fill="#FFFFFF" cx="17.9513889" cy="33.1779661" rx="4.96527778" ry="4.95762712"></ellipse>
                <ellipse id="Oval-161" fill="#FFFFFF" cx="31.7013889" cy="33.1779661" rx="4.96527778" ry="4.95762712"></ellipse>
                <polygon id="Polygon-9" fill="#FD614E" transform="translate(53.090278, 6.864407) rotate(-270.000000) translate(-53.090278, -6.864407) " points="53.0902778 4.95762712 54.6180556 8.77118644 51.5625 8.77118644 "></polygon>
                <path d="M42.9561858,4.34666682 C44.05058,2.74955533 45.9632968,2.64199289 47.2195609,4.09623552 L47.3290781,4.22301191 C48.5892809,5.68181401 49.2806224,8.3928411 48.871933,10.2842743 L46.3965412,21.7404998 C45.9884336,23.6292405 44.4728072,24.145483 43.0015503,22.8852126 L37.624289,18.2790807 C36.1573949,17.0225474 35.8529706,14.7127916 36.9498182,13.1120997 L42.9561858,4.34666682 Z" id="Rectangle-18" fill="#FFFFFF"></path>
                <path d="M25.2083333,35.8474576 C35.8206728,35.8474576 44.6278636,30.0853635 46.3082544,22.5286753 C46.4983322,21.6738984 46.5972222,20.7961595 46.5972222,19.901201 C46.5972222,11.0943266 37.0210905,10.6779661 25.2083333,10.6779661 C13.3955762,10.6779661 3.81944444,11.0943266 3.81944444,19.901201 C3.81944444,28.7080754 13.3955762,35.8474576 25.2083333,35.8474576 Z" id="Oval-157" fill="#FFFFFF"></path>
                <ellipse id="Oval-158" fill="#FFFFFF" cx="47.3611111" cy="6.10169492" rx="4.58333333" ry="4.57627119"></ellipse>
                <path d="M4.10612282,8.74356631 C4.74035748,5.06653026 7.12853167,4.46442984 9.44206763,7.40103291 L14.2444829,13.4968047 C16.5572091,16.4323801 15.5276056,19.6422282 11.9239733,20.6721532 L7.30376699,21.992617 C4.11862217,22.9029374 1.99244628,20.997808 2.55741711,17.7223357 L4.10612282,8.74356631 Z" id="Rectangle-17" fill="#FFFFFF" transform="translate(8.972530, 13.879326) rotate(-14.000000) translate(-8.972530, -13.879326) "></path>
                <ellipse id="Oval-160" fill="#4A4A4A" cx="48.125" cy="4.57627119" rx="0.763888889" ry="0.762711864"></ellipse>
                <path d="M47.3611111,2.28813559 C49.0486478,2.28813559 50.1334999,2.91998679 50.1334999,2.28813559 C50.1334999,1.6562844 49.0486478,0 47.3611111,0 C45.6735744,0 44.6575999,1.6562844 44.6575999,2.28813559 C44.6575999,2.91998679 45.6735744,2.28813559 47.3611111,2.28813559 Z" id="Oval-159" fill="#FD614E"></path>
            </g>
            <g id="hens" transform="translate(954.000000, 821.500000) scale(-1, 1) translate(-954.000000, -821.500000) translate(918.000000, 792.000000)">
                <path d="M18.5,55.5 L13.5,56.5" id="Line" stroke="#602900" stroke-linecap="round" stroke-linejoin="round"></path>
                <path d="M18.5,55.5 L16.5,58.5" id="Line" stroke="#602900" stroke-linecap="round" stroke-linejoin="round"></path>
                <path d="M18.5,55.5 L20.5,58.5" id="Line" stroke="#602900" stroke-linecap="round" stroke-linejoin="round"></path>
                <path d="M46.5,55.5 L43.5,58.5" id="Line" stroke="#602900" stroke-linecap="round" stroke-linejoin="round"></path>
                <path d="M46.5,55.5 L46.5,58.5" id="Line" stroke="#602900" stroke-linecap="round" stroke-linejoin="round"></path>
                <path d="M46.5,55.5 L49.5,56.5" id="Line" stroke="#602900" stroke-linecap="round" stroke-linejoin="round"></path>
                <path d="M25,43 L18.5,55.5" id="Line" stroke="#602900" stroke-width="2" stroke-linecap="round" stroke-linejoin="round"></path>
                <path d="M47,43 L40.5,55.5" id="Line" stroke="#602900" stroke-width="2" stroke-linecap="round" stroke-linejoin="round" transform="translate(43.500000, 49.500000) scale(-1, 1) translate(-43.500000, -49.500000) "></path>
                <circle id="Oval-161" fill="#FFFFFF" cx="23.5" cy="43.5" r="6.5"></circle>
                <circle id="Oval-161" fill="#FFFFFF" cx="41.5" cy="43.5" r="6.5"></circle>
                <polygon id="Polygon-9" fill="#FD614E" transform="translate(69.500000, 9.000000) rotate(-270.000000) translate(-69.500000, -9.000000) " points="69.5 6.5 71.5 11.5 67.5 11.5 "></polygon>
                <path d="M56.8525374,4.79424912 C57.9433429,3.19991827 59.8515529,3.09458985 61.1142584,4.55854472 L62.6585054,6.34891302 C63.9213834,7.81306793 64.6135434,10.5370508 64.2064178,12.4241543 L60.5086756,29.563883 C60.1006861,31.4549911 58.5768811,31.9644881 57.1132156,30.7087856 L48.4333376,23.2621767 C46.9660664,22.0033808 46.6633963,19.6867876 47.751686,18.0961337 L56.8525374,4.79424912 Z" id="Rectangle-18" fill="#FFFFFF"></path>
                <path d="M33,47 C46.8925171,47 58.4219305,39.4452543 60.6217148,29.5375965 C60.870544,28.416889 61,27.2660759 61,26.0926858 C61,14.5458949 48.463973,14 33,14 C17.536027,14 5,14.5458949 5,26.0926858 C5,37.6394766 17.536027,47 33,47 Z" id="Oval-157" fill="#FFFFFF"></path>
                <circle id="Oval-158" fill="#FFFFFF" cx="62" cy="8" r="6"></circle>
                <path d="M5.51876963,10.6152605 C6.26932723,6.25711591 9.09767258,5.54623742 11.8211026,9.00845938 L19.1850413,18.3700329 C21.9151661,21.8407657 20.6846151,25.640101 16.4392234,26.8553145 L7.77848968,29.3343886 C4.59299118,30.2462151 2.46633564,28.3393481 3.02798278,25.0781201 L5.51876963,10.6152605 Z" id="Rectangle-17" fill="#FFFFFF" transform="translate(11.787910, 18.188639) rotate(-14.000000) translate(-11.787910, -18.188639) "></path>
                <circle id="Oval-160" fill="#4A4A4A" cx="63" cy="6" r="1"></circle>
                <path d="M62,3 C64.209139,3 65.6293089,3.82842712 65.6293089,3 C65.6293089,2.17157288 64.209139,0 62,0 C59.790861,0 58.4608581,2.17157288 58.4608581,3 C58.4608581,3.82842712 59.790861,3 62,3 Z" id="Oval-159" fill="#FD614E"></path>
            </g>
            <g id="Group" transform="translate(-49.000000, 538.000000)">
                <rect id="Rectangle-2" fill="#C57C43" x="0" y="0" width="192" height="242"></rect>
                <rect id="Rectangle-2" fill="#89410C" x="0" y="0" width="192" height="91"></rect>
                <rect id="Rectangle-2" fill="#602900" x="0" y="0" width="192" height="73"></rect>
                <rect id="Combined-Shape" fill="#AA6532" x="123" y="72" width="145" height="170"></rect>
                <path d="M195.5,72.5 L268,72.5 C268,32.4593556 216.642067,-2.58915653e-15 195.5,0 C174.357933,2.58915646e-15 123,32.4593556 123,72.5 L195.5,72.5 Z" id="Oval-1" fill="#AA6532"></path>
                <rect id="Rectangle-4" stroke="#602900" stroke-width="5" fill="#E0B173" x="160" y="151" width="74" height="91"></rect>
                <path d="M162.5,154.5 L230.5,239.5" id="Line" stroke="#602900" stroke-width="4" stroke-linecap="square"></path>
                <path d="M162.5,154.5 L230.5,239.5" id="Line" stroke="#602900" stroke-width="4" stroke-linecap="square" transform="translate(196.500000, 197.000000) scale(-1, 1) translate(-196.500000, -197.000000) "></path>
                <rect id="Rectangle-5" fill="#602900" x="182" y="57" width="31" height="31"></rect>
            </g>
            <g id="Group-3" transform="translate(774.000000, 659.000000)">
                <path d="M25.5,25.2429466 C29.6421356,25.2429466 33,25.6126984 33,16.5 C33,7.38730163 29.6421356,0 25.5,0 C21.3578644,0 18,7.38730163 18,16.5 C18,25.6126984 21.3578644,25.2429466 25.5,25.2429466 Z" id="Oval-13" fill="#FAB233"></path>
                <g id="Group-2" transform="translate(36.870860, 38.349942) rotate(-320.000000) translate(-36.870860, -38.349942) translate(30.370860, 19.849942)">
                    <ellipse id="Oval-3" fill="#4F9C42" cx="6.48922652" cy="18.077131" rx="6.48922652" ry="18.077131"></ellipse>
                    <path d="M6.48922652,36.154262 L6.48922652,18.077131 L6.48922652,0 C2.90532567,0 0,8.09340723 0,18.077131 C0,28.0608548 2.90532567,36.154262 6.48922652,36.154262 Z" id="Oval-3" fill="#82BD5D"></path>
                </g>
                <g id="Group-2" transform="translate(36.603443, 63.806371) rotate(-320.000000) translate(-36.603443, -63.806371) translate(30.603443, 47.806371)">
                    <ellipse id="Oval-3" fill="#4F9C42" cx="5.6661235" cy="15.7842012" rx="5.6661235" ry="15.7842012"></ellipse>
                    <path d="M5.6661235,31.5684024 L5.6661235,15.7842012 L5.6661235,0 C2.5368099,0 0,7.06682759 0,15.7842012 C0,24.5015748 2.5368099,31.5684024 5.6661235,31.5684024 Z" id="Oval-3" fill="#82BD5D"></path>
                </g>
                <g id="Group-2" transform="translate(34.199865, 21.752808) rotate(-320.000000) translate(-34.199865, -21.752808) translate(29.199865, 8.252808)">
                    <ellipse id="Oval-3" fill="#4F9C42" cx="4.69595093" cy="13.0815776" rx="4.69595093" ry="13.0815776"></ellipse>
                    <path d="M4.69595093,26.1631552 L4.69595093,13.0815776 L4.69595093,0 C2.10244885,0 1.13686838e-13,5.85682179 1.13686838e-13,13.0815776 C1.13686838e-13,20.3063334 2.10244885,26.1631552 4.69595093,26.1631552 Z" id="Oval-3" fill="#82BD5D"></path>
                </g>
                <g id="Group-2" transform="translate(14.880868, 70.113437) scale(-1, 1) rotate(-320.000000) translate(-14.880868, -70.113437) translate(8.880868, 54.113437)">
                    <ellipse id="Oval-3" fill="#4F9C42" cx="5.6661235" cy="15.7842012" rx="5.6661235" ry="15.7842012"></ellipse>
                    <path d="M5.6661235,31.5684024 L5.6661235,15.7842012 L5.6661235,0 C2.5368099,0 0,7.06682759 0,15.7842012 C0,24.5015748 2.5368099,31.5684024 5.6661235,31.5684024 Z" id="Oval-3" fill="#82BD5D"></path>
                </g>
                <g id="Group-2" transform="translate(14.855059, 48.025999) scale(-1, 1) rotate(-320.000000) translate(-14.855059, -48.025999) translate(9.355059, 33.025999)">
                    <ellipse id="Oval-3" fill="#4F9C42" cx="5.28333873" cy="14.7178722" rx="5.28333873" ry="14.7178722"></ellipse>
                    <path d="M5.28333873,29.4357443 L5.28333873,14.7178722 L5.28333873,0 C2.36543132,0 5.68434189e-14,6.58941582 5.68434189e-14,14.7178722 C5.68434189e-14,22.8463285 2.36543132,29.4357443 5.28333873,29.4357443 Z" id="Oval-3" fill="#82BD5D"></path>
                </g>
                <g id="Group-2" transform="translate(14.829249, 19.938560) scale(-1, 1) rotate(-320.000000) translate(-14.829249, -19.938560) translate(9.829249, 5.938560)">
                    <ellipse id="Oval-3" fill="#4F9C42" cx="4.98561984" cy="13.8885124" rx="4.98561984" ry="13.8885124"></ellipse>
                    <path d="M4.98561984,27.7770248 L4.98561984,13.8885124 L4.98561984,2.27373675e-13 C2.23213803,2.27373675e-13 1.70530257e-13,6.21809881 1.70530257e-13,13.8885124 C1.70530257e-13,21.558926 2.23213803,27.7770248 4.98561984,27.7770248 Z" id="Oval-3" fill="#82BD5D"></path>
                </g>
                <path d="M25.5,27.5 L25.5,100.5" id="Line" stroke="#4F9C42" stroke-width="5" stroke-linecap="round"></path>
            </g>
            <g id="Group-3" transform="translate(884.000000, 659.000000)">
                <path d="M25.5,25.2429466 C29.6421356,25.2429466 33,25.6126984 33,16.5 C33,7.38730163 29.6421356,0 25.5,0 C21.3578644,0 18,7.38730163 18,16.5 C18,25.6126984 21.3578644,25.2429466 25.5,25.2429466 Z" id="Oval-13" fill="#FAB233"></path>
                <g id="Group-2" transform="translate(36.870860, 38.349942) rotate(-320.000000) translate(-36.870860, -38.349942) translate(30.370860, 19.849942)">
                    <ellipse id="Oval-3" fill="#4F9C42" cx="6.48922652" cy="18.077131" rx="6.48922652" ry="18.077131"></ellipse>
                    <path d="M6.48922652,36.154262 L6.48922652,18.077131 L6.48922652,0 C2.90532567,0 0,8.09340723 0,18.077131 C0,28.0608548 2.90532567,36.154262 6.48922652,36.154262 Z" id="Oval-3" fill="#82BD5D"></path>
                </g>
                <g id="Group-2" transform="translate(36.603443, 63.806371) rotate(-320.000000) translate(-36.603443, -63.806371) translate(30.603443, 47.806371)">
                    <ellipse id="Oval-3" fill="#4F9C42" cx="5.6661235" cy="15.7842012" rx="5.6661235" ry="15.7842012"></ellipse>
                    <path d="M5.6661235,31.5684024 L5.6661235,15.7842012 L5.6661235,0 C2.5368099,0 0,7.06682759 0,15.7842012 C0,24.5015748 2.5368099,31.5684024 5.6661235,31.5684024 Z" id="Oval-3" fill="#82BD5D"></path>
                </g>
                <g id="Group-2" transform="translate(34.199865, 21.752808) rotate(-320.000000) translate(-34.199865, -21.752808) translate(29.199865, 8.252808)">
                    <ellipse id="Oval-3" fill="#4F9C42" cx="4.69595093" cy="13.0815776" rx="4.69595093" ry="13.0815776"></ellipse>
                    <path d="M4.69595093,26.1631552 L4.69595093,13.0815776 L4.69595093,0 C2.10244885,0 1.13686838e-13,5.85682179 1.13686838e-13,13.0815776 C1.13686838e-13,20.3063334 2.10244885,26.1631552 4.69595093,26.1631552 Z" id="Oval-3" fill="#82BD5D"></path>
                </g>
                <g id="Group-2" transform="translate(14.880868, 70.113437) scale(-1, 1) rotate(-320.000000) translate(-14.880868, -70.113437) translate(8.880868, 54.113437)">
                    <ellipse id="Oval-3" fill="#4F9C42" cx="5.6661235" cy="15.7842012" rx="5.6661235" ry="15.7842012"></ellipse>
                    <path d="M5.6661235,31.5684024 L5.6661235,15.7842012 L5.6661235,0 C2.5368099,0 0,7.06682759 0,15.7842012 C0,24.5015748 2.5368099,31.5684024 5.6661235,31.5684024 Z" id="Oval-3" fill="#82BD5D"></path>
                </g>
                <g id="Group-2" transform="translate(14.855059, 48.025999) scale(-1, 1) rotate(-320.000000) translate(-14.855059, -48.025999) translate(9.355059, 33.025999)">
                    <ellipse id="Oval-3" fill="#4F9C42" cx="5.28333873" cy="14.7178722" rx="5.28333873" ry="14.7178722"></ellipse>
                    <path d="M5.28333873,29.4357443 L5.28333873,14.7178722 L5.28333873,0 C2.36543132,0 5.68434189e-14,6.58941582 5.68434189e-14,14.7178722 C5.68434189e-14,22.8463285 2.36543132,29.4357443 5.28333873,29.4357443 Z" id="Oval-3" fill="#82BD5D"></path>
                </g>
                <g id="Group-2" transform="translate(14.829249, 19.938560) scale(-1, 1) rotate(-320.000000) translate(-14.829249, -19.938560) translate(9.829249, 5.938560)">
                    <ellipse id="Oval-3" fill="#4F9C42" cx="4.98561984" cy="13.8885124" rx="4.98561984" ry="13.8885124"></ellipse>
                    <path d="M4.98561984,27.7770248 L4.98561984,13.8885124 L4.98561984,2.27373675e-13 C2.23213803,2.27373675e-13 1.70530257e-13,6.21809881 1.70530257e-13,13.8885124 C1.70530257e-13,21.558926 2.23213803,27.7770248 4.98561984,27.7770248 Z" id="Oval-3" fill="#82BD5D"></path>
                </g>
                <path d="M25.5,27.5 L25.5,100.5" id="Line" stroke="#4F9C42" stroke-width="5" stroke-linecap="round"></path>
            </g>
            <g id="Group-3" transform="translate(938.000000, 646.000000)">
                <path d="M25.5,25.2429466 C29.6421356,25.2429466 33,25.6126984 33,16.5 C33,7.38730163 29.6421356,0 25.5,0 C21.3578644,0 18,7.38730163 18,16.5 C18,25.6126984 21.3578644,25.2429466 25.5,25.2429466 Z" id="Oval-13" fill="#FAB233"></path>
                <g id="Group-2" transform="translate(36.870860, 38.349942) rotate(-320.000000) translate(-36.870860, -38.349942) translate(30.370860, 19.849942)">
                    <ellipse id="Oval-3" fill="#4F9C42" cx="6.48922652" cy="18.077131" rx="6.48922652" ry="18.077131"></ellipse>
                    <path d="M6.48922652,36.154262 L6.48922652,18.077131 L6.48922652,0 C2.90532567,0 0,8.09340723 0,18.077131 C0,28.0608548 2.90532567,36.154262 6.48922652,36.154262 Z" id="Oval-3" fill="#82BD5D"></path>
                </g>
                <g id="Group-2" transform="translate(36.603443, 63.806371) rotate(-320.000000) translate(-36.603443, -63.806371) translate(30.603443, 47.806371)">
                    <ellipse id="Oval-3" fill="#4F9C42" cx="5.6661235" cy="15.7842012" rx="5.6661235" ry="15.7842012"></ellipse>
                    <path d="M5.6661235,31.5684024 L5.6661235,15.7842012 L5.6661235,0 C2.5368099,0 0,7.06682759 0,15.7842012 C0,24.5015748 2.5368099,31.5684024 5.6661235,31.5684024 Z" id="Oval-3" fill="#82BD5D"></path>
                </g>
                <g id="Group-2" transform="translate(34.199865, 21.752808) rotate(-320.000000) translate(-34.199865, -21.752808) translate(29.199865, 8.252808)">
                    <ellipse id="Oval-3" fill="#4F9C42" cx="4.69595093" cy="13.0815776" rx="4.69595093" ry="13.0815776"></ellipse>
                    <path d="M4.69595093,26.1631552 L4.69595093,13.0815776 L4.69595093,0 C2.10244885,0 1.13686838e-13,5.85682179 1.13686838e-13,13.0815776 C1.13686838e-13,20.3063334 2.10244885,26.1631552 4.69595093,26.1631552 Z" id="Oval-3" fill="#82BD5D"></path>
                </g>
                <g id="Group-2" transform="translate(14.880868, 70.113437) scale(-1, 1) rotate(-320.000000) translate(-14.880868, -70.113437) translate(8.880868, 54.113437)">
                    <ellipse id="Oval-3" fill="#4F9C42" cx="5.6661235" cy="15.7842012" rx="5.6661235" ry="15.7842012"></ellipse>
                    <path d="M5.6661235,31.5684024 L5.6661235,15.7842012 L5.6661235,0 C2.5368099,0 0,7.06682759 0,15.7842012 C0,24.5015748 2.5368099,31.5684024 5.6661235,31.5684024 Z" id="Oval-3" fill="#82BD5D"></path>
                </g>
                <g id="Group-2" transform="translate(14.855059, 48.025999) scale(-1, 1) rotate(-320.000000) translate(-14.855059, -48.025999) translate(9.355059, 33.025999)">
                    <ellipse id="Oval-3" fill="#4F9C42" cx="5.28333873" cy="14.7178722" rx="5.28333873" ry="14.7178722"></ellipse>
                    <path d="M5.28333873,29.4357443 L5.28333873,14.7178722 L5.28333873,0 C2.36543132,0 5.68434189e-14,6.58941582 5.68434189e-14,14.7178722 C5.68434189e-14,22.8463285 2.36543132,29.4357443 5.28333873,29.4357443 Z" id="Oval-3" fill="#82BD5D"></path>
                </g>
                <g id="Group-2" transform="translate(14.829249, 19.938560) scale(-1, 1) rotate(-320.000000) translate(-14.829249, -19.938560) translate(9.829249, 5.938560)">
                    <ellipse id="Oval-3" fill="#4F9C42" cx="4.98561984" cy="13.8885124" rx="4.98561984" ry="13.8885124"></ellipse>
                    <path d="M4.98561984,27.7770248 L4.98561984,13.8885124 L4.98561984,2.27373675e-13 C2.23213803,2.27373675e-13 1.70530257e-13,6.21809881 1.70530257e-13,13.8885124 C1.70530257e-13,21.558926 2.23213803,27.7770248 4.98561984,27.7770248 Z" id="Oval-3" fill="#82BD5D"></path>
                </g>
                <path d="M25.5,27.5 L25.5,100.5" id="Line" stroke="#4F9C42" stroke-width="5" stroke-linecap="round"></path>
            </g>
            <g id="Group-3" transform="translate(828.000000, 631.000000)">
                <path d="M25.5,25.2429466 C29.6421356,25.2429466 33,25.6126984 33,16.5 C33,7.38730163 29.6421356,0 25.5,0 C21.3578644,0 18,7.38730163 18,16.5 C18,25.6126984 21.3578644,25.2429466 25.5,25.2429466 Z" id="Oval-13" fill="#FAB233"></path>
                <g id="Group-2" transform="translate(36.870860, 38.349942) rotate(-320.000000) translate(-36.870860, -38.349942) translate(30.370860, 19.849942)">
                    <ellipse id="Oval-3" fill="#4F9C42" cx="6.48922652" cy="18.077131" rx="6.48922652" ry="18.077131"></ellipse>
                    <path d="M6.48922652,36.154262 L6.48922652,18.077131 L6.48922652,0 C2.90532567,0 0,8.09340723 0,18.077131 C0,28.0608548 2.90532567,36.154262 6.48922652,36.154262 Z" id="Oval-3" fill="#82BD5D"></path>
                </g>
                <g id="Group-2" transform="translate(36.603443, 63.806371) rotate(-320.000000) translate(-36.603443, -63.806371) translate(30.603443, 47.806371)">
                    <ellipse id="Oval-3" fill="#4F9C42" cx="5.6661235" cy="15.7842012" rx="5.6661235" ry="15.7842012"></ellipse>
                    <path d="M5.6661235,31.5684024 L5.6661235,15.7842012 L5.6661235,0 C2.5368099,0 0,7.06682759 0,15.7842012 C0,24.5015748 2.5368099,31.5684024 5.6661235,31.5684024 Z" id="Oval-3" fill="#82BD5D"></path>
                </g>
                <g id="Group-2" transform="translate(34.199865, 21.752808) rotate(-320.000000) translate(-34.199865, -21.752808) translate(29.199865, 8.252808)">
                    <ellipse id="Oval-3" fill="#4F9C42" cx="4.69595093" cy="13.0815776" rx="4.69595093" ry="13.0815776"></ellipse>
                    <path d="M4.69595093,26.1631552 L4.69595093,13.0815776 L4.69595093,0 C2.10244885,0 1.13686838e-13,5.85682179 1.13686838e-13,13.0815776 C1.13686838e-13,20.3063334 2.10244885,26.1631552 4.69595093,26.1631552 Z" id="Oval-3" fill="#82BD5D"></path>
                </g>
                <g id="Group-2" transform="translate(14.880868, 70.113437) scale(-1, 1) rotate(-320.000000) translate(-14.880868, -70.113437) translate(8.880868, 54.113437)">
                    <ellipse id="Oval-3" fill="#4F9C42" cx="5.6661235" cy="15.7842012" rx="5.6661235" ry="15.7842012"></ellipse>
                    <path d="M5.6661235,31.5684024 L5.6661235,15.7842012 L5.6661235,0 C2.5368099,0 0,7.06682759 0,15.7842012 C0,24.5015748 2.5368099,31.5684024 5.6661235,31.5684024 Z" id="Oval-3" fill="#82BD5D"></path>
                </g>
                <g id="Group-2" transform="translate(14.855059, 48.025999) scale(-1, 1) rotate(-320.000000) translate(-14.855059, -48.025999) translate(9.355059, 33.025999)">
                    <ellipse id="Oval-3" fill="#4F9C42" cx="5.28333873" cy="14.7178722" rx="5.28333873" ry="14.7178722"></ellipse>
                    <path d="M5.28333873,29.4357443 L5.28333873,14.7178722 L5.28333873,0 C2.36543132,0 5.68434189e-14,6.58941582 5.68434189e-14,14.7178722 C5.68434189e-14,22.8463285 2.36543132,29.4357443 5.28333873,29.4357443 Z" id="Oval-3" fill="#82BD5D"></path>
                </g>
                <g id="Group-2" transform="translate(14.829249, 19.938560) scale(-1, 1) rotate(-320.000000) translate(-14.829249, -19.938560) translate(9.829249, 5.938560)">
                    <ellipse id="Oval-3" fill="#4F9C42" cx="4.98561984" cy="13.8885124" rx="4.98561984" ry="13.8885124"></ellipse>
                    <path d="M4.98561984,27.7770248 L4.98561984,13.8885124 L4.98561984,2.27373675e-13 C2.23213803,2.27373675e-13 1.70530257e-13,6.21809881 1.70530257e-13,13.8885124 C1.70530257e-13,21.558926 2.23213803,27.7770248 4.98561984,27.7770248 Z" id="Oval-3" fill="#82BD5D"></path>
                </g>
                <path d="M25.5,27.5 L25.5,100.5" id="Line" stroke="#4F9C42" stroke-width="5" stroke-linecap="round"></path>
            </g>
            <g id="Group-3" transform="translate(720.000000, 631.000000)">
                <path d="M25.5,25.2429466 C29.6421356,25.2429466 33,25.6126984 33,16.5 C33,7.38730163 29.6421356,0 25.5,0 C21.3578644,0 18,7.38730163 18,16.5 C18,25.6126984 21.3578644,25.2429466 25.5,25.2429466 Z" id="Oval-13" fill="#FAB233"></path>
                <g id="Group-2" transform="translate(36.870860, 38.349942) rotate(-320.000000) translate(-36.870860, -38.349942) translate(30.370860, 19.849942)">
                    <ellipse id="Oval-3" fill="#4F9C42" cx="6.48922652" cy="18.077131" rx="6.48922652" ry="18.077131"></ellipse>
                    <path d="M6.48922652,36.154262 L6.48922652,18.077131 L6.48922652,0 C2.90532567,0 0,8.09340723 0,18.077131 C0,28.0608548 2.90532567,36.154262 6.48922652,36.154262 Z" id="Oval-3" fill="#82BD5D"></path>
                </g>
                <g id="Group-2" transform="translate(36.603443, 63.806371) rotate(-320.000000) translate(-36.603443, -63.806371) translate(30.603443, 47.806371)">
                    <ellipse id="Oval-3" fill="#4F9C42" cx="5.6661235" cy="15.7842012" rx="5.6661235" ry="15.7842012"></ellipse>
                    <path d="M5.6661235,31.5684024 L5.6661235,15.7842012 L5.6661235,0 C2.5368099,0 0,7.06682759 0,15.7842012 C0,24.5015748 2.5368099,31.5684024 5.6661235,31.5684024 Z" id="Oval-3" fill="#82BD5D"></path>
                </g>
                <g id="Group-2" transform="translate(34.199865, 21.752808) rotate(-320.000000) translate(-34.199865, -21.752808) translate(29.199865, 8.252808)">
                    <ellipse id="Oval-3" fill="#4F9C42" cx="4.69595093" cy="13.0815776" rx="4.69595093" ry="13.0815776"></ellipse>
                    <path d="M4.69595093,26.1631552 L4.69595093,13.0815776 L4.69595093,0 C2.10244885,0 1.13686838e-13,5.85682179 1.13686838e-13,13.0815776 C1.13686838e-13,20.3063334 2.10244885,26.1631552 4.69595093,26.1631552 Z" id="Oval-3" fill="#82BD5D"></path>
                </g>
                <g id="Group-2" transform="translate(14.880868, 70.113437) scale(-1, 1) rotate(-320.000000) translate(-14.880868, -70.113437) translate(8.880868, 54.113437)">
                    <ellipse id="Oval-3" fill="#4F9C42" cx="5.6661235" cy="15.7842012" rx="5.6661235" ry="15.7842012"></ellipse>
                    <path d="M5.6661235,31.5684024 L5.6661235,15.7842012 L5.6661235,0 C2.5368099,0 0,7.06682759 0,15.7842012 C0,24.5015748 2.5368099,31.5684024 5.6661235,31.5684024 Z" id="Oval-3" fill="#82BD5D"></path>
                </g>
                <g id="Group-2" transform="translate(14.855059, 48.025999) scale(-1, 1) rotate(-320.000000) translate(-14.855059, -48.025999) translate(9.355059, 33.025999)">
                    <ellipse id="Oval-3" fill="#4F9C42" cx="5.28333873" cy="14.7178722" rx="5.28333873" ry="14.7178722"></ellipse>
                    <path d="M5.28333873,29.4357443 L5.28333873,14.7178722 L5.28333873,0 C2.36543132,0 5.68434189e-14,6.58941582 5.68434189e-14,14.7178722 C5.68434189e-14,22.8463285 2.36543132,29.4357443 5.28333873,29.4357443 Z" id="Oval-3" fill="#82BD5D"></path>
                </g>
                <g id="Group-2" transform="translate(14.829249, 19.938560) scale(-1, 1) rotate(-320.000000) translate(-14.829249, -19.938560) translate(9.829249, 5.938560)">
                    <ellipse id="Oval-3" fill="#4F9C42" cx="4.98561984" cy="13.8885124" rx="4.98561984" ry="13.8885124"></ellipse>
                    <path d="M4.98561984,27.7770248 L4.98561984,13.8885124 L4.98561984,2.27373675e-13 C2.23213803,2.27373675e-13 1.70530257e-13,6.21809881 1.70530257e-13,13.8885124 C1.70530257e-13,21.558926 2.23213803,27.7770248 4.98561984,27.7770248 Z" id="Oval-3" fill="#82BD5D"></path>
                </g>
                <path d="M25.5,27.5 L25.5,100.5" id="Line" stroke="#4F9C42" stroke-width="5" stroke-linecap="round"></path>
            </g>
            <g id="Group-3" transform="translate(558.000000, 659.000000)">
                <path d="M25.5,25.2429466 C29.6421356,25.2429466 33,25.6126984 33,16.5 C33,7.38730163 29.6421356,0 25.5,0 C21.3578644,0 18,7.38730163 18,16.5 C18,25.6126984 21.3578644,25.2429466 25.5,25.2429466 Z" id="Oval-13" fill="#FAB233"></path>
                <g id="Group-2" transform="translate(36.870860, 38.349942) rotate(-320.000000) translate(-36.870860, -38.349942) translate(30.370860, 19.849942)">
                    <ellipse id="Oval-3" fill="#4F9C42" cx="6.48922652" cy="18.077131" rx="6.48922652" ry="18.077131"></ellipse>
                    <path d="M6.48922652,36.154262 L6.48922652,18.077131 L6.48922652,0 C2.90532567,0 0,8.09340723 0,18.077131 C0,28.0608548 2.90532567,36.154262 6.48922652,36.154262 Z" id="Oval-3" fill="#82BD5D"></path>
                </g>
                <g id="Group-2" transform="translate(36.603443, 63.806371) rotate(-320.000000) translate(-36.603443, -63.806371) translate(30.603443, 47.806371)">
                    <ellipse id="Oval-3" fill="#4F9C42" cx="5.6661235" cy="15.7842012" rx="5.6661235" ry="15.7842012"></ellipse>
                    <path d="M5.6661235,31.5684024 L5.6661235,15.7842012 L5.6661235,0 C2.5368099,0 0,7.06682759 0,15.7842012 C0,24.5015748 2.5368099,31.5684024 5.6661235,31.5684024 Z" id="Oval-3" fill="#82BD5D"></path>
                </g>
                <g id="Group-2" transform="translate(34.199865, 21.752808) rotate(-320.000000) translate(-34.199865, -21.752808) translate(29.199865, 8.252808)">
                    <ellipse id="Oval-3" fill="#4F9C42" cx="4.69595093" cy="13.0815776" rx="4.69595093" ry="13.0815776"></ellipse>
                    <path d="M4.69595093,26.1631552 L4.69595093,13.0815776 L4.69595093,0 C2.10244885,0 1.13686838e-13,5.85682179 1.13686838e-13,13.0815776 C1.13686838e-13,20.3063334 2.10244885,26.1631552 4.69595093,26.1631552 Z" id="Oval-3" fill="#82BD5D"></path>
                </g>
                <g id="Group-2" transform="translate(14.880868, 70.113437) scale(-1, 1) rotate(-320.000000) translate(-14.880868, -70.113437) translate(8.880868, 54.113437)">
                    <ellipse id="Oval-3" fill="#4F9C42" cx="5.6661235" cy="15.7842012" rx="5.6661235" ry="15.7842012"></ellipse>
                    <path d="M5.6661235,31.5684024 L5.6661235,15.7842012 L5.6661235,0 C2.5368099,0 0,7.06682759 0,15.7842012 C0,24.5015748 2.5368099,31.5684024 5.6661235,31.5684024 Z" id="Oval-3" fill="#82BD5D"></path>
                </g>
                <g id="Group-2" transform="translate(14.855059, 48.025999) scale(-1, 1) rotate(-320.000000) translate(-14.855059, -48.025999) translate(9.355059, 33.025999)">
                    <ellipse id="Oval-3" fill="#4F9C42" cx="5.28333873" cy="14.7178722" rx="5.28333873" ry="14.7178722"></ellipse>
                    <path d="M5.28333873,29.4357443 L5.28333873,14.7178722 L5.28333873,0 C2.36543132,0 5.68434189e-14,6.58941582 5.68434189e-14,14.7178722 C5.68434189e-14,22.8463285 2.36543132,29.4357443 5.28333873,29.4357443 Z" id="Oval-3" fill="#82BD5D"></path>
                </g>
                <g id="Group-2" transform="translate(14.829249, 19.938560) scale(-1, 1) rotate(-320.000000) translate(-14.829249, -19.938560) translate(9.829249, 5.938560)">
                    <ellipse id="Oval-3" fill="#4F9C42" cx="4.98561984" cy="13.8885124" rx="4.98561984" ry="13.8885124"></ellipse>
                    <path d="M4.98561984,27.7770248 L4.98561984,13.8885124 L4.98561984,2.27373675e-13 C2.23213803,2.27373675e-13 1.70530257e-13,6.21809881 1.70530257e-13,13.8885124 C1.70530257e-13,21.558926 2.23213803,27.7770248 4.98561984,27.7770248 Z" id="Oval-3" fill="#82BD5D"></path>
                </g>
                <path d="M25.5,27.5 L25.5,100.5" id="Line" stroke="#4F9C42" stroke-width="5" stroke-linecap="round"></path>
            </g>
            <g id="Group-3" transform="translate(612.000000, 631.000000)">
                <path d="M25.5,25.2429466 C29.6421356,25.2429466 33,25.6126984 33,16.5 C33,7.38730163 29.6421356,0 25.5,0 C21.3578644,0 18,7.38730163 18,16.5 C18,25.6126984 21.3578644,25.2429466 25.5,25.2429466 Z" id="Oval-13" fill="#FAB233"></path>
                <g id="Group-2" transform="translate(36.870860, 38.349942) rotate(-320.000000) translate(-36.870860, -38.349942) translate(30.370860, 19.849942)">
                    <ellipse id="Oval-3" fill="#4F9C42" cx="6.48922652" cy="18.077131" rx="6.48922652" ry="18.077131"></ellipse>
                    <path d="M6.48922652,36.154262 L6.48922652,18.077131 L6.48922652,0 C2.90532567,0 0,8.09340723 0,18.077131 C0,28.0608548 2.90532567,36.154262 6.48922652,36.154262 Z" id="Oval-3" fill="#82BD5D"></path>
                </g>
                <g id="Group-2" transform="translate(36.603443, 63.806371) rotate(-320.000000) translate(-36.603443, -63.806371) translate(30.603443, 47.806371)">
                    <ellipse id="Oval-3" fill="#4F9C42" cx="5.6661235" cy="15.7842012" rx="5.6661235" ry="15.7842012"></ellipse>
                    <path d="M5.6661235,31.5684024 L5.6661235,15.7842012 L5.6661235,0 C2.5368099,0 0,7.06682759 0,15.7842012 C0,24.5015748 2.5368099,31.5684024 5.6661235,31.5684024 Z" id="Oval-3" fill="#82BD5D"></path>
                </g>
                <g id="Group-2" transform="translate(34.199865, 21.752808) rotate(-320.000000) translate(-34.199865, -21.752808) translate(29.199865, 8.252808)">
                    <ellipse id="Oval-3" fill="#4F9C42" cx="4.69595093" cy="13.0815776" rx="4.69595093" ry="13.0815776"></ellipse>
                    <path d="M4.69595093,26.1631552 L4.69595093,13.0815776 L4.69595093,0 C2.10244885,0 1.13686838e-13,5.85682179 1.13686838e-13,13.0815776 C1.13686838e-13,20.3063334 2.10244885,26.1631552 4.69595093,26.1631552 Z" id="Oval-3" fill="#82BD5D"></path>
                </g>
                <g id="Group-2" transform="translate(14.880868, 70.113437) scale(-1, 1) rotate(-320.000000) translate(-14.880868, -70.113437) translate(8.880868, 54.113437)">
                    <ellipse id="Oval-3" fill="#4F9C42" cx="5.6661235" cy="15.7842012" rx="5.6661235" ry="15.7842012"></ellipse>
                    <path d="M5.6661235,31.5684024 L5.6661235,15.7842012 L5.6661235,0 C2.5368099,0 0,7.06682759 0,15.7842012 C0,24.5015748 2.5368099,31.5684024 5.6661235,31.5684024 Z" id="Oval-3" fill="#82BD5D"></path>
                </g>
                <g id="Group-2" transform="translate(14.855059, 48.025999) scale(-1, 1) rotate(-320.000000) translate(-14.855059, -48.025999) translate(9.355059, 33.025999)">
                    <ellipse id="Oval-3" fill="#4F9C42" cx="5.28333873" cy="14.7178722" rx="5.28333873" ry="14.7178722"></ellipse>
                    <path d="M5.28333873,29.4357443 L5.28333873,14.7178722 L5.28333873,0 C2.36543132,0 5.68434189e-14,6.58941582 5.68434189e-14,14.7178722 C5.68434189e-14,22.8463285 2.36543132,29.4357443 5.28333873,29.4357443 Z" id="Oval-3" fill="#82BD5D"></path>
                </g>
                <g id="Group-2" transform="translate(14.829249, 19.938560) scale(-1, 1) rotate(-320.000000) translate(-14.829249, -19.938560) translate(9.829249, 5.938560)">
                    <ellipse id="Oval-3" fill="#4F9C42" cx="4.98561984" cy="13.8885124" rx="4.98561984" ry="13.8885124"></ellipse>
                    <path d="M4.98561984,27.7770248 L4.98561984,13.8885124 L4.98561984,2.27373675e-13 C2.23213803,2.27373675e-13 1.70530257e-13,6.21809881 1.70530257e-13,13.8885124 C1.70530257e-13,21.558926 2.23213803,27.7770248 4.98561984,27.7770248 Z" id="Oval-3" fill="#82BD5D"></path>
                </g>
                <path d="M25.5,27.5 L25.5,100.5" id="Line" stroke="#4F9C42" stroke-width="5" stroke-linecap="round"></path>
            </g>
            <g id="Group-3" transform="translate(666.000000, 646.000000)">
                <path d="M25.5,25.2429466 C29.6421356,25.2429466 33,25.6126984 33,16.5 C33,7.38730163 29.6421356,0 25.5,0 C21.3578644,0 18,7.38730163 18,16.5 C18,25.6126984 21.3578644,25.2429466 25.5,25.2429466 Z" id="Oval-13" fill="#FAB233"></path>
                <g id="Group-2" transform="translate(36.870860, 38.349942) rotate(-320.000000) translate(-36.870860, -38.349942) translate(30.370860, 19.849942)">
                    <ellipse id="Oval-3" fill="#4F9C42" cx="6.48922652" cy="18.077131" rx="6.48922652" ry="18.077131"></ellipse>
                    <path d="M6.48922652,36.154262 L6.48922652,18.077131 L6.48922652,0 C2.90532567,0 0,8.09340723 0,18.077131 C0,28.0608548 2.90532567,36.154262 6.48922652,36.154262 Z" id="Oval-3" fill="#82BD5D"></path>
                </g>
                <g id="Group-2" transform="translate(36.603443, 63.806371) rotate(-320.000000) translate(-36.603443, -63.806371) translate(30.603443, 47.806371)">
                    <ellipse id="Oval-3" fill="#4F9C42" cx="5.6661235" cy="15.7842012" rx="5.6661235" ry="15.7842012"></ellipse>
                    <path d="M5.6661235,31.5684024 L5.6661235,15.7842012 L5.6661235,0 C2.5368099,0 0,7.06682759 0,15.7842012 C0,24.5015748 2.5368099,31.5684024 5.6661235,31.5684024 Z" id="Oval-3" fill="#82BD5D"></path>
                </g>
                <g id="Group-2" transform="translate(34.199865, 21.752808) rotate(-320.000000) translate(-34.199865, -21.752808) translate(29.199865, 8.252808)">
                    <ellipse id="Oval-3" fill="#4F9C42" cx="4.69595093" cy="13.0815776" rx="4.69595093" ry="13.0815776"></ellipse>
                    <path d="M4.69595093,26.1631552 L4.69595093,13.0815776 L4.69595093,0 C2.10244885,0 1.13686838e-13,5.85682179 1.13686838e-13,13.0815776 C1.13686838e-13,20.3063334 2.10244885,26.1631552 4.69595093,26.1631552 Z" id="Oval-3" fill="#82BD5D"></path>
                </g>
                <g id="Group-2" transform="translate(14.880868, 70.113437) scale(-1, 1) rotate(-320.000000) translate(-14.880868, -70.113437) translate(8.880868, 54.113437)">
                    <ellipse id="Oval-3" fill="#4F9C42" cx="5.6661235" cy="15.7842012" rx="5.6661235" ry="15.7842012"></ellipse>
                    <path d="M5.6661235,31.5684024 L5.6661235,15.7842012 L5.6661235,0 C2.5368099,0 0,7.06682759 0,15.7842012 C0,24.5015748 2.5368099,31.5684024 5.6661235,31.5684024 Z" id="Oval-3" fill="#82BD5D"></path>
                </g>
                <g id="Group-2" transform="translate(14.855059, 48.025999) scale(-1, 1) rotate(-320.000000) translate(-14.855059, -48.025999) translate(9.355059, 33.025999)">
                    <ellipse id="Oval-3" fill="#4F9C42" cx="5.28333873" cy="14.7178722" rx="5.28333873" ry="14.7178722"></ellipse>
                    <path d="M5.28333873,29.4357443 L5.28333873,14.7178722 L5.28333873,0 C2.36543132,0 5.68434189e-14,6.58941582 5.68434189e-14,14.7178722 C5.68434189e-14,22.8463285 2.36543132,29.4357443 5.28333873,29.4357443 Z" id="Oval-3" fill="#82BD5D"></path>
                </g>
                <g id="Group-2" transform="translate(14.829249, 19.938560) scale(-1, 1) rotate(-320.000000) translate(-14.829249, -19.938560) translate(9.829249, 5.938560)">
                    <ellipse id="Oval-3" fill="#4F9C42" cx="4.98561984" cy="13.8885124" rx="4.98561984" ry="13.8885124"></ellipse>
                    <path d="M4.98561984,27.7770248 L4.98561984,13.8885124 L4.98561984,2.27373675e-13 C2.23213803,2.27373675e-13 1.70530257e-13,6.21809881 1.70530257e-13,13.8885124 C1.70530257e-13,21.558926 2.23213803,27.7770248 4.98561984,27.7770248 Z" id="Oval-3" fill="#82BD5D"></path>
                </g>
                <path d="M25.5,27.5 L25.5,100.5" id="Line" stroke="#4F9C42" stroke-width="5" stroke-linecap="round"></path>
            </g>
            <g id="Group-3" transform="translate(1332.000000, 682.000000)">
                <path d="M25.5,25.2429466 C29.6421356,25.2429466 33,25.6126984 33,16.5 C33,7.38730163 29.6421356,0 25.5,0 C21.3578644,0 18,7.38730163 18,16.5 C18,25.6126984 21.3578644,25.2429466 25.5,25.2429466 Z" id="Oval-13" fill="#FAB233"></path>
                <g id="Group-2" transform="translate(36.870860, 38.349942) rotate(-320.000000) translate(-36.870860, -38.349942) translate(30.370860, 19.849942)">
                    <ellipse id="Oval-3" fill="#4F9C42" cx="6.48922652" cy="18.077131" rx="6.48922652" ry="18.077131"></ellipse>
                    <path d="M6.48922652,36.154262 L6.48922652,18.077131 L6.48922652,0 C2.90532567,0 0,8.09340723 0,18.077131 C0,28.0608548 2.90532567,36.154262 6.48922652,36.154262 Z" id="Oval-3" fill="#82BD5D"></path>
                </g>
                <g id="Group-2" transform="translate(36.603443, 63.806371) rotate(-320.000000) translate(-36.603443, -63.806371) translate(30.603443, 47.806371)">
                    <ellipse id="Oval-3" fill="#4F9C42" cx="5.6661235" cy="15.7842012" rx="5.6661235" ry="15.7842012"></ellipse>
                    <path d="M5.6661235,31.5684024 L5.6661235,15.7842012 L5.6661235,0 C2.5368099,0 0,7.06682759 0,15.7842012 C0,24.5015748 2.5368099,31.5684024 5.6661235,31.5684024 Z" id="Oval-3" fill="#82BD5D"></path>
                </g>
                <g id="Group-2" transform="translate(34.199865, 21.752808) rotate(-320.000000) translate(-34.199865, -21.752808) translate(29.199865, 8.252808)">
                    <ellipse id="Oval-3" fill="#4F9C42" cx="4.69595093" cy="13.0815776" rx="4.69595093" ry="13.0815776"></ellipse>
                    <path d="M4.69595093,26.1631552 L4.69595093,13.0815776 L4.69595093,0 C2.10244885,0 1.13686838e-13,5.85682179 1.13686838e-13,13.0815776 C1.13686838e-13,20.3063334 2.10244885,26.1631552 4.69595093,26.1631552 Z" id="Oval-3" fill="#82BD5D"></path>
                </g>
                <g id="Group-2" transform="translate(14.880868, 70.113437) scale(-1, 1) rotate(-320.000000) translate(-14.880868, -70.113437) translate(8.880868, 54.113437)">
                    <ellipse id="Oval-3" fill="#4F9C42" cx="5.6661235" cy="15.7842012" rx="5.6661235" ry="15.7842012"></ellipse>
                    <path d="M5.6661235,31.5684024 L5.6661235,15.7842012 L5.6661235,0 C2.5368099,0 0,7.06682759 0,15.7842012 C0,24.5015748 2.5368099,31.5684024 5.6661235,31.5684024 Z" id="Oval-3" fill="#82BD5D"></path>
                </g>
                <g id="Group-2" transform="translate(14.855059, 48.025999) scale(-1, 1) rotate(-320.000000) translate(-14.855059, -48.025999) translate(9.355059, 33.025999)">
                    <ellipse id="Oval-3" fill="#4F9C42" cx="5.28333873" cy="14.7178722" rx="5.28333873" ry="14.7178722"></ellipse>
                    <path d="M5.28333873,29.4357443 L5.28333873,14.7178722 L5.28333873,0 C2.36543132,0 5.68434189e-14,6.58941582 5.68434189e-14,14.7178722 C5.68434189e-14,22.8463285 2.36543132,29.4357443 5.28333873,29.4357443 Z" id="Oval-3" fill="#82BD5D"></path>
                </g>
                <g id="Group-2" transform="translate(14.829249, 19.938560) scale(-1, 1) rotate(-320.000000) translate(-14.829249, -19.938560) translate(9.829249, 5.938560)">
                    <ellipse id="Oval-3" fill="#4F9C42" cx="4.98561984" cy="13.8885124" rx="4.98561984" ry="13.8885124"></ellipse>
                    <path d="M4.98561984,27.7770248 L4.98561984,13.8885124 L4.98561984,2.27373675e-13 C2.23213803,2.27373675e-13 1.70530257e-13,6.21809881 1.70530257e-13,13.8885124 C1.70530257e-13,21.558926 2.23213803,27.7770248 4.98561984,27.7770248 Z" id="Oval-3" fill="#82BD5D"></path>
                </g>
                <path d="M25.5,27.5 L25.5,100.5" id="Line" stroke="#4F9C42" stroke-width="5" stroke-linecap="round"></path>
            </g>
            <g id="Group-3" transform="translate(1386.000000, 640.000000)">
                <path d="M25.5,25.2429466 C29.6421356,25.2429466 33,25.6126984 33,16.5 C33,7.38730163 29.6421356,0 25.5,0 C21.3578644,0 18,7.38730163 18,16.5 C18,25.6126984 21.3578644,25.2429466 25.5,25.2429466 Z" id="Oval-13" fill="#FAB233"></path>
                <g id="Group-2" transform="translate(36.870860, 38.349942) rotate(-320.000000) translate(-36.870860, -38.349942) translate(30.370860, 19.849942)">
                    <ellipse id="Oval-3" fill="#4F9C42" cx="6.48922652" cy="18.077131" rx="6.48922652" ry="18.077131"></ellipse>
                    <path d="M6.48922652,36.154262 L6.48922652,18.077131 L6.48922652,0 C2.90532567,0 0,8.09340723 0,18.077131 C0,28.0608548 2.90532567,36.154262 6.48922652,36.154262 Z" id="Oval-3" fill="#82BD5D"></path>
                </g>
                <g id="Group-2" transform="translate(36.603443, 63.806371) rotate(-320.000000) translate(-36.603443, -63.806371) translate(30.603443, 47.806371)">
                    <ellipse id="Oval-3" fill="#4F9C42" cx="5.6661235" cy="15.7842012" rx="5.6661235" ry="15.7842012"></ellipse>
                    <path d="M5.6661235,31.5684024 L5.6661235,15.7842012 L5.6661235,0 C2.5368099,0 0,7.06682759 0,15.7842012 C0,24.5015748 2.5368099,31.5684024 5.6661235,31.5684024 Z" id="Oval-3" fill="#82BD5D"></path>
                </g>
                <g id="Group-2" transform="translate(34.199865, 21.752808) rotate(-320.000000) translate(-34.199865, -21.752808) translate(29.199865, 8.252808)">
                    <ellipse id="Oval-3" fill="#4F9C42" cx="4.69595093" cy="13.0815776" rx="4.69595093" ry="13.0815776"></ellipse>
                    <path d="M4.69595093,26.1631552 L4.69595093,13.0815776 L4.69595093,0 C2.10244885,0 1.13686838e-13,5.85682179 1.13686838e-13,13.0815776 C1.13686838e-13,20.3063334 2.10244885,26.1631552 4.69595093,26.1631552 Z" id="Oval-3" fill="#82BD5D"></path>
                </g>
                <g id="Group-2" transform="translate(14.880868, 70.113437) scale(-1, 1) rotate(-320.000000) translate(-14.880868, -70.113437) translate(8.880868, 54.113437)">
                    <ellipse id="Oval-3" fill="#4F9C42" cx="5.6661235" cy="15.7842012" rx="5.6661235" ry="15.7842012"></ellipse>
                    <path d="M5.6661235,31.5684024 L5.6661235,15.7842012 L5.6661235,0 C2.5368099,0 0,7.06682759 0,15.7842012 C0,24.5015748 2.5368099,31.5684024 5.6661235,31.5684024 Z" id="Oval-3" fill="#82BD5D"></path>
                </g>
                <g id="Group-2" transform="translate(14.855059, 48.025999) scale(-1, 1) rotate(-320.000000) translate(-14.855059, -48.025999) translate(9.355059, 33.025999)">
                    <ellipse id="Oval-3" fill="#4F9C42" cx="5.28333873" cy="14.7178722" rx="5.28333873" ry="14.7178722"></ellipse>
                    <path d="M5.28333873,29.4357443 L5.28333873,14.7178722 L5.28333873,0 C2.36543132,0 5.68434189e-14,6.58941582 5.68434189e-14,14.7178722 C5.68434189e-14,22.8463285 2.36543132,29.4357443 5.28333873,29.4357443 Z" id="Oval-3" fill="#82BD5D"></path>
                </g>
                <g id="Group-2" transform="translate(14.829249, 19.938560) scale(-1, 1) rotate(-320.000000) translate(-14.829249, -19.938560) translate(9.829249, 5.938560)">
                    <ellipse id="Oval-3" fill="#4F9C42" cx="4.98561984" cy="13.8885124" rx="4.98561984" ry="13.8885124"></ellipse>
                    <path d="M4.98561984,27.7770248 L4.98561984,13.8885124 L4.98561984,2.27373675e-13 C2.23213803,2.27373675e-13 1.70530257e-13,6.21809881 1.70530257e-13,13.8885124 C1.70530257e-13,21.558926 2.23213803,27.7770248 4.98561984,27.7770248 Z" id="Oval-3" fill="#82BD5D"></path>
                </g>
                <path d="M25.5,27.5 L25.5,100.5" id="Line" stroke="#4F9C42" stroke-width="5" stroke-linecap="round"></path>
            </g>
            <g id="Group-3" transform="translate(1278.000000, 655.000000)">
                <path d="M25.5,25.2429466 C29.6421356,25.2429466 33,25.6126984 33,16.5 C33,7.38730163 29.6421356,0 25.5,0 C21.3578644,0 18,7.38730163 18,16.5 C18,25.6126984 21.3578644,25.2429466 25.5,25.2429466 Z" id="Oval-13" fill="#FAB233"></path>
                <g id="Group-2" transform="translate(36.870860, 38.349942) rotate(-320.000000) translate(-36.870860, -38.349942) translate(30.370860, 19.849942)">
                    <ellipse id="Oval-3" fill="#4F9C42" cx="6.48922652" cy="18.077131" rx="6.48922652" ry="18.077131"></ellipse>
                    <path d="M6.48922652,36.154262 L6.48922652,18.077131 L6.48922652,0 C2.90532567,0 0,8.09340723 0,18.077131 C0,28.0608548 2.90532567,36.154262 6.48922652,36.154262 Z" id="Oval-3" fill="#82BD5D"></path>
                </g>
                <g id="Group-2" transform="translate(36.603443, 63.806371) rotate(-320.000000) translate(-36.603443, -63.806371) translate(30.603443, 47.806371)">
                    <ellipse id="Oval-3" fill="#4F9C42" cx="5.6661235" cy="15.7842012" rx="5.6661235" ry="15.7842012"></ellipse>
                    <path d="M5.6661235,31.5684024 L5.6661235,15.7842012 L5.6661235,0 C2.5368099,0 0,7.06682759 0,15.7842012 C0,24.5015748 2.5368099,31.5684024 5.6661235,31.5684024 Z" id="Oval-3" fill="#82BD5D"></path>
                </g>
                <g id="Group-2" transform="translate(34.199865, 21.752808) rotate(-320.000000) translate(-34.199865, -21.752808) translate(29.199865, 8.252808)">
                    <ellipse id="Oval-3" fill="#4F9C42" cx="4.69595093" cy="13.0815776" rx="4.69595093" ry="13.0815776"></ellipse>
                    <path d="M4.69595093,26.1631552 L4.69595093,13.0815776 L4.69595093,0 C2.10244885,0 1.13686838e-13,5.85682179 1.13686838e-13,13.0815776 C1.13686838e-13,20.3063334 2.10244885,26.1631552 4.69595093,26.1631552 Z" id="Oval-3" fill="#82BD5D"></path>
                </g>
                <g id="Group-2" transform="translate(14.880868, 70.113437) scale(-1, 1) rotate(-320.000000) translate(-14.880868, -70.113437) translate(8.880868, 54.113437)">
                    <ellipse id="Oval-3" fill="#4F9C42" cx="5.6661235" cy="15.7842012" rx="5.6661235" ry="15.7842012"></ellipse>
                    <path d="M5.6661235,31.5684024 L5.6661235,15.7842012 L5.6661235,0 C2.5368099,0 0,7.06682759 0,15.7842012 C0,24.5015748 2.5368099,31.5684024 5.6661235,31.5684024 Z" id="Oval-3" fill="#82BD5D"></path>
                </g>
                <g id="Group-2" transform="translate(14.855059, 48.025999) scale(-1, 1) rotate(-320.000000) translate(-14.855059, -48.025999) translate(9.355059, 33.025999)">
                    <ellipse id="Oval-3" fill="#4F9C42" cx="5.28333873" cy="14.7178722" rx="5.28333873" ry="14.7178722"></ellipse>
                    <path d="M5.28333873,29.4357443 L5.28333873,14.7178722 L5.28333873,0 C2.36543132,0 5.68434189e-14,6.58941582 5.68434189e-14,14.7178722 C5.68434189e-14,22.8463285 2.36543132,29.4357443 5.28333873,29.4357443 Z" id="Oval-3" fill="#82BD5D"></path>
                </g>
                <g id="Group-2" transform="translate(14.829249, 19.938560) scale(-1, 1) rotate(-320.000000) translate(-14.829249, -19.938560) translate(9.829249, 5.938560)">
                    <ellipse id="Oval-3" fill="#4F9C42" cx="4.98561984" cy="13.8885124" rx="4.98561984" ry="13.8885124"></ellipse>
                    <path d="M4.98561984,27.7770248 L4.98561984,13.8885124 L4.98561984,2.27373675e-13 C2.23213803,2.27373675e-13 1.70530257e-13,6.21809881 1.70530257e-13,13.8885124 C1.70530257e-13,21.558926 2.23213803,27.7770248 4.98561984,27.7770248 Z" id="Oval-3" fill="#82BD5D"></path>
                </g>
                <path d="M25.5,27.5 L25.5,100.5" id="Line" stroke="#4F9C42" stroke-width="5" stroke-linecap="round"></path>
            </g>
            <g id="Group-3" transform="translate(1170.000000, 668.000000)">
                <path d="M25.5,25.2429466 C29.6421356,25.2429466 33,25.6126984 33,16.5 C33,7.38730163 29.6421356,0 25.5,0 C21.3578644,0 18,7.38730163 18,16.5 C18,25.6126984 21.3578644,25.2429466 25.5,25.2429466 Z" id="Oval-13" fill="#FAB233"></path>
                <g id="Group-2" transform="translate(36.870860, 38.349942) rotate(-320.000000) translate(-36.870860, -38.349942) translate(30.370860, 19.849942)">
                    <ellipse id="Oval-3" fill="#4F9C42" cx="6.48922652" cy="18.077131" rx="6.48922652" ry="18.077131"></ellipse>
                    <path d="M6.48922652,36.154262 L6.48922652,18.077131 L6.48922652,0 C2.90532567,0 0,8.09340723 0,18.077131 C0,28.0608548 2.90532567,36.154262 6.48922652,36.154262 Z" id="Oval-3" fill="#82BD5D"></path>
                </g>
                <g id="Group-2" transform="translate(36.603443, 63.806371) rotate(-320.000000) translate(-36.603443, -63.806371) translate(30.603443, 47.806371)">
                    <ellipse id="Oval-3" fill="#4F9C42" cx="5.6661235" cy="15.7842012" rx="5.6661235" ry="15.7842012"></ellipse>
                    <path d="M5.6661235,31.5684024 L5.6661235,15.7842012 L5.6661235,0 C2.5368099,0 0,7.06682759 0,15.7842012 C0,24.5015748 2.5368099,31.5684024 5.6661235,31.5684024 Z" id="Oval-3" fill="#82BD5D"></path>
                </g>
                <g id="Group-2" transform="translate(34.199865, 21.752808) rotate(-320.000000) translate(-34.199865, -21.752808) translate(29.199865, 8.252808)">
                    <ellipse id="Oval-3" fill="#4F9C42" cx="4.69595093" cy="13.0815776" rx="4.69595093" ry="13.0815776"></ellipse>
                    <path d="M4.69595093,26.1631552 L4.69595093,13.0815776 L4.69595093,0 C2.10244885,0 1.13686838e-13,5.85682179 1.13686838e-13,13.0815776 C1.13686838e-13,20.3063334 2.10244885,26.1631552 4.69595093,26.1631552 Z" id="Oval-3" fill="#82BD5D"></path>
                </g>
                <g id="Group-2" transform="translate(14.880868, 70.113437) scale(-1, 1) rotate(-320.000000) translate(-14.880868, -70.113437) translate(8.880868, 54.113437)">
                    <ellipse id="Oval-3" fill="#4F9C42" cx="5.6661235" cy="15.7842012" rx="5.6661235" ry="15.7842012"></ellipse>
                    <path d="M5.6661235,31.5684024 L5.6661235,15.7842012 L5.6661235,0 C2.5368099,0 0,7.06682759 0,15.7842012 C0,24.5015748 2.5368099,31.5684024 5.6661235,31.5684024 Z" id="Oval-3" fill="#82BD5D"></path>
                </g>
                <g id="Group-2" transform="translate(14.855059, 48.025999) scale(-1, 1) rotate(-320.000000) translate(-14.855059, -48.025999) translate(9.355059, 33.025999)">
                    <ellipse id="Oval-3" fill="#4F9C42" cx="5.28333873" cy="14.7178722" rx="5.28333873" ry="14.7178722"></ellipse>
                    <path d="M5.28333873,29.4357443 L5.28333873,14.7178722 L5.28333873,0 C2.36543132,0 5.68434189e-14,6.58941582 5.68434189e-14,14.7178722 C5.68434189e-14,22.8463285 2.36543132,29.4357443 5.28333873,29.4357443 Z" id="Oval-3" fill="#82BD5D"></path>
                </g>
                <g id="Group-2" transform="translate(14.829249, 19.938560) scale(-1, 1) rotate(-320.000000) translate(-14.829249, -19.938560) translate(9.829249, 5.938560)">
                    <ellipse id="Oval-3" fill="#4F9C42" cx="4.98561984" cy="13.8885124" rx="4.98561984" ry="13.8885124"></ellipse>
                    <path d="M4.98561984,27.7770248 L4.98561984,13.8885124 L4.98561984,2.27373675e-13 C2.23213803,2.27373675e-13 1.70530257e-13,6.21809881 1.70530257e-13,13.8885124 C1.70530257e-13,21.558926 2.23213803,27.7770248 4.98561984,27.7770248 Z" id="Oval-3" fill="#82BD5D"></path>
                </g>
                <path d="M25.5,27.5 L25.5,100.5" id="Line" stroke="#4F9C42" stroke-width="5" stroke-linecap="round"></path>
            </g>
            <g id="Group-3" transform="translate(1224.000000, 682.000000)">
                <path d="M25.5,25.2429466 C29.6421356,25.2429466 33,25.6126984 33,16.5 C33,7.38730163 29.6421356,0 25.5,0 C21.3578644,0 18,7.38730163 18,16.5 C18,25.6126984 21.3578644,25.2429466 25.5,25.2429466 Z" id="Oval-13" fill="#FAB233"></path>
                <g id="Group-2" transform="translate(36.870860, 38.349942) rotate(-320.000000) translate(-36.870860, -38.349942) translate(30.370860, 19.849942)">
                    <ellipse id="Oval-3" fill="#4F9C42" cx="6.48922652" cy="18.077131" rx="6.48922652" ry="18.077131"></ellipse>
                    <path d="M6.48922652,36.154262 L6.48922652,18.077131 L6.48922652,0 C2.90532567,0 0,8.09340723 0,18.077131 C0,28.0608548 2.90532567,36.154262 6.48922652,36.154262 Z" id="Oval-3" fill="#82BD5D"></path>
                </g>
                <g id="Group-2" transform="translate(36.603443, 63.806371) rotate(-320.000000) translate(-36.603443, -63.806371) translate(30.603443, 47.806371)">
                    <ellipse id="Oval-3" fill="#4F9C42" cx="5.6661235" cy="15.7842012" rx="5.6661235" ry="15.7842012"></ellipse>
                    <path d="M5.6661235,31.5684024 L5.6661235,15.7842012 L5.6661235,0 C2.5368099,0 0,7.06682759 0,15.7842012 C0,24.5015748 2.5368099,31.5684024 5.6661235,31.5684024 Z" id="Oval-3" fill="#82BD5D"></path>
                </g>
                <g id="Group-2" transform="translate(34.199865, 21.752808) rotate(-320.000000) translate(-34.199865, -21.752808) translate(29.199865, 8.252808)">
                    <ellipse id="Oval-3" fill="#4F9C42" cx="4.69595093" cy="13.0815776" rx="4.69595093" ry="13.0815776"></ellipse>
                    <path d="M4.69595093,26.1631552 L4.69595093,13.0815776 L4.69595093,0 C2.10244885,0 1.13686838e-13,5.85682179 1.13686838e-13,13.0815776 C1.13686838e-13,20.3063334 2.10244885,26.1631552 4.69595093,26.1631552 Z" id="Oval-3" fill="#82BD5D"></path>
                </g>
                <g id="Group-2" transform="translate(14.880868, 70.113437) scale(-1, 1) rotate(-320.000000) translate(-14.880868, -70.113437) translate(8.880868, 54.113437)">
                    <ellipse id="Oval-3" fill="#4F9C42" cx="5.6661235" cy="15.7842012" rx="5.6661235" ry="15.7842012"></ellipse>
                    <path d="M5.6661235,31.5684024 L5.6661235,15.7842012 L5.6661235,0 C2.5368099,0 0,7.06682759 0,15.7842012 C0,24.5015748 2.5368099,31.5684024 5.6661235,31.5684024 Z" id="Oval-3" fill="#82BD5D"></path>
                </g>
                <g id="Group-2" transform="translate(14.855059, 48.025999) scale(-1, 1) rotate(-320.000000) translate(-14.855059, -48.025999) translate(9.355059, 33.025999)">
                    <ellipse id="Oval-3" fill="#4F9C42" cx="5.28333873" cy="14.7178722" rx="5.28333873" ry="14.7178722"></ellipse>
                    <path d="M5.28333873,29.4357443 L5.28333873,14.7178722 L5.28333873,0 C2.36543132,0 5.68434189e-14,6.58941582 5.68434189e-14,14.7178722 C5.68434189e-14,22.8463285 2.36543132,29.4357443 5.28333873,29.4357443 Z" id="Oval-3" fill="#82BD5D"></path>
                </g>
                <g id="Group-2" transform="translate(14.829249, 19.938560) scale(-1, 1) rotate(-320.000000) translate(-14.829249, -19.938560) translate(9.829249, 5.938560)">
                    <ellipse id="Oval-3" fill="#4F9C42" cx="4.98561984" cy="13.8885124" rx="4.98561984" ry="13.8885124"></ellipse>
                    <path d="M4.98561984,27.7770248 L4.98561984,13.8885124 L4.98561984,2.27373675e-13 C2.23213803,2.27373675e-13 1.70530257e-13,6.21809881 1.70530257e-13,13.8885124 C1.70530257e-13,21.558926 2.23213803,27.7770248 4.98561984,27.7770248 Z" id="Oval-3" fill="#82BD5D"></path>
                </g>
                <path d="M25.5,27.5 L25.5,100.5" id="Line" stroke="#4F9C42" stroke-width="5" stroke-linecap="round"></path>
            </g>
            <g id="Group-5" transform="translate(346.000000, 840.000000)">
                <path d="M12.5,34.5 L12.5,97.5" id="Line" stroke="#C57C43" stroke-width="5" stroke-linecap="round" stroke-linejoin="round"></path>
                <path d="M0,13.0000817 C0,5.82033481 5.81558287,0 13,0 L13,0 L13,0 C20.1797017,0 26,5.82810753 26,13.0000817 L26,52.9999183 C26,60.1796652 20.1844171,66 13,66 L13,66 L13,66 C5.82029825,66 0,60.1718925 0,52.9999183 L0,13.0000817 Z" id="Rectangle-10" fill="#F6E61D"></path>
                <path d="M13,0 L13,0 L13,0 C20.1797017,0 26,5.82810753 26,13.0000817 L26,52.9999183 C26,60.1796652 20.1844171,66 13,66 L13,66 L13,66" id="Rectangle-10" fill="#FFCB29"></path>
            </g>
            <g id="Group-5" transform="translate(423.000000, 840.000000)">
                <path d="M12.5,34.5 L12.5,97.5" id="Line" stroke="#C57C43" stroke-width="5" stroke-linecap="round" stroke-linejoin="round"></path>
                <path d="M0,13.0000817 C0,5.82033481 5.81558287,0 13,0 L13,0 L13,0 C20.1797017,0 26,5.82810753 26,13.0000817 L26,52.9999183 C26,60.1796652 20.1844171,66 13,66 L13,66 L13,66 C5.82029825,66 0,60.1718925 0,52.9999183 L0,13.0000817 Z" id="Rectangle-10" fill="#F6E61D"></path>
                <path d="M13,0 L13,0 L13,0 C20.1797017,0 26,5.82810753 26,13.0000817 L26,52.9999183 C26,60.1796652 20.1844171,66 13,66 L13,66 L13,66" id="Rectangle-10" fill="#FFCB29"></path>
            </g>
            <g id="Group-5" transform="translate(500.000000, 840.000000)">
                <path d="M12.5,34.5 L12.5,97.5" id="Line" stroke="#C57C43" stroke-width="5" stroke-linecap="round" stroke-linejoin="round"></path>
                <path d="M0,13.0000817 C0,5.82033481 5.81558287,0 13,0 L13,0 L13,0 C20.1797017,0 26,5.82810753 26,13.0000817 L26,52.9999183 C26,60.1796652 20.1844171,66 13,66 L13,66 L13,66 C5.82029825,66 0,60.1718925 0,52.9999183 L0,13.0000817 Z" id="Rectangle-10" fill="#F6E61D"></path>
                <path d="M13,0 L13,0 L13,0 C20.1797017,0 26,5.82810753 26,13.0000817 L26,52.9999183 C26,60.1796652 20.1844171,66 13,66 L13,66 L13,66" id="Rectangle-10" fill="#FFCB29"></path>
            </g>
            <g id="Group-5" transform="translate(385.000000, 812.000000)">
                <path d="M12.5,34.5 L12.5,97.5" id="Line" stroke="#C57C43" stroke-width="5" stroke-linecap="round" stroke-linejoin="round"></path>
                <path d="M0,13.0000817 C0,5.82033481 5.81558287,0 13,0 L13,0 L13,0 C20.1797017,0 26,5.82810753 26,13.0000817 L26,52.9999183 C26,60.1796652 20.1844171,66 13,66 L13,66 L13,66 C5.82029825,66 0,60.1718925 0,52.9999183 L0,13.0000817 Z" id="Rectangle-10" fill="#F6E61D"></path>
                <path d="M13,0 L13,0 L13,0 C20.1797017,0 26,5.82810753 26,13.0000817 L26,52.9999183 C26,60.1796652 20.1844171,66 13,66 L13,66 L13,66" id="Rectangle-10" fill="#FFCB29"></path>
            </g>
            <g id="Group-5" transform="translate(308.000000, 812.000000)">
                <path d="M12.5,34.5 L12.5,97.5" id="Line" stroke="#C57C43" stroke-width="5" stroke-linecap="round" stroke-linejoin="round"></path>
                <path d="M0,13.0000817 C0,5.82033481 5.81558287,0 13,0 L13,0 L13,0 C20.1797017,0 26,5.82810753 26,13.0000817 L26,52.9999183 C26,60.1796652 20.1844171,66 13,66 L13,66 L13,66 C5.82029825,66 0,60.1718925 0,52.9999183 L0,13.0000817 Z" id="Rectangle-10" fill="#F6E61D"></path>
                <path d="M13,0 L13,0 L13,0 C20.1797017,0 26,5.82810753 26,13.0000817 L26,52.9999183 C26,60.1796652 20.1844171,66 13,66 L13,66 L13,66" id="Rectangle-10" fill="#FFCB29"></path>
            </g>
            <g id="Group-5" transform="translate(270.000000, 840.000000)">
                <path d="M12.5,34.5 L12.5,97.5" id="Line" stroke="#C57C43" stroke-width="5" stroke-linecap="round" stroke-linejoin="round"></path>
                <path d="M0,13.0000817 C0,5.82033481 5.81558287,0 13,0 L13,0 L13,0 C20.1797017,0 26,5.82810753 26,13.0000817 L26,52.9999183 C26,60.1796652 20.1844171,66 13,66 L13,66 L13,66 C5.82029825,66 0,60.1718925 0,52.9999183 L0,13.0000817 Z" id="Rectangle-10" fill="#F6E61D"></path>
                <path d="M13,0 L13,0 L13,0 C20.1797017,0 26,5.82810753 26,13.0000817 L26,52.9999183 C26,60.1796652 20.1844171,66 13,66 L13,66 L13,66" id="Rectangle-10" fill="#FFCB29"></path>
            </g>
            <g id="Group-5" transform="translate(461.000000, 812.000000)">
                <path d="M12.5,34.5 L12.5,97.5" id="Line" stroke="#C57C43" stroke-width="5" stroke-linecap="round" stroke-linejoin="round"></path>
                <path d="M0,13.0000817 C0,5.82033481 5.81558287,0 13,0 L13,0 L13,0 C20.1797017,0 26,5.82810753 26,13.0000817 L26,52.9999183 C26,60.1796652 20.1844171,66 13,66 L13,66 L13,66 C5.82029825,66 0,60.1718925 0,52.9999183 L0,13.0000817 Z" id="Rectangle-10" fill="#F6E61D"></path>
                <path d="M13,0 L13,0 L13,0 C20.1797017,0 26,5.82810753 26,13.0000817 L26,52.9999183 C26,60.1796652 20.1844171,66 13,66 L13,66 L13,66" id="Rectangle-10" fill="#FFCB29"></path>
            </g>
            <g id="cloud" transform="translate(473.000000, 93.000000)" fill="#FFFFFF">
                <path d="M134.5,141 C152.153442,141 202.255004,144.996358 214.622742,134.274078 C229.533036,121.347516 205,91.7826325 205,70.5 C205,31.5639251 173.436075,0 134.5,0 C95.5639251,0 64,31.5639251 64,70.5 C64,109.436075 95.5639251,141 134.5,141 Z" id="Oval-181"></path>
                <path d="M64,141 C99.346224,141 168.578278,147.262845 168.578278,121.581604 C168.578278,95.9003631 99.346224,48 64,48 C28.653776,48 0,68.8187591 0,94.5 C0,120.181241 28.653776,141 64,141 Z" id="Oval-183"></path>
                <ellipse id="Oval-183" cx="191" cy="90.5" rx="56" ry="50.5"></ellipse>
            </g>
            <g id="cloud" transform="translate(1197.000000, 93.000000)" fill="#FFFFFF">
                <path d="M189.497976,198.591549 C214.370032,198.591549 284.958467,204.220222 302.383458,189.11842 C323.390674,170.911994 288.825911,129.271313 288.825911,99.2957746 C288.825911,44.4562326 244.35528,0 189.497976,0 C134.640672,0 90.1700405,44.4562326 90.1700405,99.2957746 C90.1700405,154.135317 134.640672,198.591549 189.497976,198.591549 Z" id="Oval-181"></path>
                <path d="M90.1700405,198.591549 C139.969579,198.591549 237.511096,207.412458 237.511096,171.241696 C237.511096,135.070934 139.969579,67.6056338 90.1700405,67.6056338 C40.3705022,67.6056338 0,96.9278298 0,133.098592 C0,169.269353 40.3705022,198.591549 90.1700405,198.591549 Z" id="Oval-183"></path>
                <ellipse id="Oval-183" cx="269.101215" cy="127.464789" rx="78.8987854" ry="71.1267606"></ellipse>
            </g>
            <g id="cloud" transform="translate(836.000000, 293.000000)" fill="#FFFFFF">
                <path d="M89.8481781,94.3309859 C101.640964,94.3309859 135.109618,97.0046055 143.371467,89.8312496 C153.331785,81.183197 136.94332,61.4038739 136.94332,47.165493 C136.94332,21.1167105 115.858107,0 89.8481781,0 C63.8382496,0 42.7530364,21.1167105 42.7530364,47.165493 C42.7530364,73.2142754 63.8382496,94.3309859 89.8481781,94.3309859 Z" id="Oval-181"></path>
                <path d="M42.7530364,94.3309859 C66.3648865,94.3309859 112.613019,98.5209173 112.613019,81.3398055 C112.613019,64.1586936 66.3648865,32.1126761 42.7530364,32.1126761 C19.1411864,32.1126761 0,46.0407191 0,63.221831 C0,80.4029428 19.1411864,94.3309859 42.7530364,94.3309859 Z" id="Oval-183"></path>
                <ellipse id="Oval-183" cx="127.591093" cy="60.5457746" rx="37.4089069" ry="33.7852113"></ellipse>
            </g>
        </g>
    </g>
</svg>