<?xml version="1.0" encoding="UTF-8" standalone="no"?>
<svg width="1440px" height="1024px" viewBox="0 0 1440 1024" version="1.1" xmlns="http://www.w3.org/2000/svg" xmlns:xlink="http://www.w3.org/1999/xlink">
    <!-- Generator: Sketch 3.6.1 (26313) - http://www.bohemiancoding.com/sketch -->
    <title>Desktop HD Copy</title>
    <desc>Created with Sketch.</desc>
    <defs></defs>
    <g id="Page-1" stroke="none" stroke-width="1" fill="none" fill-rule="evenodd">
        <g id="Desktop-HD-Copy">
            <rect id="Rectangle-7" fill="#F0F2F2" x="0" y="0" width="1457" height="1024"></rect>
            <path d="M1041.58371,137 L1106.81008,137 L1159.3011,717 L991,717 L1041.58371,137 Z" id="Rectangle-50" fill="#95B3BE"></path>
            <path d="M1221.72163,315 L1301.31004,315 L1365.35895,895 L1160,895 L1221.72163,315 Z" id="Rectangle-50" fill="#95B3BE"></path>
            <rect id="Rectangle-49" fill="#B5CAD2" x="811" y="605" width="629" height="419"></rect>
            <rect id="Rectangle-47" fill="#B5CAD2" x="0" y="518" width="696" height="506"></rect>
            <rect id="Rectangle-48" fill="#B6CAD2" x="568" y="370" width="359" height="654"></rect>
            <g id="Group-6" transform="translate(621.000000, 416.000000)" fill="#95B3BE">
                <rect id="Rectangle-53" x="0" y="0" width="64" height="96"></rect>
                <rect id="Rectangle-53" x="103" y="0" width="64" height="96"></rect>
                <rect id="Rectangle-53" x="207" y="0" width="64" height="96"></rect>
            </g>
            <g id="Group-6" transform="translate(621.000000, 551.000000)" fill="#95B3BE">
                <rect id="Rectangle-53" x="0" y="0" width="64" height="96"></rect>
                <rect id="Rectangle-53" x="103" y="0" width="64" height="96"></rect>
                <rect id="Rectangle-53" x="207" y="0" width="64" height="96"></rect>
            </g>
            <g id="Group-6" transform="translate(940.000000, 691.000000)" fill="#95B3BE">
                <rect id="Rectangle-53" x="0" y="0" width="64" height="96"></rect>
                <rect id="Rectangle-53" x="103" y="0" width="64" height="96"></rect>
                <rect id="Rectangle-53" x="207" y="0" width="64" height="96"></rect>
                <rect id="Rectangle-53" x="310" y="0" width="64" height="96"></rect>
                <rect id="Rectangle-53" x="413" y="0" width="64" height="96"></rect>
            </g>
            <g id="Group-6" transform="translate(57.000000, 580.000000)" fill="#95B3BE">
                <rect id="Rectangle-53" x="0" y="0" width="64" height="96"></rect>
                <rect id="Rectangle-53" x="103" y="0" width="64" height="96"></rect>
                <rect id="Rectangle-53" x="207" y="0" width="64" height="96"></rect>
            </g>
            <rect id="Rectangle-35" fill="#602900" x="85" y="851" width="42" height="173"></rect>
            <rect id="Rectangle-35" fill="#602900" x="349" y="851" width="42" height="173"></rect>
            <rect id="Rectangle-35" fill="#602900" x="603" y="851" width="42" height="173"></rect>
            <rect id="Rectangle-35" fill="#602900" x="871" y="851" width="42" height="173"></rect>
            <g id="Group" transform="translate(0.000000, 787.000000)">
                <rect id="Rectangle-30" stroke="#602900" stroke-width="11" fill="#F7E8D5" x="0" y="0" width="1012" height="76" rx="8"></rect>
                <circle id="Oval-244" fill="#602900" cx="57" cy="38" r="21"></circle>
                <circle id="Oval-244" fill="#602900" cx="624" cy="38" r="21"></circle>
                <circle id="Oval-244" fill="#602900" cx="705" cy="38" r="21"></circle>
                <circle id="Oval-244" fill="#602900" cx="786" cy="38" r="21"></circle>
                <circle id="Oval-244" fill="#602900" cx="867" cy="38" r="21"></circle>
                <circle id="Oval-244" fill="#602900" cx="954" cy="38" r="21"></circle>
                <circle id="Oval-244" fill="#602900" cx="138" cy="38" r="21"></circle>
                <circle id="Oval-244" fill="#602900" cx="219" cy="38" r="21"></circle>
                <circle id="Oval-244" fill="#602900" cx="300" cy="38" r="21"></circle>
                <circle id="Oval-244" fill="#602900" cx="381" cy="38" r="21"></circle>
                <circle id="Oval-244" fill="#602900" cx="462" cy="38" r="21"></circle>
                <circle id="Oval-244" fill="#602900" cx="543" cy="38" r="21"></circle>
            </g>
            <g id="orange" transform="translate(167.000000, 720.000000)">
                <g id="Group-7" transform="translate(68.000000, 8.000000)">
                    <g id="Group-4">
                        <circle id="Oval-192" fill="#F68D2F" cx="18" cy="18" r="18"></circle>
                        <path d="M18,36 C27.9411255,36 36,27.9411255 36,18 C36,8.0588745 27.9411255,0 18,0 C18.0000002,0 18,8.0588745 18,18 C18,27.9411255 18.0000002,36 18,36 Z" id="Oval-192" fill="#F76A28"></path>
                    </g>
                </g>
                <g id="Group-7" transform="translate(29.000000, 0.000000)">
                    <g id="Group-4">
                        <circle id="Oval-192" fill="#F68D2F" cx="19.5" cy="19.5" r="19.5"></circle>
                        <path d="M19.5,39 C30.2695526,39 39,30.2695526 39,19.5 C39,8.73044738 30.2695526,0 19.5,0 C19.5000002,0 19.5,8.73044738 19.5,19.5 C19.5,30.2695526 19.5000002,39 19.5,39 Z" id="Oval-192" fill="#F76A28"></path>
                    </g>
                </g>
                <g id="Group-7" transform="translate(0.000000, 8.000000)">
                    <g id="Group-4">
                        <circle id="Oval-192" fill="#F68D2F" cx="18" cy="18" r="18"></circle>
                        <path d="M18,36 C27.9411255,36 36,27.9411255 36,18 C36,8.0588745 27.9411255,0 18,0 C18.0000002,0 18,8.0588745 18,18 C18,27.9411255 18.0000002,36 18,36 Z" id="Oval-192" fill="#F76A28"></path>
                    </g>
                </g>
            </g>
            <g id="orange" transform="translate(76.000000, 716.000000)">
                <g id="Group-7" transform="translate(61.000000, 12.000000)">
                    <g id="Group-4">
                        <circle id="Oval-192" fill="#F68D2F" cx="18" cy="18" r="18"></circle>
                        <path d="M18,36 C27.9411255,36 36,27.9411255 36,18 C36,8.0588745 27.9411255,0 18,0 C18.0000002,0 18,8.0588745 18,18 C18,27.9411255 18.0000002,36 18,36 Z" id="Oval-192" fill="#F76A28"></path>
                    </g>
                </g>
                <g id="Group-7" transform="translate(29.000000, 0.000000)">
                    <g id="Group-4">
                        <circle id="Oval-192" fill="#F68D2F" cx="19.5" cy="19.5" r="19.5"></circle>
                        <path d="M19.5,39 C30.2695526,39 39,30.2695526 39,19.5 C39,8.73044738 30.2695526,0 19.5,0 C19.5000002,0 19.5,8.73044738 19.5,19.5 C19.5,30.2695526 19.5000002,39 19.5,39 Z" id="Oval-192" fill="#F76A28"></path>
                    </g>
                </g>
                <g id="Group-7" transform="translate(0.000000, 12.000000)">
                    <g id="Group-4">
                        <circle id="Oval-192" fill="#F68D2F" cx="18" cy="18" r="18"></circle>
                        <path d="M18,36 C27.9411255,36 36,27.9411255 36,18 C36,8.0588745 27.9411255,0 18,0 C18.0000002,0 18,8.0588745 18,18 C18,27.9411255 18.0000002,36 18,36 Z" id="Oval-192" fill="#F76A28"></path>
                    </g>
                </g>
            </g>
            <g id="Group-2" transform="translate(568.000000, 689.000000)">
                <rect id="Rectangle-39" fill="#F5A623" x="0" y="0" width="113" height="98"></rect>
                <rect id="Rectangle-39" fill="#DD8900" x="0" y="0" width="32" height="98"></rect>
                <rect id="Rectangle-41" fill="#F7E8D5" x="53" y="35" width="37" height="48" rx="3"></rect>
                <g id="Group-7" transform="translate(72.000000, 64.000000)">
                    <g id="Group-4">
                        <circle id="Oval-192" fill="#F68D2F" cx="6.5" cy="6.5" r="6.5"></circle>
                        <path d="M6.5,13 C10.0898509,13 13,10.0898509 13,6.5 C13,2.91014913 10.0898509,0 6.5,0 C6.50000008,0 6.5,2.91014913 6.5,6.5 C6.5,10.0898509 6.50000008,13 6.5,13 Z" id="Oval-192" fill="#F76A28"></path>
                    </g>
                </g>
                <g id="Group-7" transform="translate(57.000000, 59.000000)">
                    <g id="Group-4">
                        <circle id="Oval-192" fill="#F68D2F" cx="9" cy="9" r="9"></circle>
                        <path d="M9,18 C13.9705627,18 18,13.9705627 18,9 C18,4.02943725 13.9705627,0 9,0 C9.00000011,0 9,4.02943725 9,9 C9,13.9705627 9.00000011,18 9,18 Z" id="Oval-192" fill="#F76A28"></path>
                    </g>
                </g>
                <text id="Orange" font-family="AmericanTypewriter, American Typewriter" font-size="8" font-weight="normal" fill="#F66A29">
                    <tspan x="58" y="49">Orange</tspan>
                </text>
            </g>
            <g id="Group-2" transform="translate(779.000000, 689.000000)">
                <rect id="Rectangle-39" fill="#F5A623" x="0" y="0" width="113" height="98"></rect>
                <rect id="Rectangle-39" fill="#DD8900" x="0" y="0" width="32" height="98"></rect>
                <rect id="Rectangle-41" fill="#F7E8D5" x="53" y="35" width="37" height="48" rx="3"></rect>
                <g id="Group-7" transform="translate(72.000000, 64.000000)">
                    <g id="Group-4">
                        <circle id="Oval-192" fill="#F68D2F" cx="6.5" cy="6.5" r="6.5"></circle>
                        <path d="M6.5,13 C10.0898509,13 13,10.0898509 13,6.5 C13,2.91014913 10.0898509,0 6.5,0 C6.50000008,0 6.5,2.91014913 6.5,6.5 C6.5,10.0898509 6.50000008,13 6.5,13 Z" id="Oval-192" fill="#F76A28"></path>
                    </g>
                </g>
                <g id="Group-7" transform="translate(57.000000, 59.000000)">
                    <g id="Group-4">
                        <circle id="Oval-192" fill="#F68D2F" cx="9" cy="9" r="9"></circle>
                        <path d="M9,18 C13.9705627,18 18,13.9705627 18,9 C18,4.02943725 13.9705627,0 9,0 C9.00000011,0 9,4.02943725 9,9 C9,13.9705627 9.00000011,18 9,18 Z" id="Oval-192" fill="#F76A28"></path>
                    </g>
                </g>
                <text id="Orange" font-family="AmericanTypewriter, American Typewriter" font-size="8" font-weight="normal" fill="#F66A29">
                    <tspan x="58" y="49">Orange</tspan>
                </text>
            </g>
            <g id="orange" transform="translate(149.000000, 751.000000)">
                <g id="Group-7" transform="translate(68.000000, 0.000000)">
                    <g id="Group-4">
                        <circle id="Oval-192" fill="#F68D2F" cx="18" cy="18" r="18"></circle>
                        <path d="M18,36 C27.9411255,36 36,27.9411255 36,18 C36,8.0588745 27.9411255,0 18,0 C18.0000002,0 18,8.0588745 18,18 C18,27.9411255 18.0000002,36 18,36 Z" id="Oval-192" fill="#F76A28"></path>
                    </g>
                </g>
                <g id="Group-7" transform="translate(36.000000, 4.000000)">
                    <g id="Group-4">
                        <circle id="Oval-192" fill="#F68D2F" cx="16" cy="16" r="16"></circle>
                        <path d="M16,32 C24.836556,32 32,24.836556 32,16 C32,7.163444 24.836556,0 16,0 C16.0000002,0 16,7.163444 16,16 C16,24.836556 16.0000002,32 16,32 Z" id="Oval-192" fill="#F76A28"></path>
                    </g>
                </g>
                <g id="Group-7">
                    <g id="Group-4">
                        <circle id="Oval-192" fill="#F68D2F" cx="18" cy="18" r="18"></circle>
                        <path d="M18,36 C27.9411255,36 36,27.9411255 36,18 C36,8.0588745 27.9411255,0 18,0 C18.0000002,0 18,8.0588745 18,18 C18,27.9411255 18.0000002,36 18,36 Z" id="Oval-192" fill="#F76A28"></path>
                    </g>
                </g>
            </g>
            <g id="orange" transform="translate(57.000000, 748.000000)">
                <g id="Group-7" transform="translate(56.000000, 3.000000)">
                    <g id="Group-4">
                        <circle id="Oval-192" fill="#F68D2F" cx="18" cy="18" r="18"></circle>
                        <path d="M18,36 C27.9411255,36 36,27.9411255 36,18 C36,8.0588745 27.9411255,0 18,0 C18.0000002,0 18,8.0588745 18,18 C18,27.9411255 18.0000002,36 18,36 Z" id="Oval-192" fill="#F76A28"></path>
                    </g>
                </g>
                <g id="Group-7" transform="translate(24.000000, 0.000000)">
                    <g id="Group-4">
                        <circle id="Oval-192" fill="#F68D2F" cx="19.5" cy="19.5" r="19.5"></circle>
                        <path d="M19.5,39 C30.2695526,39 39,30.2695526 39,19.5 C39,8.73044738 30.2695526,0 19.5,0 C19.5000002,0 19.5,8.73044738 19.5,19.5 C19.5,30.2695526 19.5000002,39 19.5,39 Z" id="Oval-192" fill="#F76A28"></path>
                    </g>
                </g>
                <g id="Group-7" transform="translate(0.000000, 3.000000)">
                    <g id="Group-4">
                        <circle id="Oval-192" fill="#F68D2F" cx="18" cy="18" r="18"></circle>
                        <path d="M18,36 C27.9411255,36 36,27.9411255 36,18 C36,8.0588745 27.9411255,0 18,0 C18.0000002,0 18,8.0588745 18,18 C18,27.9411255 18.0000002,36 18,36 Z" id="Oval-192" fill="#F76A28"></path>
                    </g>
                </g>
            </g>
            <g id="orange" transform="translate(253.000000, 748.000000)">
                <g id="Group-7" transform="translate(56.000000, 3.000000)">
                    <g id="Group-4">
                        <circle id="Oval-192" fill="#F68D2F" cx="18" cy="18" r="18"></circle>
                        <path d="M18,36 C27.9411255,36 36,27.9411255 36,18 C36,8.0588745 27.9411255,0 18,0 C18.0000002,0 18,8.0588745 18,18 C18,27.9411255 18.0000002,36 18,36 Z" id="Oval-192" fill="#F76A28"></path>
                    </g>
                </g>
                <g id="Group-7" transform="translate(24.000000, 0.000000)">
                    <g id="Group-4">
                        <circle id="Oval-192" fill="#F68D2F" cx="19.5" cy="19.5" r="19.5"></circle>
                        <path d="M19.5,39 C30.2695526,39 39,30.2695526 39,19.5 C39,8.73044738 30.2695526,0 19.5,0 C19.5000002,0 19.5,8.73044738 19.5,19.5 C19.5,30.2695526 19.5000002,39 19.5,39 Z" id="Oval-192" fill="#F76A28"></path>
                    </g>
                </g>
                <g id="Group-7" transform="translate(0.000000, 3.000000)">
                    <g id="Group-4">
                        <circle id="Oval-192" fill="#F68D2F" cx="18" cy="18" r="18"></circle>
                        <path d="M18,36 C27.9411255,36 36,27.9411255 36,18 C36,8.0588745 27.9411255,0 18,0 C18.0000002,0 18,8.0588745 18,18 C18,27.9411255 18.0000002,36 18,36 Z" id="Oval-192" fill="#F76A28"></path>
                    </g>
                </g>
            </g>
            <rect id="Rectangle-31" fill="#602900" x="349" y="595" width="296" height="268" rx="8"></rect>
            <rect id="Rectangle-32" fill="#AB6432" x="388" y="561" width="42" height="76" rx="8"></rect>
            <rect id="Rectangle-33" fill="#AB6432" x="388" y="607" width="68" height="42" rx="8"></rect>
            <rect id="Rectangle-34" fill="#AB6432" x="381" y="543" width="56" height="20" rx="8"></rect>
            <circle id="Oval-256" fill="#F7E8D5" cx="506" cy="655" r="34"></circle>
            <path d="M507,655 L528,642" id="Line" stroke="#602900" stroke-width="3" stroke-linecap="round" stroke-linejoin="round"></path>
            <circle id="Oval-256" fill="#F7E8D5" cx="590" cy="655" r="34"></circle>
            <ellipse id="Oval-258" fill="#602900" cx="506" cy="655" rx="4" ry="4"></ellipse>
            <path d="M590,655 L607,675" id="Line" stroke="#602900" stroke-width="3" stroke-linecap="round" stroke-linejoin="round"></path>
            <ellipse id="Oval-258" fill="#602900" cx="590" cy="655" rx="4" ry="4"></ellipse>
            <rect id="Rectangle-45" fill="#F7E8D5" x="395" y="731" width="31" height="16" rx="3"></rect>
            <text id="OFF" font-family="HelveticaNeue-CondensedBold, Helvetica Neue" font-size="8" font-style="condensed" font-weight="bold" fill="#602900">
                <tspan x="404" y="742">OFF</tspan>
            </text>
            <g id="Group-3" transform="translate(395.000000, 756.000000)">
                <rect id="Rectangle-45" fill="#F7E8D5" x="0" y="0" width="29" height="16" rx="3"></rect>
                <text id="ON" font-family="HelveticaNeue-CondensedBold, Helvetica Neue" font-size="8" font-style="condensed" font-weight="bold" fill="#602900">
                    <tspan x="10" y="11">ON</tspan>
                </text>
            </g>
            <path d="M626.5,720.5 L670.5,659.5" id="Line" stroke="#602900" stroke-width="10" stroke-linecap="square"></path>
            <circle id="Oval-298" fill="#ED3822" cx="677.5" cy="648.5" r="15.5"></circle>
            <path d="M677.5,664 C686.060414,664 693,657.060414 693,648.5 C693,639.939586 686.060414,633 677.5,633 C677.5,633 677.5,664 677.5,664 Z" id="Oval-298" fill="#C71500"></path>
            <g id="Group-5" transform="translate(368.000000, 456.000000)" stroke="#4A4A4A" stroke-width="5" stroke-linecap="round" stroke-linejoin="round">
                <path d="M23.9930328,12.3135164 L23.5,82" id="Line"></path>
                <path d="M24,12 C24,5.372583 18.627417,0 12,0 C5.372583,0 0,5.372583 0,12 C0,18.627417 5.372583,24 12,24 L12,24" id="Oval-300"></path>
            </g>
            <g id="Group-5" transform="translate(434.000000, 497.500000) scale(-1, 1) translate(-434.000000, -497.500000) translate(421.000000, 456.000000)" stroke="#4A4A4A" stroke-width="5" stroke-linecap="round" stroke-linejoin="round">
                <path d="M23.9498485,10.2342016 L23.9498485,81.500002" id="Line"></path>
                <path d="M24,12 C24,5.372583 18.627417,0 12,0 C5.372583,0 0,5.372583 0,12 C0,18.627417 5.372583,24 12,24 L12,24" id="Oval-300"></path>
            </g>
            <g id="Group-5" transform="translate(392.000000, 435.000000)" stroke="#4A4A4A" stroke-width="5" stroke-linecap="round" stroke-linejoin="round">
                <path d="M16.0635729,8.24403489 L16.5,103" id="Line"></path>
                <path d="M16,8 C16,3.581722 12.418278,0 8,0 C3.581722,0 0,3.581722 0,8 C0,12.418278 3.581722,16 8,16 L8,16" id="Oval-300"></path>
            </g>
            <g id="cloud" transform="translate(599.000000, 66.000000)" fill="#FFFFFF">
                <path d="M134.5,141 C152.153442,141 202.255004,144.996358 214.622742,134.274078 C229.533036,121.347516 205,91.7826325 205,70.5 C205,31.5639251 173.436075,0 134.5,0 C95.5639251,0 64,31.5639251 64,70.5 C64,109.436075 95.5639251,141 134.5,141 Z" id="Oval-181"></path>
                <path d="M64,141 C99.346224,141 168.578278,147.262845 168.578278,121.581604 C168.578278,95.9003631 99.346224,48 64,48 C28.653776,48 0,68.8187591 0,94.5 C0,120.181241 28.653776,141 64,141 Z" id="Oval-183"></path>
                <ellipse id="Oval-183" cx="191" cy="90.5" rx="56" ry="50.5"></ellipse>
            </g>
            <g id="cloud" transform="translate(-50.000000, 170.000000)" fill="#FFFFFF">
                <path d="M189.497976,198.591549 C214.370032,198.591549 284.958467,204.220222 302.383458,189.11842 C323.390674,170.911994 288.825911,129.271313 288.825911,99.2957746 C288.825911,44.4562326 244.35528,0 189.497976,0 C134.640672,0 90.1700405,44.4562326 90.1700405,99.2957746 C90.1700405,154.135317 134.640672,198.591549 189.497976,198.591549 Z" id="Oval-181"></path>
                <path d="M90.1700405,198.591549 C139.969579,198.591549 237.511096,207.412458 237.511096,171.241696 C237.511096,135.070934 139.969579,67.6056338 90.1700405,67.6056338 C40.3705022,67.6056338 0,96.9278298 0,133.098592 C0,169.269353 40.3705022,198.591549 90.1700405,198.591549 Z" id="Oval-183"></path>
                <ellipse id="Oval-183" cx="269.101215" cy="127.464789" rx="78.8987854" ry="71.1267606"></ellipse>
            </g>
            <rect id="Rectangle-67" fill="#95B3BE" x="1107" y="849" width="143" height="175"></rect>
        </g>
    </g>
</svg>