<?xml version="1.0" encoding="UTF-8" standalone="no"?>
<svg width="1440px" height="1024px" viewBox="0 0 1440 1024" version="1.1" xmlns="http://www.w3.org/2000/svg" xmlns:xlink="http://www.w3.org/1999/xlink">
    <!-- Generator: Sketch 3.6.1 (26313) - http://www.bohemiancoding.com/sketch -->
    <title>Desktop HD</title>
    <desc>Created with Sketch.</desc>
    <defs></defs>
    <g id="Page-1" stroke="none" stroke-width="1" fill="none" fill-rule="evenodd">
        <g id="Desktop-HD">
            <rect id="Rectangle-7" fill="#EDF5FF" x="0" y="0" width="1457" height="1024"></rect>
            <path d="M737.505211,437.053711 L823.595118,437.053711 L1039,858.053711 L510,858.053711 L737.505211,437.053711 Z" id="Rectangle-85" fill="#CBCBCB"></path>
            <path d="M737.505211,437.053711 L823.595118,437.053711 L878.981369,545.451591 C878.981369,545.451591 847.032059,533.106697 823.595123,545.451591 C800.158188,557.796486 807.20847,512.529014 796.208015,512 C786.622914,511.539051 776.776627,546.742827 767.653931,545.451591 C756.559401,543.88126 755.394192,511.169712 745.38398,512 C729.741166,513.297479 732.695807,565.351249 720,564.572037 C709.503659,563.927818 682.668241,536.100632 682.668241,536.100632 L737.505211,437.053711 Z" id="Rectangle-85" fill="#FFFFFF"></path>
            <path d="M345.343449,228 L476.024347,228 L803,852.053711 L0,852.053711 L345.343449,228 Z" id="Rectangle-85" fill="#E0E0E0"></path>
            <path d="M345.343449,228 L476.024347,228 L539.992645,350.174408 C539.992645,350.174408 510.626045,332.312727 497.019272,339.139946 C484.580649,345.381044 488.434312,376.540069 476.024353,373.107025 C459.573139,368.556024 455.029403,324.360045 445.368759,326.735481 C426.219045,331.444165 455.035779,372.009753 430.961426,373.107025 C415.670694,373.803953 398.236171,347.641679 384.18782,350.174408 C369.746789,352.777932 367.916273,398.265884 355.87944,398.265884 C347.82076,398.265884 325.354737,350.174408 317.296056,350.174408 L276.985291,350.174408 L345.343449,228 Z" id="Rectangle-85" fill="#FFFFFF"></path>
            <g id="Group-3" transform="translate(1152.000000, 431.000000)">
                <rect id="Rectangle-78" fill="#8B572A" x="83" y="299" width="36" height="122"></rect>
                <path d="M100.5,0 L201,324 L0,324 L100.5,0 Z" id="Rectangle-76" fill="#9BB32E"></path>
                <path d="M100.5,0 L201,324 L100.5,324 L100.5,0 Z" id="Rectangle-76" fill="#74881C"></path>
            </g>
            <g id="Group-3" transform="translate(911.000000, 431.000000)">
                <rect id="Rectangle-78" fill="#8B572A" x="83" y="299" width="36" height="122"></rect>
                <path d="M100.5,0 L201,324 L0,324 L100.5,0 Z" id="Rectangle-76" fill="#9BB32E"></path>
                <path d="M100.5,0 L201,324 L100.5,324 L100.5,0 Z" id="Rectangle-76" fill="#74881C"></path>
            </g>
            <g id="Group-3" transform="translate(1039.000000, 546.000000)">
                <rect id="Rectangle-78" fill="#8B572A" x="60.2885572" y="217.325416" width="26.1492537" height="88.6745843"></rect>
                <path d="M73,0 L146,235.496437 L0,235.496437 L73,0 Z" id="Rectangle-76" fill="#9BB32E"></path>
                <path d="M73,0 L146,235.496437 L73,235.496437 L73,0 Z" id="Rectangle-76" fill="#74881C"></path>
            </g>
            <g id="Group-2" transform="translate(96.000000, 549.000000)">
                <rect id="Rectangle-70" fill="#AB6432" x="357" y="224" width="50" height="21"></rect>
                <rect id="Rectangle-70" fill="#AB6432" x="357" y="196" width="50" height="21"></rect>
                <path d="M407,40 L507.5,40 C507.5,40 558.416012,150.444703 558.416021,150.444702 C558.416024,150.444702 617,179.978943 617,179.978943 C617,179.978943 617,258 617,258 L407,258 L407,40 Z" id="Rectangle-28" fill="#AB6432"></path>
                <rect id="Rectangle-29" fill="#F5A623" x="8" y="0" width="364" height="258"></rect>
                <circle id="Oval-310" fill="#E0E0E0" cx="111" cy="259" r="60"></circle>
                <circle id="Oval-310" fill="#E0E0E0" cx="508" cy="259" r="60"></circle>
                <circle id="Oval-310" fill="#602900" cx="111" cy="259" r="45"></circle>
                <circle id="Oval-310" fill="#602900" cx="508" cy="258" r="45"></circle>
                <rect id="Rectangle-68" fill="#FFFFFF" x="424" y="60" width="56" height="82" rx="8"></rect>
                <path d="M499,67.993081 C499,63.5786243 500.433802,63.2905338 502.194398,67.3310485 L531.535907,134.668952 C533.300124,138.717778 531.140753,142 526.733973,142 L506.996332,142 C502.58008,142 499,138.423835 499,134.006919 L499,67.993081 Z" id="Rectangle-68" fill="#FFFFFF"></path>
                <g id="Group" transform="translate(139.000000, 60.000000)">
                    <rect id="Rectangle-41" fill="#F7E8D5" x="0" y="0" width="103" height="133" rx="3"></rect>
                    <g id="Group-7" transform="translate(52.891892, 80.354167)">
                        <g id="Group-4">
                            <ellipse id="Oval-192" fill="#F68D2F" cx="18.0945946" cy="18.0104167" rx="18.0945946" ry="18.0104167"></ellipse>
                            <path d="M18.0945946,36.0208333 C28.0879632,36.0208333 36.1891892,27.9572951 36.1891892,18.0104167 C36.1891892,8.0635382 28.0879632,0 18.0945946,0 C18.0945948,0 18.0945946,8.0635382 18.0945946,18.0104167 C18.0945946,27.9572951 18.0945948,36.0208333 18.0945946,36.0208333 Z" id="Oval-192" fill="#F76A28"></path>
                        </g>
                    </g>
                    <g id="Group-7" transform="translate(11.135135, 66.500000)">
                        <g id="Group-4">
                            <ellipse id="Oval-192" fill="#F68D2F" cx="25.0540541" cy="24.9375" rx="25.0540541" ry="24.9375"></ellipse>
                            <path d="M25.0540541,49.875 C38.891026,49.875 50.1081081,38.7101009 50.1081081,24.9375 C50.1081081,11.1648991 38.891026,0 25.0540541,0 C25.0540544,0 25.0540541,11.1648991 25.0540541,24.9375 C25.0540541,38.7101009 25.0540544,49.875 25.0540541,49.875 Z" id="Oval-192" fill="#F76A28"></path>
                        </g>
                    </g>
                    <text id="Orange" font-family="AmericanTypewriter, American Typewriter" font-size="22.1666667" font-weight="normal" fill="#F66A29">
                        <tspan x="13.9189189" y="39.3958333">Orange</tspan>
                    </text>
                </g>
                <circle id="Oval-318" fill="#E0E0E0" cx="111.5" cy="258.5" r="18.5"></circle>
                <circle id="Oval-318" fill="#E0E0E0" cx="508.5" cy="258.5" r="18.5"></circle>
                <rect id="Rectangle-73" fill="#8B572A" x="604" y="230" width="20" height="33" rx="8"></rect>
                <rect id="Rectangle-73" fill="#8B572A" x="0" y="230" width="41" height="33" rx="8"></rect>
            </g>
            <rect id="Rectangle-75" fill="#996655" x="0" y="852" width="1440" height="185"></rect>
            <g id="cloud" transform="translate(978.000000, 42.000000)" fill="#FFFFFF">
                <path d="M189.497976,198.591549 C214.370032,198.591549 284.958467,204.220222 302.383458,189.11842 C323.390674,170.911994 288.825911,129.271313 288.825911,99.2957746 C288.825911,44.4562326 244.35528,0 189.497976,0 C134.640672,0 90.1700405,44.4562326 90.1700405,99.2957746 C90.1700405,154.135317 134.640672,198.591549 189.497976,198.591549 Z" id="Oval-181"></path>
                <path d="M90.1700405,198.591549 C139.969579,198.591549 237.511096,207.412458 237.511096,171.241696 C237.511096,135.070934 139.969579,67.6056338 90.1700405,67.6056338 C40.3705022,67.6056338 0,96.9278298 0,133.098592 C0,169.269353 40.3705022,198.591549 90.1700405,198.591549 Z" id="Oval-183"></path>
                <ellipse id="Oval-183" cx="269.101215" cy="127.464789" rx="78.8987854" ry="71.1267606"></ellipse>
            </g>
            <g id="cloud" transform="translate(-28.000000, 171.000000)" fill="#FFFFFF">
                <path d="M134.5,141 C152.153442,141 202.255004,144.996358 214.622742,134.274078 C229.533036,121.347516 205,91.7826325 205,70.5 C205,31.5639251 173.436075,0 134.5,0 C95.5639251,0 64,31.5639251 64,70.5 C64,109.436075 95.5639251,141 134.5,141 Z" id="Oval-181"></path>
                <path d="M64,141 C99.346224,141 168.578278,147.262845 168.578278,121.581604 C168.578278,95.9003631 99.346224,48 64,48 C28.653776,48 0,68.8187591 0,94.5 C0,120.181241 28.653776,141 64,141 Z" id="Oval-183"></path>
                <ellipse id="Oval-183" cx="191" cy="90.5" rx="56" ry="50.5"></ellipse>
            </g>
            <g id="cloud" transform="translate(603.000000, 242.000000)" fill="#FFFFFF">
                <path d="M87.1255061,91.3521127 C98.5609343,91.3521127 131.015387,93.9413022 139.026877,86.9944733 C148.685368,78.6195171 132.793522,59.4648042 132.793522,45.6760563 C132.793522,20.449867 112.347255,0 87.1255061,0 C61.9037572,0 41.4574899,20.449867 41.4574899,45.6760563 C41.4574899,70.9022457 61.9037572,91.3521127 87.1255061,91.3521127 Z" id="Oval-181"></path>
                <path d="M41.4574899,91.3521127 C64.3538293,91.3521127 109.200504,95.4097305 109.200504,78.7711801 C109.200504,62.1326296 64.3538293,31.0985915 41.4574899,31.0985915 C18.5611505,31.0985915 0,44.5868017 0,61.2253521 C0,77.8639025 18.5611505,91.3521127 41.4574899,91.3521127 Z" id="Oval-183"></path>
                <ellipse id="Oval-183" cx="123.724696" cy="58.6338028" rx="36.2753036" ry="32.7183099"></ellipse>
            </g>
            <g id="Group-5" transform="translate(55.000000, 906.000000)" stroke="#A37362" stroke-width="13" stroke-linecap="round" stroke-linejoin="round">
                <path d="M60.5,6.5 L352.5,6.5" id="Line"></path>
                <path d="M86.5,40.5 L241.5,40.5" id="Line"></path>
                <path d="M0.5,74.5 L292.5,74.5" id="Line"></path>
                <path d="M584.5,6.5 L841.5,6.5" id="Line"></path>
                <path d="M496.5,40.5 L847.5,40.5" id="Line"></path>
                <path d="M635.5,74.5 L781.5,74.5" id="Line"></path>
                <path d="M1057.5,4.5 L1297.5,4.5" id="Line"></path>
                <path d="M1130.5,37.5 L1285.5,37.5" id="Line"></path>
                <path d="M988.5,72.5 L1237.5,72.5" id="Line"></path>
            </g>
        </g>
    </g>
</svg>