<?xml version="1.0" encoding="UTF-8" standalone="no"?>
<svg width="624px" height="319px" viewBox="0 0 624 319" version="1.1" xmlns="http://www.w3.org/2000/svg" xmlns:xlink="http://www.w3.org/1999/xlink">
    <!-- Generator: Sketch 3.6.1 (26313) - http://www.bohemiancoding.com/sketch -->
    <title>Group 2</title>
    <desc>Created with Sketch.</desc>
    <defs></defs>
    <g id="Page-1" stroke="none" stroke-width="1" fill="none" fill-rule="evenodd">
        <g id="Desktop-HD" transform="translate(-96.000000, -549.000000)">
            <g id="Group-2" transform="translate(96.000000, 549.000000)">
                <rect id="Rectangle-70" fill="#AB6432" x="357" y="224" width="50" height="21"></rect>
                <rect id="Rectangle-70" fill="#AB6432" x="357" y="196" width="50" height="21"></rect>
                <path d="M407,40 L507.5,40 C507.5,40 558.416012,150.444703 558.416021,150.444702 C558.416024,150.444702 617,179.978943 617,179.978943 C617,179.978943 617,258 617,258 L407,258 L407,40 Z" id="Rectangle-28" fill="#AB6432"></path>
                <rect id="Rectangle-29" fill="#F5A623" x="8" y="0" width="364" height="258"></rect>
                <circle id="Oval-310" fill="#E0E0E0" cx="111" cy="259" r="60"></circle>
                <circle id="Oval-310" fill="#E0E0E0" cx="508" cy="259" r="60"></circle>
                <circle id="Oval-310" fill="#602900" cx="111" cy="259" r="45"></circle>
                <circle id="Oval-310" fill="#602900" cx="508" cy="258" r="45"></circle>
                <rect id="Rectangle-68" fill="#FFFFFF" x="424" y="60" width="56" height="82" rx="8"></rect>
                <path d="M499,67.993081 C499,63.5786243 500.433802,63.2905338 502.194398,67.3310485 L531.535907,134.668952 C533.300124,138.717778 531.140753,142 526.733973,142 L506.996332,142 C502.58008,142 499,138.423835 499,134.006919 L499,67.993081 Z" id="Rectangle-68" fill="#FFFFFF"></path>
                <g id="Group" transform="translate(139.000000, 60.000000)">
                    <rect id="Rectangle-41" fill="#F7E8D5" x="0" y="0" width="103" height="133" rx="3"></rect>
                    <g id="Group-7" transform="translate(52.891892, 80.354167)">
                        <g id="Group-4">
                            <ellipse id="Oval-192" fill="#F68D2F" cx="18.0945946" cy="18.0104167" rx="18.0945946" ry="18.0104167"></ellipse>
                            <path d="M18.0945946,36.0208333 C28.0879632,36.0208333 36.1891892,27.9572951 36.1891892,18.0104167 C36.1891892,8.0635382 28.0879632,0 18.0945946,0 C18.0945948,0 18.0945946,8.0635382 18.0945946,18.0104167 C18.0945946,27.9572951 18.0945948,36.0208333 18.0945946,36.0208333 Z" id="Oval-192" fill="#F76A28"></path>
                        </g>
                    </g>
                    <g id="Group-7" transform="translate(11.135135, 66.500000)">
                        <g id="Group-4">
                            <ellipse id="Oval-192" fill="#F68D2F" cx="25.0540541" cy="24.9375" rx="25.0540541" ry="24.9375"></ellipse>
                            <path d="M25.0540541,49.875 C38.891026,49.875 50.1081081,38.7101009 50.1081081,24.9375 C50.1081081,11.1648991 38.891026,0 25.0540541,0 C25.0540544,0 25.0540541,11.1648991 25.0540541,24.9375 C25.0540541,38.7101009 25.0540544,49.875 25.0540541,49.875 Z" id="Oval-192" fill="#F76A28"></path>
                        </g>
                    </g>
                    <text id="Orange" font-family="AmericanTypewriter, American Typewriter" font-size="22.1666667" font-weight="normal" fill="#F66A29">
                        <tspan x="13.9189189" y="39.3958333">Orange</tspan>
                    </text>
                </g>
                <circle id="Oval-318" fill="#E0E0E0" cx="111.5" cy="258.5" r="18.5"></circle>
                <circle id="Oval-318" fill="#E0E0E0" cx="508.5" cy="258.5" r="18.5"></circle>
                <rect id="Rectangle-73" fill="#8B572A" x="604" y="230" width="20" height="33" rx="8"></rect>
                <rect id="Rectangle-73" fill="#8B572A" x="0" y="230" width="41" height="33" rx="8"></rect>
            </g>
        </g>
    </g>
</svg>