<?xml version="1.0" encoding="UTF-8" standalone="no"?>
<svg width="118px" height="117px" viewBox="0 0 118 117" version="1.1" xmlns="http://www.w3.org/2000/svg" xmlns:xlink="http://www.w3.org/1999/xlink">
    <!-- Generator: Sketch 3.7 (28169) - http://www.bohemiancoding.com/sketch -->
    <title>Combined Shape</title>
    <desc>Created with Sketch.</desc>
    <defs>
        <linearGradient x1="-32.3884665%" y1="50%" x2="100%" y2="50%" id="linearGradient-1">
            <stop stop-color="#666666" offset="0%"></stop>
            <stop stop-color="#FFFFFF" offset="100%"></stop>
        </linearGradient>
    </defs>
    <g id="Page-1" stroke="none" stroke-width="1" fill="none" fill-rule="evenodd">
        <g id="Desktop-HD-Copy-4" transform="translate(-890.000000, -471.000000)" fill="url(#linearGradient-1)">
            <path d="M944.973346,487.992771 C940.292582,483.300976 940.288866,475.694994 944.96937,471 L940.661365,475.321342 C945.339934,470.628289 952.92298,470.621255 957.606232,475.313305 L1004.54185,522.337088 C1008.4408,526.243363 1008.43937,532.578119 1004.54185,536.482961 L957.606232,583.506744 C952.926409,588.195358 945.341869,588.193701 940.661365,583.498707 L944.96937,587.820049 C940.290801,583.126996 940.29192,575.519736 944.973346,570.827278 L986.293223,529.410024 L944.973346,487.992771 Z M894.311981,488.010249 C889.631216,483.318454 889.627501,475.712473 894.308004,471.017478 L890,475.33882 C894.678568,470.645767 902.261615,470.638733 906.944867,475.330783 L953.880481,522.354566 C957.779431,526.260841 957.778001,532.595597 953.880481,536.500439 L906.944867,583.524222 C902.265044,588.212837 894.680504,588.211179 890,583.516185 L894.308004,587.837527 C889.629436,583.144474 889.630554,575.537214 894.311981,570.844756 L935.631858,529.427503 L894.311981,488.010249 Z" id="Combined-Shape"></path>
        </g>
    </g>
</svg>