<?xml version="1.0" encoding="UTF-8" standalone="no"?>
<svg width="475px" height="495px" viewBox="0 0 475 495" version="1.1" xmlns="http://www.w3.org/2000/svg" xmlns:xlink="http://www.w3.org/1999/xlink">
    <!-- Generator: Sketch 3.7 (28169) - http://www.bohemiancoding.com/sketch -->
    <title>garbage</title>
    <desc>Created with Sketch.</desc>
    <defs></defs>
    <g id="Page-1" stroke="none" stroke-width="1" fill="none" fill-rule="evenodd">
        <g id="Desktop-HD-Copy-4" transform="translate(-838.000000, -358.000000)">
            <g id="garbage" transform="translate(838.000000, 348.000000)">
                <g id="Group" transform="translate(395.015827, 118.026488) rotate(-336.000000) translate(-395.015827, -118.026488) translate(357.515827, 5.526488)">
                    <path d="M0.745433434,60.6274965 C0.267153141,61.6548718 0,62.8007904 0,64.009216 L0,216.990784 C0,221.411631 3.57759387,225 7.99077956,225 L67.0092204,225 C71.4204654,225 75,221.414152 75,216.990784 L75,64.009216 C75,62.8010513 74.7328025,61.6550615 74.2543743,60.6274965 L75,60.6274965 L49.3652344,21.1361008 C42.8131406,11.0423348 32.1877536,11.0409571 25.6347656,21.1361008 L0,60.6274965 L0.745433434,60.6274965 Z" id="Combined-Shape" fill="#D5E3F2"></path>
                    <rect id="Rectangle-234" fill="#BBBBBB" x="25" y="0" width="25" height="19"></rect>
                    <rect id="Rectangle-235" fill="#EDEDED" x="22" y="84" width="53" height="42"></rect>
                </g>
                <g id="BANANA" transform="translate(190.358840, 96.562675) rotate(-10.000000) translate(-190.358840, -96.562675) translate(101.858840, 43.562675)">
                    <path d="M60,21 C60,21 83.7327118,49.4200745 118.291061,63.9497986 C152.849411,78.4795227 176.211342,80.2975388 176.211342,80.2975388" id="Line" stroke="#FFCB29" stroke-width="30" stroke-linecap="round" stroke-linejoin="round"></path>
                    <path d="M60,21 C60,21 83.7327118,49.4200745 118.291061,63.9497986 C152.849411,78.4795227 176.211342,80.2975388 176.211342,80.2975388" id="Line" stroke="#FFCB29" stroke-width="30" stroke-linecap="round" stroke-linejoin="round"></path>
                    <path d="M51,33 C51,33 73.4837339,59.0236787 106.223386,72.3282487 C138.963039,85.6328188 161.095505,87.2975388 161.095505,87.2975388" id="Line" stroke="#B49126" stroke-width="30" stroke-linecap="round" stroke-linejoin="round"></path>
                    <path d="M41.5,32.5 C41.5,32.5 65.2327118,60.9200745 99.7910614,75.4497986 C134.349411,89.9795227 157.711342,91.7975388 157.711342,91.7975388" id="Line" stroke="#FFCB29" stroke-width="30" stroke-linecap="round" stroke-linejoin="round"></path>
                    <path d="M34,46 C34,46 56.4837339,72.0236787 89.2233863,85.3282487 C121.963039,98.6328188 144.095505,100.297539 144.095505,100.297539" id="Line" stroke="#B49126" stroke-width="30" stroke-linecap="round" stroke-linejoin="round"></path>
                    <path d="M22,46 C22,46 45.7327118,74.4200745 80.2910614,88.9497986 C114.849411,103.479523 138.211342,105.297539 138.211342,105.297539" id="Line" stroke="#FFCB29" stroke-width="30" stroke-linecap="round" stroke-linejoin="round"></path>
                    <path d="M0.5,41.5 L60,0" id="Line" stroke="#8B572A" stroke-width="20" stroke-linecap="round" stroke-linejoin="round"></path>
                    <ellipse id="Oval-670" fill="#000000" opacity="0.274720149" transform="translate(77.500000, 90.500000) rotate(-349.000000) translate(-77.500000, -90.500000) " cx="77.5" cy="90.5" rx="10.5" ry="5.5"></ellipse>
                    <ellipse id="Oval-670" fill="#000000" opacity="0.274720149" transform="translate(88.916622, 88.204764) rotate(-349.000000) translate(-88.916622, -88.204764) " cx="88.9166217" cy="88.2047642" rx="4.54579927" ry="2.38113295"></ellipse>
                </g>
                <g id="apple" transform="translate(314.540941, 116.409840) rotate(-347.000000) translate(-314.540941, -116.409840) translate(283.540941, 74.909840)">
                    <path d="M35.5536723,83 C45.9562435,83 55.3153545,78.5520958 61.8169831,71.462319 C61.8169857,71.4623186 60.7581156,55.6311733 60.7581156,55.6311733 L56.9847059,47.6029412 L59.3080158,39.7831514 L53.510877,32.0063966 L56.9847059,27.6306607 C56.9847059,27.6306607 60.7581157,22.6375213 60.7581157,22.6375213 C54.3191591,16.1942666 45.404245,12.2058824 35.5536723,12.2058824 C23.3339581,12.2058824 12.5540916,18.3434477 6.15445436,27.6911492 C6.15445448,27.6911497 8.12734565,34.6353113 8.12734565,34.6353113 C8.12734565,34.6353113 7.96849324,35.5242969 6.15445448,37.7960876 C5.41635793,38.7204344 7.14561471,41.1915884 6.15445448,42.5661975 C4.41468772,44.9790255 -4.54747351e-13,46.4405114 -4.54747351e-13,47.6029412 C-4.54747351e-13,67.152197 15.9179213,83 35.5536723,83 Z" id="Oval-648" fill="#FFE5C3"></path>
                    <path d="M35.5536723,83 C45.9562435,83 55.3153545,78.5520958 61.8169831,71.462319 C61.8169857,71.4623186 56.9847059,58.9696053 56.9847059,58.9696053 L46.2884815,49.1753606 L50.3709913,39.0618434 L45.737413,31.0196281 L50.3709913,24.2886767 C50.3709913,24.2886767 60.7581157,22.6375213 60.7581157,22.6375213 C54.3191591,16.1942666 45.404245,12.2058824 35.5536723,12.2058824 C23.3868238,12.2058824 12.6473916,18.2904572 6.23775955,27.570008 C5.13285388,29.1696362 12.9902564,33.295533 12.9902564,33.295533 C12.9902564,33.295533 9.48503684,36.9201422 7.53595734,39.0618434 C6.84743975,39.8184051 10.9703344,44.3122613 10.3114707,45.0499846 L-4.54747351e-13,47.6029412 C-4.54747351e-13,67.152197 15.9179213,83 35.5536723,83 Z" id="Oval-648" fill="#EC9182"></path>
                    <ellipse id="Oval-650" fill="#E57562" cx="35.9039548" cy="16.7394958" rx="2.62711864" ry="1.39495798"></ellipse>
                    <path d="M35.7288136,16.3907563 C35.7288136,16.3907563 38.1247512,11.8354567 39.1221598,7.79032422 C40.1195684,3.74519171 39.5819209,-1.13686838e-13 39.5819209,-1.13686838e-13" id="Line" stroke="#8B572A" stroke-width="3" stroke-linecap="round" stroke-linejoin="round"></path>
                    <ellipse id="Oval-651" fill="#000000" opacity="0.176888993" transform="translate(20.628492, 66.361436) rotate(-330.000000) translate(-20.628492, -66.361436) " cx="20.6284915" cy="66.3614361" rx="14.0112994" ry="5.75420168"></ellipse>
                    <ellipse id="Oval-652" fill="#4A4A4A" opacity="0.225279851" cx="35.2033898" cy="66.2605042" rx="2.62711864" ry="2.44117647"></ellipse>
                </g>
                <g id="trash-can" transform="translate(94.000000, 141.000000)">
                    <rect id="Rectangle-232" fill="#D8D8D8" x="20" y="21" width="340" height="342"></rect>
                    <rect id="Rectangle-232" fill="#C2C2C2" x="20" y="21" width="340" height="18"></rect>
                    <rect id="Rectangle-232" fill="#D8D8D8" x="0" y="0" width="381" height="29" rx="8"></rect>
                    <path d="M69.5,83.5 L69.5,301.74025" id="Line" stroke="#C2C2C2" stroke-width="25" stroke-linecap="round" stroke-linejoin="round"></path>
                    <path d="M193.5,83.5 L193.5,301.74025" id="Line" stroke="#C2C2C2" stroke-width="25" stroke-linecap="round" stroke-linejoin="round"></path>
                    <path d="M254.5,83.5 L254.5,301.74025" id="Line" stroke="#C2C2C2" stroke-width="25" stroke-linecap="round" stroke-linejoin="round"></path>
                    <path d="M316.5,83.5 L316.5,301.74025" id="Line" stroke="#C2C2C2" stroke-width="25" stroke-linecap="round" stroke-linejoin="round"></path>
                    <path d="M131.5,83.5 L131.5,301.74025" id="Line" stroke="#C2C2C2" stroke-width="25" stroke-linecap="round" stroke-linejoin="round"></path>
                </g>
                <g id="paper" transform="translate(53.000000, 142.000000)">
                    <path d="M96.3059876,1.07059569 L171.220298,1.07059569 L131.441756,113.565705 L61.1247933,105.875138 L61.1247933,100.161713 L96.3059876,1.07059569 Z" id="Rectangle-236" fill="#C2C2C2"></path>
                    <polygon id="Rectangle-236" fill="#FDFDFD" points="82.0570526 0.940248489 165.728218 0.940248489 127.933243 108.333948 0.394320913 94.4474964"></polygon>
                    <circle id="Oval-647" fill="#D6C2AF" cx="85" cy="26" r="3"></circle>
                    <ellipse id="Oval-644" fill="#D7C2B0" cx="115" cy="52.5" rx="14" ry="5.5"></ellipse>
                    <ellipse id="Oval-644" fill="#C4A78D" cx="124.5" cy="51" rx="11.5" ry="9"></ellipse>
                    <ellipse id="Oval-644" fill="#D4B79D" transform="translate(80.472222, 18.500000) rotate(-351.000000) translate(-80.472222, -18.500000) " cx="80.4722222" cy="18.5" rx="4.47222222" ry="3.5"></ellipse>
                </g>
                <g id="orange-middle" transform="translate(0.000000, 430.000000)">
                    <circle id="Oval-192" fill="#F68D2F" cx="84.5" cy="19.5" r="19.5"></circle>
                    <path d="M85,39 C95.7695526,39 104.5,30.2695526 104.5,19.5 C104.5,8.73044738 95.7695526,0 85,0 C85.0000002,0 85,8.73044738 85,19.5 C85,30.2695526 85.0000002,39 85,39 Z" id="Oval-192" fill="#F76A28"></path>
                    <path d="M38,74 C47.9411255,74 56,65.9411255 56,56 C56,46.0588745 47.9411255,38 38,38 C28.0588745,38 20,46.0588745 20,56 C20,65.9411255 28.0588745,74 38,74 Z" id="Oval-192" fill="#CA7D39"></path>
                    <path d="M38,74 C47.9411255,74 56,65.9411255 56,56 C56,46.0588745 47.9411255,38 38,38 C38.0000002,38 38,46.0588745 38,56 C38,65.9411255 38.0000002,74 38,74 Z" id="Oval-192" fill="#B85526"></path>
                    <circle id="Oval-192" fill="#F68D2F" cx="95" cy="57" r="18"></circle>
                    <path d="M95,75 C104.941125,75 113,66.9411255 113,57 C113,47.0588745 104.941125,39 95,39 C95.0000002,39 95,47.0588745 95,57 C95,66.9411255 95.0000002,75 95,75 Z" id="Oval-192" fill="#F76A28"></path>
                    <path d="M86.5,74 C97.2695526,74 106,65.2695526 106,54.5 C106,43.7304474 97.2695526,35 86.5,35 C75.7304474,35 67,43.7304474 67,54.5 C67,65.2695526 75.7304474,74 86.5,74 Z" id="Oval-192" fill="#CA7D39"></path>
                    <path d="M87,74 C97.7695526,74 106.5,65.2695526 106.5,54.5 C106.5,43.7304474 97.7695526,35 87,35 C87.0000002,35 87,43.7304474 87,54.5 C87,65.2695526 87.0000002,74 87,74 Z" id="Oval-192" fill="#B85426"></path>
                    <circle id="Oval-192" fill="#F68D2F" cx="59" cy="56" r="18"></circle>
                    <path d="M59,74 C68.9411255,74 77,65.9411255 77,56 C77,46.0588745 68.9411255,38 59,38 C59.0000002,38 59,46.0588745 59,56 C59,65.9411255 59.0000002,74 59,74 Z" id="Oval-192" fill="#F76A28"></path>
                    <path d="M59.5,54 C70.2695526,54 79,45.2695526 79,34.5 C79,23.7304474 70.2695526,15 59.5,15 C48.7304474,15 40,23.7304474 40,34.5 C40,45.2695526 48.7304474,54 59.5,54 Z" id="Oval-192" fill="#CA7D39"></path>
                    <path d="M60,54 C70.7695526,54 79.5,45.2695526 79.5,34.5 C79.5,23.7304474 70.7695526,15 60,15 C60.0000002,15 60,23.7304474 60,34.5 C60,45.2695526 60.0000002,54 60,54 Z" id="Oval-192" fill="#B85426"></path>
                    <circle id="Oval-192" fill="#F68D2F" cx="32" cy="36" r="18"></circle>
                    <path d="M32,54 C41.9411255,54 50,45.9411255 50,36 C50,26.0588745 41.9411255,18 32,18 C32.0000002,18 32,26.0588745 32,36 C32,45.9411255 32.0000002,54 32,54 Z" id="Oval-192" fill="#F76A28"></path>
                    <circle id="Oval-192" fill="#F68D2F" cx="19.5" cy="55.5" r="19.5"></circle>
                    <path d="M19.5,75 C30.2695526,75 39,66.2695526 39,55.5 C39,44.7304474 30.2695526,36 19.5,36 C19.5000002,36 19.5,44.7304474 19.5,55.5 C19.5,66.2695526 19.5000002,75 19.5,75 Z" id="Oval-192" fill="#F76A28"></path>
                </g>
            </g>
        </g>
    </g>
</svg>