<?xml version="1.0" encoding="UTF-8" standalone="no"?>
<svg width="62px" height="62px" viewBox="0 0 62 62" version="1.1" xmlns="http://www.w3.org/2000/svg" xmlns:xlink="http://www.w3.org/1999/xlink">
    <!-- Generator: Sketch 3.7 (28169) - http://www.bohemiancoding.com/sketch -->
    <title>Shape</title>
    <desc>Created with Sketch.</desc>
    <defs></defs>
    <g id="Page-1" stroke="none" stroke-width="1" fill="none" fill-rule="evenodd">
        <g id="noun_89808_cc" fill="#000000">
            <g id="Group">
                <path d="M20.7692308,20.3405405 L31.1538462,30.7027027 L20.3846154,41.4486486 L25.3846154,46.0540541 L40.7692308,30.7027027 L25.3846154,15.3513514 L20.7692308,20.3405405 L20.7692308,20.3405405 Z M30.7692308,0 C13.8461538,0 0,13.8162162 0,30.7027027 C0,47.5891892 13.8461538,61.4054054 30.7692308,61.4054054 C47.6923077,61.4054054 61.5384615,47.5891892 61.5384615,30.7027027 C61.5384615,13.8162162 47.6923077,0 30.7692308,0 L30.7692308,0 Z M30.7692308,53.7297297 C18.0769231,53.7297297 7.69230769,43.3675676 7.69230769,30.7027027 C7.69230769,18.0378378 18.0769231,7.67567568 30.7692308,7.67567568 C43.4615385,7.67567568 53.8461538,18.0378378 53.8461538,30.7027027 C53.8461538,43.3675676 43.4615385,53.7297297 30.7692308,53.7297297 L30.7692308,53.7297297 Z" id="Shape"></path>
            </g>
        </g>
    </g>
</svg>