<?xml version="1.0" encoding="UTF-8" standalone="no"?>
<svg width="238px" height="207px" viewBox="0 0 238 207" version="1.1" xmlns="http://www.w3.org/2000/svg" xmlns:xlink="http://www.w3.org/1999/xlink">
    <!-- Generator: Sketch 3.7 (28169) - http://www.bohemiancoding.com/sketch -->
    <title>cart</title>
    <desc>Created with Sketch.</desc>
    <defs>
        <path d="M46.1040892,41.721519 L219.000551,41.721519 C227.284518,41.721519 232.623383,48.3005609 230.928487,56.4007042 L215.06483,132.21533 C213.36848,140.32242 205.272514,146.894515 196.998744,146.894515 L75.5277217,146.894515 L46.1040892,41.721519 Z" id="path-1"></path>
        <mask id="mask-2" maskContentUnits="userSpaceOnUse" maskUnits="objectBoundingBox" x="0" y="0" width="185.138262" height="105.172996" fill="white">
            <use xlink:href="#path-1"></use>
        </mask>
    </defs>
    <g id="Page-1" stroke="none" stroke-width="1" fill="none" fill-rule="evenodd">
        <g id="Desktop-HD-Copy-2" transform="translate(-237.000000, -644.000000)">
            <g id="cart" transform="translate(243.000000, 645.000000)">
                <use id="Rectangle-91" stroke="#FD614E" mask="url(#mask-2)" stroke-width="22" xlink:href="#path-1"></use>
                <ellipse id="Oval-329" fill="#FD614E" cx="95.6877323" cy="192.962025" rx="13.0483271" ry="13.0379747"></ellipse>
                <ellipse id="Oval-329" fill="#FD614E" cx="190.505576" cy="192.962025" rx="13.0483271" ry="13.0379747"></ellipse>
                <path d="M83.5092937,176.881857 L210.078067,176.881857" id="Line" stroke="#FD614E" stroke-width="11" stroke-linecap="round" stroke-linejoin="round"></path>
                <path d="M82.6394052,173.839662 L40.0148699,5.21518987" id="Line" stroke="#FD614E" stroke-width="11" stroke-linecap="round" stroke-linejoin="round"></path>
                <path d="M0,4.78059072 L40.0148699,4.78059072" id="Line" stroke="#FD614E" stroke-width="11" stroke-linecap="round" stroke-linejoin="round"></path>
                <path d="M59.5873606,68.2320675 L220.601347,68.2320675" id="Line" stroke="#FD614E" stroke-width="5" stroke-linecap="square"></path>
                <path d="M63.0669145,94.3080169 L220.601347,94.3080169" id="Line" stroke="#FD614E" stroke-width="5" stroke-linecap="square"></path>
                <path d="M68.2862454,120.383966 L213.557621,120.383966" id="Line" stroke="#FD614E" stroke-width="5" stroke-linecap="square"></path>
                <path d="M89.1635688,46.5021097 L89.1635688,141.244726" id="Line" stroke="#FD614E" stroke-width="5" stroke-linecap="square"></path>
                <path d="M123.089219,46.5021097 L123.089219,140.375527" id="Line" stroke="#FD614E" stroke-width="5" stroke-linecap="square"></path>
                <path d="M190.94052,44.7637131 L190.94052,138.637131" id="Line" stroke="#FD614E" stroke-width="5" stroke-linecap="square"></path>
                <path d="M157.01487,49.978903 L157.01487,140.375527" id="Line" stroke="#FD614E" stroke-width="5" stroke-linecap="square"></path>
            </g>
        </g>
    </g>
</svg>