<?xml version="1.0" encoding="UTF-8" standalone="no"?>
<svg width="238px" height="207px" viewBox="0 0 238 207" version="1.1" xmlns="http://www.w3.org/2000/svg" xmlns:xlink="http://www.w3.org/1999/xlink">
    <!-- Generator: Sketch 3.7.1 (28215) - http://www.bohemiancoding.com/sketch -->
    <title>filledcart</title>
    <desc>Created with Sketch.</desc>
    <defs>
        <path d="M46.1040892,41.721519 L219.000551,41.721519 C227.284518,41.721519 232.623383,48.3005609 230.928487,56.4007042 L215.06483,132.21533 C213.36848,140.32242 205.272514,146.894515 196.998744,146.894515 L75.5277217,146.894515 L46.1040892,41.721519 Z" id="path-1"></path>
        <mask id="mask-2" maskContentUnits="userSpaceOnUse" maskUnits="objectBoundingBox" x="0" y="0" width="185.138262" height="105.172996" fill="white">
            <use xlink:href="#path-1"></use>
        </mask>
    </defs>
    <g id="Page-1" stroke="none" stroke-width="1" fill="none" fill-rule="evenodd">
        <g id="Desktop-HD-Copy-2" transform="translate(-723.000000, -644.000000)">
            <g id="filledcart" transform="translate(729.000000, 645.000000)">
                <g id="orange-middle" transform="translate(77.000000, 75.000000)">
                    <g id="orange" transform="translate(23.000000, 0.000000)">
                        <g id="Group-7" transform="translate(29.000000, 0.000000)">
                            <g id="Group-4">
                                <circle id="Oval-192" fill="#F68D2F" cx="19.5" cy="19.5" r="19.5"></circle>
                                <path d="M19.5,39 C30.2695526,39 39,30.2695526 39,19.5 C39,8.73044738 30.2695526,0 19.5,0 C19.5000002,0 19.5,8.73044738 19.5,19.5 C19.5,30.2695526 19.5000002,39 19.5,39 Z" id="Oval-192" fill="#F76A28"></path>
                            </g>
                        </g>
                        <g id="Group-7" transform="translate(0.000000, 8.000000)">
                            <g id="Group-4">
                                <circle id="Oval-192" fill="#F68D2F" cx="18" cy="18" r="18"></circle>
                                <path d="M18,36 C27.9411255,36 36,27.9411255 36,18 C36,8.0588745 27.9411255,0 18,0 C18.0000002,0 18,8.0588745 18,18 C18,27.9411255 18.0000002,36 18,36 Z" id="Oval-192" fill="#F76A28"></path>
                            </g>
                        </g>
                    </g>
                    <g id="orange" transform="translate(62.000000, 22.000000)">
                        <g id="Group-7" transform="translate(39.000000, 8.000000)">
                            <g id="Group-4">
                                <circle id="Oval-192" fill="#F68D2F" cx="18" cy="18" r="18"></circle>
                                <path d="M18,36 C27.9411255,36 36,27.9411255 36,18 C36,8.0588745 27.9411255,0 18,0 C18.0000002,0 18,8.0588745 18,18 C18,27.9411255 18.0000002,36 18,36 Z" id="Oval-192" fill="#F76A28"></path>
                            </g>
                        </g>
                        <g id="Group-7">
                            <g id="Group-4">
                                <circle id="Oval-192" fill="#F68D2F" cx="19.5" cy="19.5" r="19.5"></circle>
                                <path d="M19.5,39 C30.2695526,39 39,30.2695526 39,19.5 C39,8.73044738 30.2695526,0 19.5,0 C19.5000002,0 19.5,8.73044738 19.5,19.5 C19.5,30.2695526 19.5000002,39 19.5,39 Z" id="Oval-192" fill="#F76A28"></path>
                            </g>
                        </g>
                    </g>
                    <g id="orange" transform="translate(0.000000, 22.000000)">
                        <g id="Group-7" transform="translate(39.000000, 8.000000)">
                            <g id="Group-4">
                                <circle id="Oval-192" fill="#F68D2F" cx="18" cy="18" r="18"></circle>
                                <path d="M18,36 C27.9411255,36 36,27.9411255 36,18 C36,8.0588745 27.9411255,0 18,0 C18.0000002,0 18,8.0588745 18,18 C18,27.9411255 18.0000002,36 18,36 Z" id="Oval-192" fill="#F76A28"></path>
                            </g>
                        </g>
                        <g id="Group-7">
                            <g id="Group-4">
                                <circle id="Oval-192" fill="#F68D2F" cx="19.5" cy="19.5" r="19.5"></circle>
                                <path d="M19.5,39 C30.2695526,39 39,30.2695526 39,19.5 C39,8.73044738 30.2695526,0 19.5,0 C19.5000002,0 19.5,8.73044738 19.5,19.5 C19.5,30.2695526 19.5000002,39 19.5,39 Z" id="Oval-192" fill="#F76A28"></path>
                            </g>
                        </g>
                    </g>
                </g>
                <g id="cart">
                    <use id="Rectangle-91" stroke="#2E4C93" mask="url(#mask-2)" stroke-width="22" xlink:href="#path-1"></use>
                    <ellipse id="Oval-329" fill="#2E4C93" cx="95.6877323" cy="192.962025" rx="13.0483271" ry="13.0379747"></ellipse>
                    <ellipse id="Oval-329" fill="#2E4C93" cx="190.505576" cy="192.962025" rx="13.0483271" ry="13.0379747"></ellipse>
                    <path d="M83.5092937,176.881857 L210.078067,176.881857" id="Line" stroke="#2E4C93" stroke-width="11" stroke-linecap="round" stroke-linejoin="round"></path>
                    <path d="M82.6394052,173.839662 L40.0148699,5.21518987" id="Line" stroke="#2E4C93" stroke-width="11" stroke-linecap="round" stroke-linejoin="round"></path>
                    <path d="M0,4.78059072 L40.0148699,4.78059072" id="Line" stroke="#2E4C93" stroke-width="11" stroke-linecap="round" stroke-linejoin="round"></path>
                    <path d="M59.5873606,68.2320675 L220.601347,68.2320675" id="Line" stroke="#2E4C93" stroke-width="5" stroke-linecap="square"></path>
                    <path d="M63.0669145,94.3080169 L220.601347,94.3080169" id="Line" stroke="#2E4C93" stroke-width="5" stroke-linecap="square"></path>
                    <path d="M68.2862454,120.383966 L213.557621,120.383966" id="Line" stroke="#2E4C93" stroke-width="5" stroke-linecap="square"></path>
                    <path d="M89.1635688,46.5021097 L89.1635688,141.244726" id="Line" stroke="#2E4C93" stroke-width="5" stroke-linecap="square"></path>
                    <path d="M123.089219,46.5021097 L123.089219,140.375527" id="Line" stroke="#2E4C93" stroke-width="5" stroke-linecap="square"></path>
                    <path d="M190.94052,44.7637131 L190.94052,138.637131" id="Line" stroke="#2E4C93" stroke-width="5" stroke-linecap="square"></path>
                    <path d="M157.01487,49.978903 L157.01487,140.375527" id="Line" stroke="#2E4C93" stroke-width="5" stroke-linecap="square"></path>
                </g>
            </g>
        </g>
    </g>
</svg>