<?xml version="1.0" encoding="UTF-8" standalone="no"?>
<svg width="155px" height="316px" viewBox="0 0 155 316" version="1.1" xmlns="http://www.w3.org/2000/svg" xmlns:xlink="http://www.w3.org/1999/xlink">
    <!-- Generator: Sketch 3.7.1 (28215) - http://www.bohemiancoding.com/sketch -->
    <title>Group</title>
    <desc>Created with Sketch.</desc>
    <defs></defs>
    <g id="Page-1" stroke="none" stroke-width="1" fill="none" fill-rule="evenodd">
        <g id="512" transform="translate(-192.000000, -108.000000)">
            <g id="Group" transform="translate(140.000000, 88.000000)">
                <polygon id="Rectangle-6" fill="#4A4A4A" transform="translate(120.706347, 294.218740) rotate(-338.000000) translate(-120.706347, -294.218740) " points="118.644399 294.21874 109.412695 260.967813 132 260.967813 132 294.21874 124.664088 327.469666 118.6444 327.469666"></polygon>
                <path d="M121.219134,330.501854 L127.68376,330.501854 L130.256245,310.853579 L113.878034,310.853579 L116.504368,322.490449 L106.86277,327.651708 C103.923686,329.225034 104.248509,330.501854 107.591479,330.501854 L121.219134,330.501854 Z" id="Combined-Shape" fill="#8B572A" transform="translate(117.555526, 320.677717) scale(-1, 1) rotate(-27.000000) translate(-117.555526, -320.677717) "></path>
                <polygon id="Rectangle-6-Copy" fill="#4A4A4A" points="150.251393 297.250927 135 264 157.587305 264 163.429914 297.250927 150.251393 330.501853 146.425999 330.501854"></polygon>
                <g id="boot-right" transform="translate(152.500000, 326.000000) scale(-1, 1) translate(-152.500000, -326.000000) translate(141.000000, 316.000000)" fill="#8B572A">
                    <path d="M15.0166895,19.6482748 L19.8290067,19.6482748 L22.4014919,0 L6.02328144,0 L9.00582594,13.2151858 L2.31263325,16.7981293 C-0.626450591,18.3714549 -0.301627772,19.6482748 3.04134261,19.6482748 L15.0166895,19.6482748 Z" id="Combined-Shape"></path>
                </g>
                <rect id="Rectangle-364" fill="#FFEFDB" x="100" y="157" width="46" height="29"></rect>
                <path d="M113.306567,198.590403 C114.028127,181.508886 128.477054,167.66158 140.962055,167.66158 C140.962055,167.66158 138.613805,167.66158 140.962055,167.66158 L140.962055,167.66158 C149.093122,167.015739 160.079001,179.627737 164.564568,196.12309 C164.564568,196.12309 162.669403,185.758979 165.003891,198.316787 C167.338379,210.874595 171.92411,276.866837 171.92411,276.866837 L110,276.866837 L113.306567,198.590403 Z" id="Rectangle-1-Copy" fill="#82BD5D"></path>
                <path d="M145.92411,190 C145.92411,190 129.763014,190 113.94146,205.114058 C107.23611,211.519562 105.618068,227.351404 101.762112,236.300972 C96.519777,248.468285 84,253.641975 84,253.641975" id="Line-Copy-3" stroke="#82BD5D" stroke-width="16" stroke-linejoin="round"></path>
                <path d="M195.970285,181.658322 C195.970285,181.658322 179.874651,184.325636 164.053097,199.439693 C148.231543,214.553751 146.230672,235.775159 146.230672,235.775159" id="Line-Copy-3" stroke="#82BD5D" stroke-width="16" stroke-linejoin="round" transform="translate(171.100479, 208.716740) scale(1, -1) translate(-171.100479, -208.716740) "></path>
                <path d="M173.943919,88.0463703 C180.019051,88.0463703 187.347723,79.9364886 187.347723,62.6481732 C187.347723,45.3598577 180.961841,25.642886 174.886709,25.642886 C168.811577,25.642886 163.886709,39.6578348 163.886709,56.9461502 C163.886709,74.2344657 167.868787,88.0463703 173.943919,88.0463703 Z" id="Oval-1052" fill="#62514F" transform="translate(175.617216, 56.844628) rotate(-30.000000) translate(-175.617216, -56.844628) "></path>
                <path d="M130.846333,159.068764 C137.011067,160.036984 159.368773,159.692241 162.414017,159.068764 C185.11772,154.420451 196.309738,144.966472 196.309738,117.996468 C196.309738,114.764961 191.102696,116.910306 189.153595,108.909325 C188.278198,105.315854 190.845459,97.8473587 190.845452,91.0756028 C190.84542,59.4529454 158.99605,32 132.847356,32 C96.4808656,32 67,61.4808656 67,97.8473563 C67,134.213847 121.005407,157.523168 130.846333,159.068764 Z" id="Oval-1050" fill="#FFEFDB"></path>
                <path d="M30.609983,173.088369 C33.1535746,209.462556 80.2084525,211.147318 90.7485459,213.037691 C99.4227624,214.593417 130.470853,101.559676 140.163909,101.559676 C172.597932,101.559676 208.6415,81.7769445 202.255681,67.8546994 C195.869863,53.9324544 180.689994,36.8330677 160.194335,31.415378 C139.698676,25.9976882 134.329528,24.0140117 112.869436,31.415378 C91.4093432,38.8167443 73.4856364,67.2623285 66.3590099,77.8117193 C59.2323834,88.3611101 29.3772411,155.459759 30.609983,173.088369 Z" id="Oval-2" fill="#62514F" transform="translate(116.785161, 119.816697) rotate(-23.000000) translate(-116.785161, -119.816697) "></path>
                <circle id="Oval-1053" fill="#FFEFDB" cx="132" cy="107" r="13"></circle>
                <path d="M179.517461,107.068435 C182.012386,107.068435 184.034922,105.038396 184.034922,102.534217 C184.034922,100.030038 182.012386,98 179.517461,98 C177.022536,98 175,100.030038 175,102.534217 C175,105.038396 177.022536,107.068435 179.517461,107.068435 Z" id="Oval-6-Copy" fill="#62514F"></path>
                <path d="M182.470933,90.0477739 C182.470933,90.0477739 178.308669,89.6661233 173.622457,91.060237 C168.936244,92.4543507 168,93.8691986 168,93.8691986" id="Line" stroke="#62514F" stroke-width="2" stroke-linecap="round"></path>
                <ellipse id="Oval-8-Copy" fill="#FFA094" cx="167.799473" cy="115.662283" rx="12.7994731" ry="6.04562302"></ellipse>
                <ellipse id="Oval-10" fill="#FFEFDB" cx="84.0349222" cy="255.068435" rx="9.03492216" ry="9.06843453"></ellipse>
                <ellipse id="Oval-10-Copy" fill="#FFEFDB" cx="197.034922" cy="236.068435" rx="9.03492216" ry="9.06843453"></ellipse>
                <path d="M177,133 C177,133 179.899024,137.114538 185.404423,136.767793 C190.909822,136.421049 191.272576,135.68093 191.272576,135.68093" id="Line" stroke="#62514F" stroke-width="2" stroke-linecap="round"></path>
            </g>
        </g>
    </g>
</svg>