<?xml version="1.0" encoding="UTF-8" standalone="no"?>
<svg width="113px" height="147px" viewBox="0 0 113 147" version="1.1" xmlns="http://www.w3.org/2000/svg" xmlns:xlink="http://www.w3.org/1999/xlink">
    <!-- Generator: Sketch 3.7.1 (28215) - http://www.bohemiancoding.com/sketch -->
    <title>GroceryBag</title>
    <desc>Created with Sketch.</desc>
    <defs></defs>
    <g id="Page-1" stroke="none" stroke-width="1" fill="none" fill-rule="evenodd">
        <g id="Desktop-HD-Copy-3" transform="translate(-256.000000, -705.000000)">
            <g id="GroceryBag" transform="translate(256.000000, 711.000000)">
                <path d="M61,75 C61,75 62.2411683,-4.25713297e-15 78,0 C93.7588317,4.21246712e-15 95,75 95,75" id="Line" stroke="#2E4C93" stroke-width="12" stroke-linecap="square"></path>
                <g id="orange-middle" transform="translate(0.000000, 19.000000)">
                    <circle id="Oval-192" fill="#F68D2F" cx="56.5" cy="19.5" r="19.5"></circle>
                    <path d="M57,39 C67.7695526,39 76.5,30.2695526 76.5,19.5 C76.5,8.73044738 67.7695526,0 57,0 C57.0000002,0 57,8.73044738 57,19.5 C57,30.2695526 57.0000002,39 57,39 Z" id="Oval-192" fill="#F76A28"></path>
                    <circle id="Oval-192" fill="#F68D2F" cx="38.5" cy="31" r="18"></circle>
                    <path d="M38.5,49 C48.4411255,49 56.5,40.9411255 56.5,31 C56.5,21.0588745 48.4411255,13 38.5,13 C38.5000002,13 38.5,21.0588745 38.5,31 C38.5,40.9411255 38.5000002,49 38.5,49 Z" id="Oval-192" fill="#F76A28"></path>
                    <circle id="Oval-192" fill="#F68D2F" cx="95" cy="52" r="18"></circle>
                    <path d="M95,70 C104.941125,70 113,61.9411255 113,52 C113,42.0588745 104.941125,34 95,34 C95.0000002,34 95,42.0588745 95,52 C95,61.9411255 95.0000002,70 95,70 Z" id="Oval-192" fill="#F76A28"></path>
                    <circle id="Oval-192" fill="#F68D2F" cx="76.5" cy="39.5" r="19.5"></circle>
                    <path d="M77,59 C87.7695526,59 96.5,50.2695526 96.5,39.5 C96.5,28.7304474 87.7695526,20 77,20 C77.0000002,20 77,28.7304474 77,39.5 C77,50.2695526 77.0000002,59 77,59 Z" id="Oval-192" fill="#F76A28"></path>
                    <circle id="Oval-192" fill="#F68D2F" cx="57" cy="57" r="18"></circle>
                    <path d="M57,75 C66.9411255,75 75,66.9411255 75,57 C75,47.0588745 66.9411255,39 57,39 C57.0000002,39 57,47.0588745 57,57 C57,66.9411255 57.0000002,75 57,75 Z" id="Oval-192" fill="#F76A28"></path>
                    <circle id="Oval-192" fill="#F68D2F" cx="19.5" cy="50.5" r="19.5"></circle>
                    <path d="M19.5,70 C30.2695526,70 39,61.2695526 39,50.5 C39,39.7304474 30.2695526,31 19.5,31 C19.5000002,31 19.5,39.7304474 19.5,50.5 C19.5,61.2695526 19.5000002,70 19.5,70 Z" id="Oval-192" fill="#F76A28"></path>
                </g>
                <path d="M17,75 C17,75 18.2411683,-4.25713297e-15 34,0 C49.7588317,4.21246712e-15 51,75 51,75" id="Line" stroke="#2E4C93" stroke-width="12" stroke-linecap="square"></path>
                <rect id="Rectangle-221" fill="#2E4C93" x="0" y="75" width="113" height="66"></rect>
            </g>
        </g>
    </g>
</svg>