<?xml version="1.0" encoding="UTF-8" standalone="no"?>
<svg width="137px" height="66px" viewBox="0 0 137 66" version="1.1" xmlns="http://www.w3.org/2000/svg" xmlns:xlink="http://www.w3.org/1999/xlink">
    <!-- Generator: Sketch 3.7.1 (28215) - http://www.bohemiancoding.com/sketch -->
    <title>orange-middle</title>
    <desc>Created with Sketch.</desc>
    <defs></defs>
    <g id="Page-1" stroke="none" stroke-width="1" fill="none" fill-rule="evenodd">
        <g id="Desktop-HD-Copy-2" transform="translate(-1197.000000, -504.000000)">
            <g id="orange-middle" transform="translate(1197.000000, 504.000000)">
                <g id="orange" transform="translate(23.000000, 0.000000)">
                    <g id="Group-7" transform="translate(29.000000, 0.000000)">
                        <g id="Group-4">
                            <circle id="Oval-192" fill="#F68D2F" cx="19.5" cy="19.5" r="19.5"></circle>
                            <path d="M19.5,39 C30.2695526,39 39,30.2695526 39,19.5 C39,8.73044738 30.2695526,0 19.5,0 C19.5000002,0 19.5,8.73044738 19.5,19.5 C19.5,30.2695526 19.5000002,39 19.5,39 Z" id="Oval-192" fill="#F76A28"></path>
                        </g>
                    </g>
                    <g id="Group-7" transform="translate(0.000000, 8.000000)">
                        <g id="Group-4">
                            <circle id="Oval-192" fill="#F68D2F" cx="18" cy="18" r="18"></circle>
                            <path d="M18,36 C27.9411255,36 36,27.9411255 36,18 C36,8.0588745 27.9411255,0 18,0 C18.0000002,0 18,8.0588745 18,18 C18,27.9411255 18.0000002,36 18,36 Z" id="Oval-192" fill="#F76A28"></path>
                        </g>
                    </g>
                </g>
                <g id="orange" transform="translate(62.000000, 22.000000)">
                    <g id="Group-7" transform="translate(39.000000, 8.000000)">
                        <g id="Group-4">
                            <circle id="Oval-192" fill="#F68D2F" cx="18" cy="18" r="18"></circle>
                            <path d="M18,36 C27.9411255,36 36,27.9411255 36,18 C36,8.0588745 27.9411255,0 18,0 C18.0000002,0 18,8.0588745 18,18 C18,27.9411255 18.0000002,36 18,36 Z" id="Oval-192" fill="#F76A28"></path>
                        </g>
                    </g>
                    <g id="Group-7">
                        <g id="Group-4">
                            <circle id="Oval-192" fill="#F68D2F" cx="19.5" cy="19.5" r="19.5"></circle>
                            <path d="M19.5,39 C30.2695526,39 39,30.2695526 39,19.5 C39,8.73044738 30.2695526,0 19.5,0 C19.5000002,0 19.5,8.73044738 19.5,19.5 C19.5,30.2695526 19.5000002,39 19.5,39 Z" id="Oval-192" fill="#F76A28"></path>
                        </g>
                    </g>
                </g>
                <g id="orange" transform="translate(0.000000, 22.000000)">
                    <g id="Group-7" transform="translate(39.000000, 8.000000)">
                        <g id="Group-4">
                            <circle id="Oval-192" fill="#F68D2F" cx="18" cy="18" r="18"></circle>
                            <path d="M18,36 C27.9411255,36 36,27.9411255 36,18 C36,8.0588745 27.9411255,0 18,0 C18.0000002,0 18,8.0588745 18,18 C18,27.9411255 18.0000002,36 18,36 Z" id="Oval-192" fill="#F76A28"></path>
                        </g>
                    </g>
                    <g id="Group-7">
                        <g id="Group-4">
                            <circle id="Oval-192" fill="#F68D2F" cx="19.5" cy="19.5" r="19.5"></circle>
                            <path d="M19.5,39 C30.2695526,39 39,30.2695526 39,19.5 C39,8.73044738 30.2695526,0 19.5,0 C19.5000002,0 19.5,8.73044738 19.5,19.5 C19.5,30.2695526 19.5000002,39 19.5,39 Z" id="Oval-192" fill="#F76A28"></path>
                        </g>
                    </g>
                </g>
            </g>
        </g>
    </g>
</svg>