<?xml version="1.0" encoding="UTF-8" standalone="no"?>
<svg width="1440px" height="719px" viewBox="0 0 1440 719" version="1.1" xmlns="http://www.w3.org/2000/svg" xmlns:xlink="http://www.w3.org/1999/xlink">
    <!-- Generator: Sketch 3.7 (28169) - http://www.bohemiancoding.com/sketch -->
    <title>shelf-back</title>
    <desc>Created with Sketch.</desc>
    <defs></defs>
    <g id="Page-1" stroke="none" stroke-width="1" fill="none" fill-rule="evenodd">
        <g id="Desktop-HD-Copy-2" transform="translate(0.000000, -133.000000)">
            <g id="shelf-back" transform="translate(0.000000, 133.000000)">
                <rect id="Rectangle-102" fill="#FCF3E8" x="-4.54747351e-13" y="0" width="1440" height="719"></rect>
                <path d="M148.5,613 C166.449254,613 181,598.449254 181,580.5 C181,562.550746 166.449254,548 148.5,548 C130.550746,548 116,562.550746 116,580.5 C116,598.449254 130.550746,613 148.5,613 Z M111.5,675 C129.449254,675 144,660.449254 144,642.5 C144,624.550746 129.449254,610 111.5,610 C93.5507456,610 79,624.550746 79,642.5 C79,660.449254 93.5507456,675 111.5,675 Z M184.5,675 C202.449254,675 217,660.449254 217,642.5 C217,624.550746 202.449254,610 184.5,610 C166.550746,610 152,624.550746 152,642.5 C152,660.449254 166.550746,675 184.5,675 Z" id="Combined-Shape" fill="#F5E3D7"></path>
                <path d="M328.5,615 C346.449254,615 361,600.449254 361,582.5 C361,564.550746 346.449254,550 328.5,550 C310.550746,550 296,564.550746 296,582.5 C296,600.449254 310.550746,615 328.5,615 Z M291.5,677 C309.449254,677 324,662.449254 324,644.5 C324,626.550746 309.449254,612 291.5,612 C273.550746,612 259,626.550746 259,644.5 C259,662.449254 273.550746,677 291.5,677 Z M364.5,677 C382.449254,677 397,662.449254 397,644.5 C397,626.550746 382.449254,612 364.5,612 C346.550746,612 332,626.550746 332,644.5 C332,662.449254 346.550746,677 364.5,677 Z" id="Combined-Shape" fill="#F5E3D7"></path>
                <path d="M504.5,613 C522.449254,613 537,598.449254 537,580.5 C537,562.550746 522.449254,548 504.5,548 C486.550746,548 472,562.550746 472,580.5 C472,598.449254 486.550746,613 504.5,613 Z M467.5,675 C485.449254,675 500,660.449254 500,642.5 C500,624.550746 485.449254,610 467.5,610 C449.550746,610 435,624.550746 435,642.5 C435,660.449254 449.550746,675 467.5,675 Z M540.5,675 C558.449254,675 573,660.449254 573,642.5 C573,624.550746 558.449254,610 540.5,610 C522.550746,610 508,624.550746 508,642.5 C508,660.449254 522.550746,675 540.5,675 Z" id="Combined-Shape" fill="#F5E3D7"></path>
                <path d="M1164.5,391 C1182.44925,391 1197,376.449254 1197,358.5 C1197,340.550746 1182.44925,326 1164.5,326 C1146.55075,326 1132,340.550746 1132,358.5 C1132,376.449254 1146.55075,391 1164.5,391 Z M1127.5,453 C1145.44925,453 1160,438.449254 1160,420.5 C1160,402.550746 1145.44925,388 1127.5,388 C1109.55075,388 1095,402.550746 1095,420.5 C1095,438.449254 1109.55075,453 1127.5,453 Z M1200.5,453 C1218.44925,453 1233,438.449254 1233,420.5 C1233,402.550746 1218.44925,388 1200.5,388 C1182.55075,388 1168,402.550746 1168,420.5 C1168,438.449254 1182.55075,453 1200.5,453 Z" id="Combined-Shape" fill="#F5E3D7"></path>
                <path d="M1340.5,389 C1358.44925,389 1373,374.449254 1373,356.5 C1373,338.550746 1358.44925,324 1340.5,324 C1322.55075,324 1308,338.550746 1308,356.5 C1308,374.449254 1322.55075,389 1340.5,389 Z M1303.5,451 C1321.44925,451 1336,436.449254 1336,418.5 C1336,400.550746 1321.44925,386 1303.5,386 C1285.55075,386 1271,400.550746 1271,418.5 C1271,436.449254 1285.55075,451 1303.5,451 Z M1376.5,451 C1394.44925,451 1409,436.449254 1409,418.5 C1409,400.550746 1394.44925,386 1376.5,386 C1358.55075,386 1344,400.550746 1344,418.5 C1344,436.449254 1358.55075,451 1376.5,451 Z" id="Combined-Shape" fill="#F5E3D7"></path>
                <rect id="Rectangle-103" fill="#F5E3D7" x="0" y="0" width="1440" height="44"></rect>
                <rect id="Rectangle-103" fill="#F5E3D7" x="0" y="675" width="1440" height="44"></rect>
                <rect id="Rectangle-103" fill="#F5E3D7" x="0" y="225" width="1440" height="44"></rect>
                <rect id="Rectangle-103" fill="#F5E3D7" x="0" y="450" width="1440" height="44"></rect>
                <path d="M129,74 L165,74 L165,98 L129,98 L129,74 Z M97,119.994829 C97,107.84742 106.854436,98 119.002038,98 L173.997962,98 C186.149352,98 196,107.846623 196,119.994829 L196,203.005171 C196,215.15258 186.145564,225 173.997962,225 L119.002038,225 C106.850648,225 97,215.153377 97,203.005171 L97,119.994829 Z" id="Combined-Shape" fill="#F5E3D7"></path>
                <path d="M495.89899,74 L511.535354,74 L511.535354,98 L495.89899,98 L495.89899,74 Z M482,110.994395 C482,103.817789 487.82153,98 495.003508,98 L511.996492,98 C519.178131,98 525,103.828785 525,110.994395 L525,212.005605 C525,219.182211 519.17847,225 511.996492,225 L495.003508,225 C487.821869,225 482,219.171215 482,212.005605 L482,110.994395 Z" id="Combined-Shape" fill="#F5E3D7"></path>
                <path d="M554.89899,74 L570.535354,74 L570.535354,98 L554.89899,98 L554.89899,74 Z M541,110.994395 C541,103.817789 546.82153,98 554.003508,98 L570.996492,98 C578.178131,98 584,103.828785 584,110.994395 L584,212.005605 C584,219.182211 578.17847,225 570.996492,225 L554.003508,225 C546.821869,225 541,219.171215 541,212.005605 L541,110.994395 Z" id="Combined-Shape" fill="#F5E3D7"></path>
                <path d="M613.89899,74 L629.535354,74 L629.535354,98 L613.89899,98 L613.89899,74 Z M600,110.994395 C600,103.817789 605.82153,98 613.003508,98 L629.996492,98 C637.178131,98 643,103.828785 643,110.994395 L643,212.005605 C643,219.182211 637.17847,225 629.996492,225 L613.003508,225 C605.821869,225 600,219.171215 600,212.005605 L600,110.994395 Z" id="Combined-Shape" fill="#F5E3D7"></path>
                <path d="M672.89899,74 L688.535354,74 L688.535354,98 L672.89899,98 L672.89899,74 Z M659,110.994395 C659,103.817789 664.82153,98 672.003508,98 L688.996492,98 C696.178131,98 702,103.828785 702,110.994395 L702,212.005605 C702,219.182211 696.17847,225 688.996492,225 L672.003508,225 C664.821869,225 659,219.171215 659,212.005605 L659,110.994395 Z" id="Combined-Shape" fill="#F5E3D7"></path>
                <path d="M731.89899,74 L747.535354,74 L747.535354,98 L731.89899,98 L731.89899,74 Z M718,110.994395 C718,103.817789 723.82153,98 731.003508,98 L747.996492,98 C755.178131,98 761,103.828785 761,110.994395 L761,212.005605 C761,219.182211 755.17847,225 747.996492,225 L731.003508,225 C723.821869,225 718,219.171215 718,212.005605 L718,110.994395 Z" id="Combined-Shape" fill="#F5E3D7"></path>
                <path d="M793.89899,74 L809.535354,74 L809.535354,98 L793.89899,98 L793.89899,74 Z M780,110.994395 C780,103.817789 785.82153,98 793.003508,98 L809.996492,98 C817.178131,98 823,103.828785 823,110.994395 L823,212.005605 C823,219.182211 817.17847,225 809.996492,225 L793.003508,225 C785.821869,225 780,219.171215 780,212.005605 L780,110.994395 Z" id="Combined-Shape" fill="#F5E3D7"></path>
                <path d="M1253.9798,74 L1278.70707,74 L1278.70707,98 L1253.9798,98 L1253.9798,74 Z M1232,110.994395 C1232,103.817789 1237.82704,98 1244.99046,98 L1287.00954,98 C1294.18397,98 1300,103.828785 1300,110.994395 L1300,212.005605 C1300,219.182211 1294.17296,225 1287.00954,225 L1244.99046,225 C1237.81603,225 1232,219.171215 1232,212.005605 L1232,110.994395 Z" id="Combined-Shape" fill="#F5E3D7"></path>
                <path d="M1356.9798,74 L1381.70707,74 L1381.70707,98 L1356.9798,98 L1356.9798,74 Z M1335,110.994395 C1335,103.817789 1340.82704,98 1347.99046,98 L1390.00954,98 C1397.18397,98 1403,103.828785 1403,110.994395 L1403,212.005605 C1403,219.182211 1397.17296,225 1390.00954,225 L1347.99046,225 C1340.81603,225 1335,219.171215 1335,212.005605 L1335,110.994395 Z" id="Combined-Shape" fill="#F5E3D7"></path>
                <path d="M261,74 L297,74 L297,98 L261,98 L261,74 Z M229,119.994829 C229,107.84742 238.854436,98 251.002038,98 L305.997962,98 C318.149352,98 328,107.846623 328,119.994829 L328,203.005171 C328,215.15258 318.145564,225 305.997962,225 L251.002038,225 C238.850648,225 229,215.153377 229,203.005171 L229,119.994829 Z" id="Combined-Shape" fill="#F5E3D7"></path>
                <path d="M393,74 L429,74 L429,98 L393,98 L393,74 Z M361,119.994829 C361,107.84742 370.854436,98 383.002038,98 L437.997962,98 C450.149352,98 460,107.846623 460,119.994829 L460,203.005171 C460,215.15258 450.145564,225 437.997962,225 L383.002038,225 C370.850648,225 361,215.153377 361,203.005171 L361,119.994829 Z" id="Combined-Shape" fill="#F5E3D7"></path>
                <path d="M880,74 L916,74 L916,98 L880,98 L880,74 Z M848,119.994829 C848,107.84742 857.854436,98 870.002038,98 L924.997962,98 C937.149352,98 947,107.846623 947,119.994829 L947,203.005171 C947,215.15258 937.145564,225 924.997962,225 L870.002038,225 C857.850648,225 848,215.153377 848,203.005171 L848,119.994829 Z" id="Combined-Shape" fill="#F5E3D7"></path>
                <path d="M1003,74 L1039,74 L1039,98 L1003,98 L1003,74 Z M971,119.994829 C971,107.84742 980.854436,98 993.002038,98 L1047.99796,98 C1060.14935,98 1070,107.846623 1070,119.994829 L1070,203.005171 C1070,215.15258 1060.14556,225 1047.99796,225 L993.002038,225 C980.850648,225 971,215.153377 971,203.005171 L971,119.994829 Z" id="Combined-Shape" fill="#F5E3D7"></path>
                <path d="M1127,74 L1163,74 L1163,98 L1127,98 L1127,74 Z M1095,119.994829 C1095,107.84742 1104.85444,98 1117.00204,98 L1171.99796,98 C1184.14935,98 1194,107.846623 1194,119.994829 L1194,203.005171 C1194,215.15258 1184.14556,225 1171.99796,225 L1117.00204,225 C1104.85065,225 1095,215.153377 1095,203.005171 L1095,119.994829 Z" id="Combined-Shape" fill="#F5E3D7"></path>
                <path d="M639,524 L675,524 L675,548 L639,548 L639,524 Z M607,569.994829 C607,557.84742 616.854436,548 629.002038,548 L683.997962,548 C696.149352,548 706,557.846623 706,569.994829 L706,653.005171 C706,665.15258 696.145564,675 683.997962,675 L629.002038,675 C616.850648,675 607,665.153377 607,653.005171 L607,569.994829 Z" id="Combined-Shape" fill="#F5E3D7"></path>
                <path d="M762,524 L798,524 L798,548 L762,548 L762,524 Z M730,569.994829 C730,557.84742 739.854436,548 752.002038,548 L806.997962,548 C819.149352,548 829,557.846623 829,569.994829 L829,653.005171 C829,665.15258 819.145564,675 806.997962,675 L752.002038,675 C739.850648,675 730,665.153377 730,653.005171 L730,569.994829 Z" id="Combined-Shape" fill="#F5E3D7"></path>
                <path d="M886,524 L922,524 L922,548 L886,548 L886,524 Z M854,569.994829 C854,557.84742 863.854436,548 876.002038,548 L930.997962,548 C943.149352,548 953,557.846623 953,569.994829 L953,653.005171 C953,665.15258 943.145564,675 930.997962,675 L876.002038,675 C863.850648,675 854,665.153377 854,653.005171 L854,569.994829 Z" id="Combined-Shape" fill="#F5E3D7"></path>
                <path d="M92,346 L137.882353,346 L137.882353,391.882353 L92,391.882353 L92,346 Z M150.117647,346 L196,346 L196,391.882353 L150.117647,391.882353 L150.117647,346 Z M92,404.117647 L137.882353,404.117647 L137.882353,450 L92,450 L92,404.117647 Z M150.117647,404.117647 L196,404.117647 L196,450 L150.117647,450 L150.117647,404.117647 Z" id="Combined-Shape" fill="#F5E3D7"></path>
                <path d="M408,346 L453.882353,346 L453.882353,391.882353 L408,391.882353 L408,346 Z M466.117647,346 L512,346 L512,391.882353 L466.117647,391.882353 L466.117647,346 Z M408,404.117647 L453.882353,404.117647 L453.882353,450 L408,450 L408,404.117647 Z M466.117647,404.117647 L512,404.117647 L512,450 L466.117647,450 L466.117647,404.117647 Z" id="Combined-Shape" fill="#F5E3D7"></path>
                <path d="M1038,571 L1083.88235,571 L1083.88235,616.882353 L1038,616.882353 L1038,571 Z M1096.11765,571 L1142,571 L1142,616.882353 L1096.11765,616.882353 L1096.11765,571 Z M1038,629.117647 L1083.88235,629.117647 L1083.88235,675 L1038,675 L1038,629.117647 Z M1096.11765,629.117647 L1142,629.117647 L1142,675 L1096.11765,675 L1096.11765,629.117647 Z" id="Combined-Shape" fill="#F5E3D7"></path>
                <path d="M253,346 L298.882353,346 L298.882353,391.882353 L253,391.882353 L253,346 Z M311.117647,346 L357,346 L357,391.882353 L311.117647,391.882353 L311.117647,346 Z M253,404.117647 L298.882353,404.117647 L298.882353,450 L253,450 L253,404.117647 Z M311.117647,404.117647 L357,404.117647 L357,450 L311.117647,450 L311.117647,404.117647 Z" id="Combined-Shape" fill="#F5E3D7"></path>
                <path d="M630.785311,340.563467 L631.132935,340.563467 C631.060878,340.381744 630.990036,340.19522 630.920458,340.004045 C630.883668,340.201049 630.838657,340.38769 630.785311,340.563467 Z M624.234583,340.563467 L623.992095,340.563467 C610.745867,340.563467 600,351.31079 600,364.568286 L600,425.558647 C600,438.81382 610.741627,449.563467 623.992095,449.563467 L646.007905,449.563467 C659.254133,449.563467 670,438.816143 670,425.558647 L670,364.568286 C670,351.318394 659.26693,340.572032 646.023741,340.563472 C649.323011,338.051638 653.29441,333.249687 656.75833,327.25 C662.55732,317.205855 664.738067,307.608392 661.629165,305.813467 C658.520263,304.018541 651.29899,310.705855 645.5,320.75 C643.831928,323.639185 642.463236,326.491411 641.433704,329.131604 C641.561368,327.489311 641.629165,325.770235 641.629165,324 C641.629165,312.40202 638.719016,303 635.129165,303 C631.539314,303 628.629165,312.40202 628.629165,324 C628.629165,325.770235 628.696962,327.489311 628.824626,329.131604 C627.795094,326.491411 626.426402,323.639185 624.75833,320.75 C618.95934,310.705855 611.738067,304.018541 608.629165,305.813467 C605.520263,307.608392 607.70101,317.205855 613.5,327.25 C616.963918,333.249683 620.935314,338.051632 624.234583,340.563467 Z M639.125395,340.563467 L639.473019,340.563467 C639.419673,340.38769 639.374662,340.201049 639.337872,340.004045 C639.268294,340.19522 639.197453,340.381744 639.125395,340.563467 Z" id="Combined-Shape" fill="#F5E3D7"></path>
                <path d="M878.785311,340.563467 L879.132935,340.563467 C879.060878,340.381744 878.990036,340.19522 878.920458,340.004045 C878.883668,340.201049 878.838657,340.38769 878.785311,340.563467 Z M872.234583,340.563467 L871.992095,340.563467 C858.745867,340.563467 848,351.31079 848,364.568286 L848,425.558647 C848,438.81382 858.741627,449.563467 871.992095,449.563467 L894.007905,449.563467 C907.254133,449.563467 918,438.816143 918,425.558647 L918,364.568286 C918,351.318394 907.26693,340.572032 894.023741,340.563472 C897.323011,338.051638 901.29441,333.249687 904.75833,327.25 C910.55732,317.205855 912.738067,307.608392 909.629165,305.813467 C906.520263,304.018541 899.29899,310.705855 893.5,320.75 C891.831928,323.639185 890.463236,326.491411 889.433704,329.131604 C889.561368,327.489311 889.629165,325.770235 889.629165,324 C889.629165,312.40202 886.719016,303 883.129165,303 C879.539314,303 876.629165,312.40202 876.629165,324 C876.629165,325.770235 876.696962,327.489311 876.824626,329.131604 C875.795094,326.491411 874.426402,323.639185 872.75833,320.75 C866.95934,310.705855 859.738067,304.018541 856.629165,305.813467 C853.520263,307.608392 855.70101,317.205855 861.5,327.25 C864.963918,333.249683 868.935314,338.051632 872.234583,340.563467 Z M887.125395,340.563467 L887.473019,340.563467 C887.419673,340.38769 887.374662,340.201049 887.337872,340.004045 C887.268294,340.19522 887.197453,340.381744 887.125395,340.563467 Z" id="Combined-Shape" fill="#F5E3D7"></path>
                <path d="M750.785311,340.563467 L751.132935,340.563467 C751.060878,340.381744 750.990036,340.19522 750.920458,340.004045 C750.883668,340.201049 750.838657,340.38769 750.785311,340.563467 Z M744.234583,340.563467 L743.992095,340.563467 C730.745867,340.563467 720,351.31079 720,364.568286 L720,425.558647 C720,438.81382 730.741627,449.563467 743.992095,449.563467 L766.007905,449.563467 C779.254133,449.563467 790,438.816143 790,425.558647 L790,364.568286 C790,351.318394 779.26693,340.572032 766.023741,340.563472 C769.323011,338.051638 773.29441,333.249687 776.75833,327.25 C782.55732,317.205855 784.738067,307.608392 781.629165,305.813467 C778.520263,304.018541 771.29899,310.705855 765.5,320.75 C763.831928,323.639185 762.463236,326.491411 761.433704,329.131604 C761.561368,327.489311 761.629165,325.770235 761.629165,324 C761.629165,312.40202 758.719016,303 755.129165,303 C751.539314,303 748.629165,312.40202 748.629165,324 C748.629165,325.770235 748.696962,327.489311 748.824626,329.131604 C747.795094,326.491411 746.426402,323.639185 744.75833,320.75 C738.95934,310.705855 731.738067,304.018541 728.629165,305.813467 C725.520263,307.608392 727.70101,317.205855 733.5,327.25 C736.963918,333.249683 740.935314,338.051632 744.234583,340.563467 Z M759.125395,340.563467 L759.473019,340.563467 C759.419673,340.38769 759.374662,340.201049 759.337872,340.004045 C759.268294,340.19522 759.197453,340.381744 759.125395,340.563467 Z" id="Combined-Shape" fill="#F5E3D7"></path>
                <path d="M1001.78531,340.563467 L1002.13294,340.563467 C1002.06088,340.381744 1001.99004,340.19522 1001.92046,340.004045 C1001.88367,340.201049 1001.83866,340.38769 1001.78531,340.563467 Z M995.234583,340.563467 L994.992095,340.563467 C981.745867,340.563467 971,351.31079 971,364.568286 L971,425.558647 C971,438.81382 981.741627,449.563467 994.992095,449.563467 L1017.00791,449.563467 C1030.25413,449.563467 1041,438.816143 1041,425.558647 L1041,364.568286 C1041,351.318394 1030.26693,340.572032 1017.02374,340.563472 C1020.32301,338.051638 1024.29441,333.249687 1027.75833,327.25 C1033.55732,317.205855 1035.73807,307.608392 1032.62917,305.813467 C1029.52026,304.018541 1022.29899,310.705855 1016.5,320.75 C1014.83193,323.639185 1013.46324,326.491411 1012.4337,329.131604 C1012.56137,327.489311 1012.62917,325.770235 1012.62917,324 C1012.62917,312.40202 1009.71902,303 1006.12917,303 C1002.53931,303 999.629165,312.40202 999.629165,324 C999.629165,325.770235 999.696962,327.489311 999.824626,329.131604 C998.795094,326.491411 997.426402,323.639185 995.75833,320.75 C989.95934,310.705855 982.738067,304.018541 979.629165,305.813467 C976.520263,307.608392 978.70101,317.205855 984.5,327.25 C987.963918,333.249683 991.935314,338.051632 995.234583,340.563467 Z M1010.1254,340.563467 L1010.47302,340.563467 C1010.41967,340.38769 1010.37466,340.201049 1010.33787,340.004045 C1010.26829,340.19522 1010.19745,340.381744 1010.1254,340.563467 Z" id="Combined-Shape" fill="#F5E3D7"></path>
                <path d="M1240.78531,567.563467 L1241.13294,567.563467 C1241.06088,567.381744 1240.99004,567.19522 1240.92046,567.004045 C1240.88367,567.201049 1240.83866,567.38769 1240.78531,567.563467 Z M1234.23458,567.563467 L1233.99209,567.563467 C1220.74587,567.563467 1210,578.31079 1210,591.568286 L1210,652.558647 C1210,665.81382 1220.74163,676.563467 1233.99209,676.563467 L1256.00791,676.563467 C1269.25413,676.563467 1280,665.816143 1280,652.558647 L1280,591.568286 C1280,578.318394 1269.26693,567.572032 1256.02374,567.563472 C1259.32301,565.051638 1263.29441,560.249687 1266.75833,554.25 C1272.55732,544.205855 1274.73807,534.608392 1271.62917,532.813467 C1268.52026,531.018541 1261.29899,537.705855 1255.5,547.75 C1253.83193,550.639185 1252.46324,553.491411 1251.4337,556.131604 C1251.56137,554.489311 1251.62917,552.770235 1251.62917,551 C1251.62917,539.40202 1248.71902,530 1245.12917,530 C1241.53931,530 1238.62917,539.40202 1238.62917,551 C1238.62917,552.770235 1238.69696,554.489311 1238.82463,556.131604 C1237.79509,553.491411 1236.4264,550.639185 1234.75833,547.75 C1228.95934,537.705855 1221.73807,531.018541 1218.62917,532.813467 C1215.52026,534.608392 1217.70101,544.205855 1223.5,554.25 C1226.96392,560.249683 1230.93531,565.051632 1234.23458,567.563467 Z M1249.1254,567.563467 L1249.47302,567.563467 C1249.41967,567.38769 1249.37466,567.201049 1249.33787,567.004045 C1249.26829,567.19522 1249.19745,567.381744 1249.1254,567.563467 Z" id="Combined-Shape" fill="#F5E3D7"></path>
                <path d="M1363.78531,567.563467 L1364.13294,567.563467 C1364.06088,567.381744 1363.99004,567.19522 1363.92046,567.004045 C1363.88367,567.201049 1363.83866,567.38769 1363.78531,567.563467 Z M1357.23458,567.563467 L1356.99209,567.563467 C1343.74587,567.563467 1333,578.31079 1333,591.568286 L1333,652.558647 C1333,665.81382 1343.74163,676.563467 1356.99209,676.563467 L1379.00791,676.563467 C1392.25413,676.563467 1403,665.816143 1403,652.558647 L1403,591.568286 C1403,578.318394 1392.26693,567.572032 1379.02374,567.563472 C1382.32301,565.051638 1386.29441,560.249687 1389.75833,554.25 C1395.55732,544.205855 1397.73807,534.608392 1394.62917,532.813467 C1391.52026,531.018541 1384.29899,537.705855 1378.5,547.75 C1376.83193,550.639185 1375.46324,553.491411 1374.4337,556.131604 C1374.56137,554.489311 1374.62917,552.770235 1374.62917,551 C1374.62917,539.40202 1371.71902,530 1368.12917,530 C1364.53931,530 1361.62917,539.40202 1361.62917,551 C1361.62917,552.770235 1361.69696,554.489311 1361.82463,556.131604 C1360.79509,553.491411 1359.4264,550.639185 1357.75833,547.75 C1351.95934,537.705855 1344.73807,531.018541 1341.62917,532.813467 C1338.52026,534.608392 1340.70101,544.205855 1346.5,554.25 C1349.96392,560.249683 1353.93531,565.051632 1357.23458,567.563467 Z M1372.1254,567.563467 L1372.47302,567.563467 C1372.41967,567.38769 1372.37466,567.201049 1372.33787,567.004045 C1372.26829,567.19522 1372.19745,567.381744 1372.1254,567.563467 Z" id="Combined-Shape" fill="#F5E3D7"></path>
            </g>
        </g>
    </g>
</svg>