<?xml version="1.0" encoding="UTF-8" standalone="no"?>
<svg width="87px" height="51px" viewBox="0 0 87 51" version="1.1" xmlns="http://www.w3.org/2000/svg" xmlns:xlink="http://www.w3.org/1999/xlink">
    <!-- Generator: Sketch 3.6.1 (26313) - http://www.bohemiancoding.com/sketch -->
    <title>cloud</title>
    <desc>Created with Sketch.</desc>
    <defs></defs>
    <g id="Page-1" stroke="none" stroke-width="1" fill="none" fill-rule="evenodd">
        <g id="Desktop-HD" transform="translate(-584.000000, -359.000000)" fill="#FFFFFF">
            <g id="cloud" transform="translate(584.000000, 359.000000)">
                <path d="M47.073908,50.6023733 C53.2524695,50.6023733 70.7876093,52.0365945 75.1162171,48.1885606 C80.3346991,43.5494488 71.7483357,32.9391421 71.7483357,25.3011867 C71.7483357,11.3277271 60.7012181,0 47.073908,0 C33.4465979,0 22.3994804,11.3277271 22.3994804,25.3011867 C22.3994804,39.2746462 33.4465979,50.6023733 47.073908,50.6023733 Z" id="Oval-181"></path>
                <path d="M22.3994804,50.6023733 C34.7703718,50.6023733 59.0010285,52.8499961 59.0010285,43.633459 C59.0010285,34.4169218 34.7703718,17.2263399 22.3994804,17.2263399 C10.028589,17.2263399 0,24.6978194 0,33.9143566 C0,43.1308937 10.028589,50.6023733 22.3994804,50.6023733 Z" id="Oval-183"></path>
                <ellipse id="Oval-183" cx="66.8484493" cy="32.4788283" rx="19.5995454" ry="18.1235451"></ellipse>
            </g>
        </g>
    </g>
</svg>