<?xml version="1.0" encoding="UTF-8" standalone="no"?>
<svg width="211px" height="129px" viewBox="0 0 211 129" version="1.1" xmlns="http://www.w3.org/2000/svg" xmlns:xlink="http://www.w3.org/1999/xlink">
    <!-- Generator: Sketch 3.6.1 (26313) - http://www.bohemiancoding.com/sketch -->
    <title>Mountains</title>
    <desc>Created with Sketch.</desc>
    <defs></defs>
    <g id="Page-1" stroke="none" stroke-width="1" fill="none" fill-rule="evenodd">
        <g id="Desktop-HD" transform="translate(-361.000000, -577.000000)">
            <g id="Mountains" transform="translate(361.000000, 577.000000)">
                <g id="Back-Mountain" transform="translate(103.213601, 41.737738)">
                    <path d="M46.0424157,0.0110978864 L63.4652574,0.0110978864 L107.058813,86.999156 L0,86.999156 L46.0424157,0.0110978864 Z" id="Rectangle-85" fill="#CBCBCB"></path>
                    <path d="M46.0424157,0.0110978864 L63.4652574,0.0110978864 L74.6743052,22.4085353 C74.6743052,22.4085353 68.2084163,19.8578027 63.4652584,22.4085353 C58.7221006,24.9592678 60.148934,15.605991 57.9226663,15.4966849 C55.9828373,15.4014425 53.9901495,22.6753336 52.1439018,22.4085353 C49.8985953,22.0840696 49.6627807,15.3251288 47.6369178,15.4966849 C44.4711314,15.7647733 45.0690903,26.5202516 42.4997179,26.3592488 C40.3754726,26.2261387 34.9445311,20.4764169 34.9445311,20.4764169 L46.0424157,0.0110978864 Z" id="Rectangle-85" fill="#FFFFFF"></path>
                </g>
                <g id="Front-Mountain" transform="translate(0.000000, -0.000000)">
                    <path d="M69.8904723,0 L96.3376213,0 L162.510826,128.943517 L0,128.943517 L69.8904723,0 Z" id="Rectangle-85" fill="#E0E0E0"></path>
                    <path d="M69.8904723,0 L96.3376213,0 L109.2835,25.2439774 C109.2835,25.2439774 103.340299,21.5533528 100.586566,22.9640097 C98.0692422,24.2535609 98.8491451,30.6917153 96.3376225,29.9823714 C93.0082322,29.0420324 92.0886727,19.9101502 90.1335554,20.4009686 C86.2580436,21.3738885 92.089963,29.7556502 87.2178049,29.9823714 C84.1232726,30.1263724 80.5948805,24.7206588 77.7517809,25.2439774 C74.8292105,25.781924 74.4587515,35.1807569 72.022742,35.1807569 C70.3918294,35.1807569 65.8451644,25.2439774 64.2142518,25.2439774 L56.0561748,25.2439774 L69.8904723,0 Z" id="Rectangle-85" fill="#FFFFFF"></path>
                </g>
            </g>
        </g>
    </g>
</svg>