<?xml version="1.0" encoding="UTF-8" standalone="no"?>
<svg width="239px" height="234px" viewBox="0 0 239 234" version="1.1" xmlns="http://www.w3.org/2000/svg" xmlns:xlink="http://www.w3.org/1999/xlink">
    <!-- Generator: Sketch 3.6.1 (26313) - http://www.bohemiancoding.com/sketch -->
    <title>Trees</title>
    <desc>Created with Sketch.</desc>
    <defs></defs>
    <g id="Page-1" stroke="none" stroke-width="1" fill="none" fill-rule="evenodd">
        <g id="Desktop-HD" transform="translate(-750.000000, -464.000000)">
            <g id="Trees" transform="translate(750.000000, 464.000000)">
                <g id="Group-3" transform="translate(130.000000, 0.000000)">
                    <rect id="Rectangle-78" fill="#8B572A" x="44.8448972" y="165.62408" width="19.4507988" height="67.5790561"></rect>
                    <path d="M54.3001467,0 L108.600293,179.472247 L0,179.472247 L54.3001467,0 Z" id="Rectangle-76" fill="#9BB32E"></path>
                    <path d="M54.3001467,0 L108.600293,179.472247 L54.3001467,179.472247 L54.3001467,0 Z" id="Rectangle-76" fill="#74881C"></path>
                </g>
                <g id="Group-3">
                    <rect id="Rectangle-78" fill="#8B572A" x="44.8448972" y="165.62408" width="19.4507988" height="67.5790561"></rect>
                    <path d="M54.3001467,0 L108.600293,179.472247 L0,179.472247 L54.3001467,0 Z" id="Rectangle-76" fill="#9BB32E"></path>
                    <path d="M54.3001467,0 L108.600293,179.472247 L54.3001467,179.472247 L54.3001467,0 Z" id="Rectangle-76" fill="#74881C"></path>
                </g>
                <g id="Group-3" transform="translate(69.000000, 64.000000)">
                    <rect id="Rectangle-78" fill="#8B572A" x="32.5739055" y="120.382348" width="14.1284409" height="49.1192189"></rect>
                    <path d="M39.4418976,0 L78.8837952,130.447762 L0,130.447762 L39.4418976,0 Z" id="Rectangle-76" fill="#9BB32E"></path>
                    <path d="M39.4418976,0 L78.8837952,130.447762 L39.4418976,130.447762 L39.4418976,0 Z" id="Rectangle-76" fill="#74881C"></path>
                </g>
            </g>
        </g>
    </g>
</svg>