<?xml version="1.0" encoding="UTF-8" standalone="no"?>
<svg width="38px" height="37px" viewBox="0 0 38 37" version="1.1" xmlns="http://www.w3.org/2000/svg" xmlns:xlink="http://www.w3.org/1999/xlink">
    <!-- Generator: Sketch 3.7.1 (28215) - http://www.bohemiancoding.com/sketch -->
    <title>Group 2</title>
    <desc>Created with Sketch.</desc>
    <defs></defs>
    <g id="Page-1" stroke="none" stroke-width="1" fill="none" fill-rule="evenodd">
        <g id="farm" transform="translate(-1173.000000, -817.000000)">
            <g id="orange-right" transform="translate(1107.000000, 780.000000)">
                <g id="Group-2" transform="translate(66.435714, 37.468354)">
                    <path d="M18.2464286,36.5316456 C28.3236528,36.5316456 36.4928571,28.3537582 36.4928571,18.2658228 C36.4928571,8.17788742 28.3236528,0 18.2464286,0 C8.16920433,0 0,8.17788742 0,18.2658228 C0,28.3537582 8.16920433,36.5316456 18.2464286,36.5316456 Z" id="Oval-192" fill="#CA7D39"></path>
                    <path d="M18.7142857,36.5316456 C28.79151,36.5316456 36.9607143,28.3537582 36.9607143,18.2658228 C36.9607143,8.17788742 28.79151,0 18.7142857,0 C18.7142859,0 18.7142857,8.17788742 18.7142857,18.2658228 C18.7142857,28.3537582 18.7142859,36.5316456 18.7142857,36.5316456 Z" id="Oval-192" fill="#B85426"></path>
                </g>
            </g>
        </g>
    </g>
</svg>