<?xml version="1.0" encoding="UTF-8" standalone="no"?>
<svg width="219px" height="353px" viewBox="0 0 219 353" version="1.1" xmlns="http://www.w3.org/2000/svg" xmlns:xlink="http://www.w3.org/1999/xlink">
    <!-- Generator: Sketch 3.7.1 (28215) - http://www.bohemiancoding.com/sketch -->
    <title>farmer</title>
    <desc>Created with Sketch.</desc>
    <defs></defs>
    <g id="Page-1" stroke="none" stroke-width="1" fill="none" fill-rule="evenodd">
        <g id="farm" transform="translate(-943.000000, -497.000000)">
            <g id="farmer" transform="translate(943.000000, 497.000000)">
                <polygon id="Rectangle-6" fill="#E9C9A0" points="78.1306826 280.336327 100.717988 280.336327 93.3820757 346.83818 87.3623877 346.83818"></polygon>
                <polygon id="Rectangle-6-Copy" fill="#E9C9A0" points="117.282012 280.336327 139.869317 280.336327 132.533405 346.83818 124.975558 346.83818"></polygon>
                <path d="M32.1423183,85.9414853 C33.7096958,63.9202075 52.1683768,41.0244924 73.6550996,35.925954 C73.6550996,35.925954 78.492678,31.6758328 109.034861,31.6758328 C139.577044,31.6758328 148.433531,36.4733616 148.433531,36.4733616 C169.874719,41.7725742 187.95997,63.9580144 188.282328,86.0448855 C188.282328,86.0448855 192.22747,135.781764 180.286666,145.260626 C180.286666,145.260626 126.249399,166.563869 40.4176403,145.260626 C25.0821273,136.280912 32.1423183,85.9414853 32.1423183,85.9414853 Z" id="Rectangle-1" fill="#62514F"></path>
                <g id="face" transform="translate(31.450251, 80.830767)" fill="#E9C9A0">
                    <path d="M79.0555689,95.2185626 C134.194348,95.2185626 146.064575,73.9031613 146.064575,47.6092813 C146.064575,21.3154013 116.063621,0 79.0555689,0 C42.0475168,0 12.0465629,21.3154013 12.0465629,47.6092813 C12.0465629,73.9031613 23.9167895,95.2185626 79.0555689,95.2185626 Z" id="Oval-1"></path>
                    <ellipse id="Oval-4" cx="144.558754" cy="40.0522525" rx="12.0465629" ry="11.3355432"></ellipse>
                    <ellipse id="Oval-4-Copy" cx="12.0465629" cy="40.0522525" rx="12.0465629" ry="11.3355432"></ellipse>
                </g>
                <g id="clothes" transform="translate(35.967713, 174.537924)">
                    <path d="M23.7127766,44.8896646 C25.5861209,22.874342 44.8938973,2.96442778 66.8488725,0.569370618 C66.8488725,0.569370618 69.5847437,0 73.7851976,0 C78.87072,0 80.7242698,0.535637596 80.7242698,0.535637596 C102.672816,3.01636771 122.148754,22.8560159 124.225553,44.8546583 L129.620405,102 L18.8531014,102 L23.7127766,44.8896646 Z" id="Rectangle-1-Copy" fill="#FAB233"></path>
                    <path d="M60.9640458,12.091246 C60.9640458,12.091246 44.8029493,12.0912461 28.9813953,27.2053036 C13.1598414,42.3193611 0.0701028124,94.8809374 0.0701028124,94.8809374" id="Line-Copy-3" stroke="#FAB233" stroke-width="16" stroke-linejoin="round"></path>
                    <path d="M86.2541064,12.091246 C86.2541064,12.091246 102.415203,12.0912461 118.236757,27.2053036 C134.058311,42.3193611 147.148049,94.8809374 147.148049,94.8809374" id="Line-Copy-5" stroke="#FAB233" stroke-width="16" stroke-linejoin="round"></path>
                </g>
                <path d="M158.22171,104.319284 C180.676034,104.319284 187.808647,97.2141504 187.808647,88.4495237 C187.808647,79.6848971 180.676034,72.5797633 158.22171,72.5797633 C135.767386,72.5797633 117.56456,79.6848971 117.56456,88.4495237 C117.56456,97.2141504 135.767386,104.319284 158.22171,104.319284 Z" id="Oval-3" fill="#62514F" transform="translate(152.686603, 88.449524) rotate(18.000000) translate(-152.686603, -88.449524) "></path>
                <ellipse id="Oval-2" fill="#62514F" transform="translate(87.165605, 82.342173) rotate(-23.000000) translate(-87.165605, -82.342173) " cx="87.1656048" cy="82.3421727" rx="58.726994" ry="18.1368691"></ellipse>
                <path d="M93.4792243,107.233434 C93.4792243,107.233434 86.9824532,106.851783 79.6678659,108.245897 C72.3532785,109.640011 70.8919189,111.054858 70.8919189,111.054858" id="Line" stroke="#62514F" stroke-width="4" stroke-linecap="round"></path>
                <path d="M147.806102,107.233434 C147.806102,107.233434 141.309331,106.851783 133.994744,108.245897 C126.680157,109.640011 125.218797,111.054858 125.218797,111.054858" id="Line-Copy" stroke="#62514F" stroke-width="4" stroke-linecap="round" transform="translate(136.512450, 109.120259) scale(-1, 1) translate(-136.512450, -109.120259) "></path>
                <ellipse id="Oval-6" fill="#62514F" cx="82.6481437" cy="126.17294" rx="4.51746108" ry="4.53421727"></ellipse>
                <ellipse id="Oval-6-Copy" fill="#62514F" cx="133.846036" cy="126.17294" rx="4.51746108" ry="4.53421727"></ellipse>
                <path d="M101.470898,154.133946 C101.470898,154.133946 104.247511,157.119408 109.75291,156.772663 C115.258309,156.425919 118.034922,154.133946 118.034922,154.133946" id="Line" stroke="#62514F" stroke-width="2" stroke-linecap="round"></path>
                <path d="M109,135.997077 C109,135.997077 106.422858,139.210463 105.371123,140.530009 C104.415098,141.729473 109.75291,142.999846 109.75291,142.999846" id="Line" stroke="#62514F" stroke-width="2" stroke-linecap="round"></path>
                <ellipse id="Oval-10" fill="#E9C9A0" cx="35.9677126" cy="271.267892" rx="9.03492216" ry="9.06843453"></ellipse>
                <ellipse id="Oval-10-Copy" fill="#E9C9A0" cx="183.538108" cy="271.267892" rx="9.03492216" ry="9.06843453"></ellipse>
                <ellipse id="Oval-14" fill="#E9C9A0" cx="110.50582" cy="178.316438" rx="11.2936527" ry="6.8013259"></ellipse>
                <g id="boot-left" transform="translate(72.107401, 333.235528)"></g>
                <g id="boot-right" transform="translate(132.886778, 343.235528) scale(-1, 1) translate(-132.886778, -343.235528) translate(121.386778, 333.235528)" fill="#8B572A">
                    <path d="M15.0166895,19.6482748 L19.8290067,19.6482748 L22.4014919,0 L6.02328144,0 L9.00582594,13.2151858 L2.31263325,16.7981293 C-0.626450591,18.3714549 -0.301627772,19.6482748 3.04134261,19.6482748 L15.0166895,19.6482748 Z" id="Combined-Shape"></path>
                </g>
                <path d="M88.4834232,352.883803 L94.9480486,352.883803 L97.5205338,333.235528 L81.1423234,333.235528 L83.7686567,344.872398 L74.1270587,350.033657 C71.1879748,351.606983 71.5127977,352.883803 74.8557681,352.883803 L88.4834232,352.883803 Z" id="Combined-Shape" fill="#8B572A"></path>
                <path d="M29.5546703,71 L11.504392,71 C5.14414598,71 0,76.1487254 0,82.5 C0,88.8526711 5.15069174,94 11.504392,94 L207.495608,94 C213.855854,94 219,88.8512746 219,82.5 C219,76.1473289 213.849308,71 207.495608,71 L189.44533,71 C184.744851,31.0182934 150.744781,0 109.5,0 C68.2552194,0 34.2551495,31.0182934 29.5546703,71 Z" id="Combined-Shape" fill="#AB6432"></path>
                <polygon id="Rectangle-257" fill="#4A4A4A" points="110 276 164 276 158.151768 305 115.159721 305"></polygon>
                <polygon id="Rectangle-257" fill="#4A4A4A" points="56 276 110 276 104.151768 305 61.1597214 305"></polygon>
            </g>
        </g>
    </g>
</svg>