<?xml version="1.0" encoding="UTF-8" standalone="no"?>
<svg width="2016px" height="755px" viewBox="0 0 2016 755" version="1.1" xmlns="http://www.w3.org/2000/svg" xmlns:xlink="http://www.w3.org/1999/xlink">
    <!-- Generator: Sketch 3.7.1 (28215) - http://www.bohemiancoding.com/sketch -->
    <title>FarmBkgd</title>
    <desc>Created with Sketch.</desc>
    <defs>
        <ellipse id="path-1" cx="1473" cy="795" rx="473" ry="306"></ellipse>
        <rect id="path-2" x="160" y="151" width="74" height="91"></rect>
        <mask id="mask-3" maskContentUnits="userSpaceOnUse" maskUnits="objectBoundingBox" x="0" y="0" width="74" height="91" fill="white">
            <use xlink:href="#path-2"></use>
        </mask>
    </defs>
    <g id="Page-1" stroke="none" stroke-width="1" fill="none" fill-rule="evenodd">
        <g id="farm" transform="translate(0.000000, -269.000000)">
            <g id="FarmBkgd" transform="translate(-435.000000, 275.000000)">
                <g id="WindmillFrame" transform="translate(514.000000, 0.000000)" stroke="#602900" stroke-width="10">
                    <path d="M89,0 L0.5,406.5" id="Line" stroke-linecap="square"></path>
                    <path d="M179,0 L90.5,406.5" id="Line" stroke-linecap="square" transform="translate(135.000000, 203.500000) scale(1, -1) translate(-135.000000, -203.500000) "></path>
                    <path d="M23.5,128 L154.5,128" id="Line" stroke-linecap="round" stroke-linejoin="round"></path>
                </g>
                <ellipse id="Oval-82" fill="#74881C" cx="1819" cy="763" rx="473" ry="306"></ellipse>
                <ellipse id="Oval-82" fill="#00C5FF" cx="1493" cy="793" rx="473" ry="306"></ellipse>
                <g id="Oval-82">
                    <use fill="#42B9DD" xlink:href="#path-1"></use>
                    <use fill="#4BD4FD" xlink:href="#path-1"></use>
                </g>
                <ellipse id="Oval-82" fill="#74881C" cx="802.5" cy="634.5" rx="802.5" ry="331.5"></ellipse>
                <g id="Group-8" transform="translate(855.000000, 8.000000)">
                    <rect id="Rectangle-25" fill="#602900" x="65" y="163" width="25" height="194"></rect>
                    <ellipse id="Oval-190" fill="#9BB32E" cx="77.5" cy="142" rx="77.5" ry="142"></ellipse>
                    <path d="M77.5,284 C120.302068,284 155,220.424434 155,142 C155,63.5755655 120.302068,0 77.5,0 C77.5000004,0 77.4999998,68.2208292 77.4999998,146.645264 C77.4999998,225.069698 77.5000004,284 77.5,284 Z" id="Oval-190" fill="#74881C"></path>
                </g>
                <g id="Group-8" transform="translate(691.000000, 50.000000)">
                    <rect id="Rectangle-25" fill="#602900" x="65" y="73" width="25" height="194"></rect>
                    <ellipse id="Oval-190" fill="#9BB32E" cx="77.5" cy="97" rx="77.5" ry="97"></ellipse>
                    <path d="M77.5,194 C120.302068,194 155,150.571621 155,97 C155,43.4283793 120.302068,0 77.5,0 C77.5000004,0 77.4999998,46.6015523 77.4999998,100.173173 C77.4999998,153.744794 77.5000004,194 77.5,194 Z" id="Oval-190" fill="#74881C"></path>
                </g>
                <g id="Group-8" transform="translate(1686.000000, 195.000000)">
                    <rect id="Rectangle-25" fill="#602900" x="65" y="73" width="25" height="194"></rect>
                    <ellipse id="Oval-190" fill="#9BB32E" cx="77.5" cy="97" rx="77.5" ry="97"></ellipse>
                    <path d="M77.5,194 C120.302068,194 155,150.571621 155,97 C155,43.4283793 120.302068,0 77.5,0 C77.5000004,0 77.4999998,46.6015523 77.4999998,100.173173 C77.4999998,153.744794 77.5000004,194 77.5,194 Z" id="Oval-190" fill="#74881C"></path>
                </g>
                <g id="truck" transform="translate(705.000000, 339.000000)">
                    <path d="M59.5,10.5 L80.5,39.5" id="Line" stroke="#602900" stroke-width="5" stroke-linecap="square"></path>
                    <path d="M48.5,18.5 L70.5,0.5" id="Line" stroke="#602900" stroke-width="5" stroke-linecap="round" stroke-linejoin="round"></path>
                    <rect id="Rectangle-8" fill="#F6A623" x="47" y="32" width="160" height="76" rx="8"></rect>
                    <rect id="Rectangle-8" fill="#DD8900" x="127" y="32" width="80" height="76" rx="8"></rect>
                    <circle id="Oval-84" fill="#602900" cx="53" cy="95" r="53"></circle>
                    <ellipse id="Oval-84" fill="#602900" cx="199.5" cy="108.5" rx="30.5" ry="30.5"></ellipse>
                    <circle id="Oval-86" fill="#F7E8D5" cx="54" cy="96" r="25"></circle>
                    <circle id="Oval-86" fill="#F7E8D5" cx="199.5" cy="108.5" r="15.5"></circle>
                    <circle id="Oval-88" fill="#602900" cx="53.5" cy="95.5" r="9.5"></circle>
                    <circle id="Oval-88" fill="#602900" cx="200" cy="109" r="7"></circle>
                </g>
                <g id="Group" transform="translate(386.000000, 263.000000)">
                    <rect id="Rectangle-2" fill="#C57C43" x="0" y="0" width="192" height="242"></rect>
                    <rect id="Rectangle-2" fill="#89410C" x="0" y="0" width="192" height="91"></rect>
                    <rect id="Rectangle-2" fill="#602900" x="0" y="0" width="192" height="73"></rect>
                    <rect id="Combined-Shape" fill="#AA6532" x="123" y="72" width="145" height="170"></rect>
                    <path d="M195.5,72.5 L268,72.5 C268,32.4593556 216.642067,-2.58915653e-15 195.5,0 C174.357933,2.58915646e-15 123,32.4593556 123,72.5 L195.5,72.5 Z" id="Oval-1" fill="#AA6532"></path>
                    <use id="Rectangle-4" stroke="#602900" mask="url(#mask-3)" stroke-width="10" fill="#E0B173" xlink:href="#path-2"></use>
                    <path d="M162.5,154.5 L230.5,239.5" id="Line" stroke="#602900" stroke-width="4" stroke-linecap="square"></path>
                    <path d="M162.5,154.5 L230.5,239.5" id="Line" stroke="#602900" stroke-width="4" stroke-linecap="square" transform="translate(196.500000, 197.000000) scale(-1, 1) translate(-196.500000, -197.000000) "></path>
                    <rect id="Rectangle-5" fill="#602900" x="182" y="57" width="31" height="31"></rect>
                </g>
                <g id="Group-3" transform="translate(1209.000000, 384.000000)">
                    <path d="M25.5,25.2429466 C29.6421356,25.2429466 33,25.6126984 33,16.5 C33,7.38730163 29.6421356,0 25.5,0 C21.3578644,0 18,7.38730163 18,16.5 C18,25.6126984 21.3578644,25.2429466 25.5,25.2429466 Z" id="Oval-13" fill="#FAB233"></path>
                    <g id="Group-2" transform="translate(36.870860, 38.349942) rotate(-320.000000) translate(-36.870860, -38.349942) translate(30.370860, 19.849942)">
                        <ellipse id="Oval-3" fill="#4F9C42" cx="6.48922652" cy="18.077131" rx="6.48922652" ry="18.077131"></ellipse>
                        <path d="M6.48922652,36.154262 L6.48922652,18.077131 L6.48922652,-8.8817842e-15 C2.90532567,-8.8817842e-15 7.10542736e-15,8.09340723 7.10542736e-15,18.077131 C7.10542736e-15,28.0608548 2.90532567,36.154262 6.48922652,36.154262 Z" id="Oval-3" fill="#82BD5D"></path>
                    </g>
                    <g id="Group-2" transform="translate(36.603443, 63.806371) rotate(-320.000000) translate(-36.603443, -63.806371) translate(30.603443, 47.806371)">
                        <ellipse id="Oval-3" fill="#4F9C42" cx="5.6661235" cy="15.7842012" rx="5.6661235" ry="15.7842012"></ellipse>
                        <path d="M5.6661235,31.5684024 L5.6661235,15.7842012 L5.6661235,1.0658141e-14 C2.5368099,1.0658141e-14 -7.10542736e-15,7.06682759 -7.10542736e-15,15.7842012 C-7.10542736e-15,24.5015748 2.5368099,31.5684024 5.6661235,31.5684024 Z" id="Oval-3" fill="#82BD5D"></path>
                    </g>
                    <g id="Group-2" transform="translate(34.199865, 21.752808) rotate(-320.000000) translate(-34.199865, -21.752808) translate(29.199865, 8.252808)">
                        <ellipse id="Oval-3" fill="#4F9C42" cx="4.69595093" cy="13.0815776" rx="4.69595093" ry="13.0815776"></ellipse>
                        <path d="M4.69595093,26.1631552 L4.69595093,13.0815776 L4.69595093,-2.84217094e-14 C2.10244885,-2.84217094e-14 1.63424829e-13,5.85682179 1.63424829e-13,13.0815776 C1.63424829e-13,20.3063334 2.10244885,26.1631552 4.69595093,26.1631552 Z" id="Oval-3" fill="#82BD5D"></path>
                    </g>
                    <g id="Group-2" transform="translate(14.880868, 70.113437) scale(-1, 1) rotate(-320.000000) translate(-14.880868, -70.113437) translate(8.880868, 54.113437)">
                        <ellipse id="Oval-3" fill="#4F9C42" cx="5.6661235" cy="15.7842012" rx="5.6661235" ry="15.7842012"></ellipse>
                        <path d="M5.6661235,31.5684024 L5.6661235,15.7842012 L5.6661235,1.42108547e-14 C2.5368099,1.42108547e-14 -1.42108547e-14,7.06682759 -1.42108547e-14,15.7842012 C-1.42108547e-14,24.5015748 2.5368099,31.5684024 5.6661235,31.5684024 Z" id="Oval-3" fill="#82BD5D"></path>
                    </g>
                    <g id="Group-2" transform="translate(14.855059, 48.025999) scale(-1, 1) rotate(-320.000000) translate(-14.855059, -48.025999) translate(9.355059, 33.025999)">
                        <ellipse id="Oval-3" fill="#4F9C42" cx="5.28333873" cy="14.7178722" rx="5.28333873" ry="14.7178722"></ellipse>
                        <path d="M5.28333873,29.4357443 L5.28333873,14.7178722 L5.28333873,6.75015599e-14 C2.36543132,6.75015599e-14 -3.73034936e-14,6.58941582 -3.73034936e-14,14.7178722 C-3.73034936e-14,22.8463285 2.36543132,29.4357443 5.28333873,29.4357443 Z" id="Oval-3" fill="#82BD5D"></path>
                    </g>
                    <g id="Group-2" transform="translate(14.829249, 19.938560) scale(-1, 1) rotate(-320.000000) translate(-14.829249, -19.938560) translate(9.829249, 5.938560)">
                        <ellipse id="Oval-3" fill="#4F9C42" cx="4.98561984" cy="13.8885124" rx="4.98561984" ry="13.8885124"></ellipse>
                        <path d="M4.98561984,27.7770248 L4.98561984,13.8885124 L4.98561984,3.23296945e-13 C2.23213803,3.23296945e-13 6.1284311e-14,6.21809881 6.1284311e-14,13.8885124 C6.1284311e-14,21.558926 2.23213803,27.7770248 4.98561984,27.7770248 Z" id="Oval-3" fill="#82BD5D"></path>
                    </g>
                    <path d="M25.5,27.5 L25.5,100.5" id="Line" stroke="#4F9C42" stroke-width="5" stroke-linecap="round"></path>
                </g>
                <g id="Group-3" transform="translate(1319.000000, 384.000000)">
                    <path d="M25.5,25.2429466 C29.6421356,25.2429466 33,25.6126984 33,16.5 C33,7.38730163 29.6421356,0 25.5,0 C21.3578644,0 18,7.38730163 18,16.5 C18,25.6126984 21.3578644,25.2429466 25.5,25.2429466 Z" id="Oval-13" fill="#FAB233"></path>
                    <g id="Group-2" transform="translate(36.870860, 38.349942) rotate(-320.000000) translate(-36.870860, -38.349942) translate(30.370860, 19.849942)">
                        <ellipse id="Oval-3" fill="#4F9C42" cx="6.48922652" cy="18.077131" rx="6.48922652" ry="18.077131"></ellipse>
                        <path d="M6.48922652,36.154262 L6.48922652,18.077131 L6.48922652,-8.8817842e-15 C2.90532567,-8.8817842e-15 7.10542736e-15,8.09340723 7.10542736e-15,18.077131 C7.10542736e-15,28.0608548 2.90532567,36.154262 6.48922652,36.154262 Z" id="Oval-3" fill="#82BD5D"></path>
                    </g>
                    <g id="Group-2" transform="translate(36.603443, 63.806371) rotate(-320.000000) translate(-36.603443, -63.806371) translate(30.603443, 47.806371)">
                        <ellipse id="Oval-3" fill="#4F9C42" cx="5.6661235" cy="15.7842012" rx="5.6661235" ry="15.7842012"></ellipse>
                        <path d="M5.6661235,31.5684024 L5.6661235,15.7842012 L5.6661235,1.0658141e-14 C2.5368099,1.0658141e-14 -7.10542736e-15,7.06682759 -7.10542736e-15,15.7842012 C-7.10542736e-15,24.5015748 2.5368099,31.5684024 5.6661235,31.5684024 Z" id="Oval-3" fill="#82BD5D"></path>
                    </g>
                    <g id="Group-2" transform="translate(34.199865, 21.752808) rotate(-320.000000) translate(-34.199865, -21.752808) translate(29.199865, 8.252808)">
                        <ellipse id="Oval-3" fill="#4F9C42" cx="4.69595093" cy="13.0815776" rx="4.69595093" ry="13.0815776"></ellipse>
                        <path d="M4.69595093,26.1631552 L4.69595093,13.0815776 L4.69595093,1.20792265e-13 C2.10244885,1.20792265e-13 -7.10542736e-15,5.85682179 -7.10542736e-15,13.0815776 C-7.10542736e-15,20.3063334 2.10244885,26.1631552 4.69595093,26.1631552 Z" id="Oval-3" fill="#82BD5D"></path>
                    </g>
                    <g id="Group-2" transform="translate(14.880868, 70.113437) scale(-1, 1) rotate(-320.000000) translate(-14.880868, -70.113437) translate(8.880868, 54.113437)">
                        <ellipse id="Oval-3" fill="#4F9C42" cx="5.6661235" cy="15.7842012" rx="5.6661235" ry="15.7842012"></ellipse>
                        <path d="M5.6661235,31.5684024 L5.6661235,15.7842012 L5.6661235,1.42108547e-14 C2.5368099,1.42108547e-14 -1.42108547e-14,7.06682759 -1.42108547e-14,15.7842012 C-1.42108547e-14,24.5015748 2.5368099,31.5684024 5.6661235,31.5684024 Z" id="Oval-3" fill="#82BD5D"></path>
                    </g>
                    <g id="Group-2" transform="translate(14.855059, 48.025999) scale(-1, 1) rotate(-320.000000) translate(-14.855059, -48.025999) translate(9.355059, 33.025999)">
                        <ellipse id="Oval-3" fill="#4F9C42" cx="5.28333873" cy="14.7178722" rx="5.28333873" ry="14.7178722"></ellipse>
                        <path d="M5.28333873,29.4357443 L5.28333873,14.7178722 L5.28333873,6.75015599e-14 C2.36543132,6.75015599e-14 -3.73034936e-14,6.58941582 -3.73034936e-14,14.7178722 C-3.73034936e-14,22.8463285 2.36543132,29.4357443 5.28333873,29.4357443 Z" id="Oval-3" fill="#82BD5D"></path>
                    </g>
                    <g id="Group-2" transform="translate(14.829249, 19.938560) scale(-1, 1) rotate(-320.000000) translate(-14.829249, -19.938560) translate(9.829249, 5.938560)">
                        <ellipse id="Oval-3" fill="#4F9C42" cx="4.98561984" cy="13.8885124" rx="4.98561984" ry="13.8885124"></ellipse>
                        <path d="M4.98561984,27.7770248 L4.98561984,13.8885124 L4.98561984,1.77635684e-13 C2.23213803,1.77635684e-13 2.35367281e-13,6.21809881 2.35367281e-13,13.8885124 C2.35367281e-13,21.558926 2.23213803,27.7770248 4.98561984,27.7770248 Z" id="Oval-3" fill="#82BD5D"></path>
                    </g>
                    <path d="M25.5,27.5 L25.5,100.5" id="Line" stroke="#4F9C42" stroke-width="5" stroke-linecap="round"></path>
                </g>
                <g id="Group-3" transform="translate(1373.000000, 371.000000)">
                    <path d="M25.5,25.2429466 C29.6421356,25.2429466 33,25.6126984 33,16.5 C33,7.38730163 29.6421356,0 25.5,0 C21.3578644,0 18,7.38730163 18,16.5 C18,25.6126984 21.3578644,25.2429466 25.5,25.2429466 Z" id="Oval-13" fill="#FAB233"></path>
                    <g id="Group-2" transform="translate(36.870860, 38.349942) rotate(-320.000000) translate(-36.870860, -38.349942) translate(30.370860, 19.849942)">
                        <ellipse id="Oval-3" fill="#4F9C42" cx="6.48922652" cy="18.077131" rx="6.48922652" ry="18.077131"></ellipse>
                        <path d="M6.48922652,36.154262 L6.48922652,18.077131 L6.48922652,-8.8817842e-15 C2.90532567,-8.8817842e-15 7.10542736e-15,8.09340723 7.10542736e-15,18.077131 C7.10542736e-15,28.0608548 2.90532567,36.154262 6.48922652,36.154262 Z" id="Oval-3" fill="#82BD5D"></path>
                    </g>
                    <g id="Group-2" transform="translate(36.603443, 63.806371) rotate(-320.000000) translate(-36.603443, -63.806371) translate(30.603443, 47.806371)">
                        <ellipse id="Oval-3" fill="#4F9C42" cx="5.6661235" cy="15.7842012" rx="5.6661235" ry="15.7842012"></ellipse>
                        <path d="M5.6661235,31.5684024 L5.6661235,15.7842012 L5.6661235,1.0658141e-14 C2.5368099,1.0658141e-14 -7.10542736e-15,7.06682759 -7.10542736e-15,15.7842012 C-7.10542736e-15,24.5015748 2.5368099,31.5684024 5.6661235,31.5684024 Z" id="Oval-3" fill="#82BD5D"></path>
                    </g>
                    <g id="Group-2" transform="translate(34.199865, 21.752808) rotate(-320.000000) translate(-34.199865, -21.752808) translate(29.199865, 8.252808)">
                        <ellipse id="Oval-3" fill="#4F9C42" cx="4.69595093" cy="13.0815776" rx="4.69595093" ry="13.0815776"></ellipse>
                        <path d="M4.69595093,26.1631552 L4.69595093,13.0815776 L4.69595093,1.20792265e-13 C2.10244885,1.20792265e-13 -7.10542736e-15,5.85682179 -7.10542736e-15,13.0815776 C-7.10542736e-15,20.3063334 2.10244885,26.1631552 4.69595093,26.1631552 Z" id="Oval-3" fill="#82BD5D"></path>
                    </g>
                    <g id="Group-2" transform="translate(14.880868, 70.113437) scale(-1, 1) rotate(-320.000000) translate(-14.880868, -70.113437) translate(8.880868, 54.113437)">
                        <ellipse id="Oval-3" fill="#4F9C42" cx="5.6661235" cy="15.7842012" rx="5.6661235" ry="15.7842012"></ellipse>
                        <path d="M5.6661235,31.5684024 L5.6661235,15.7842012 L5.6661235,1.42108547e-14 C2.5368099,1.42108547e-14 -1.42108547e-14,7.06682759 -1.42108547e-14,15.7842012 C-1.42108547e-14,24.5015748 2.5368099,31.5684024 5.6661235,31.5684024 Z" id="Oval-3" fill="#82BD5D"></path>
                    </g>
                    <g id="Group-2" transform="translate(14.855059, 48.025999) scale(-1, 1) rotate(-320.000000) translate(-14.855059, -48.025999) translate(9.355059, 33.025999)">
                        <ellipse id="Oval-3" fill="#4F9C42" cx="5.28333873" cy="14.7178722" rx="5.28333873" ry="14.7178722"></ellipse>
                        <path d="M5.28333873,29.4357443 L5.28333873,14.7178722 L5.28333873,6.75015599e-14 C2.36543132,6.75015599e-14 -3.73034936e-14,6.58941582 -3.73034936e-14,14.7178722 C-3.73034936e-14,22.8463285 2.36543132,29.4357443 5.28333873,29.4357443 Z" id="Oval-3" fill="#82BD5D"></path>
                    </g>
                    <g id="Group-2" transform="translate(14.829249, 19.938560) scale(-1, 1) rotate(-320.000000) translate(-14.829249, -19.938560) translate(9.829249, 5.938560)">
                        <ellipse id="Oval-3" fill="#4F9C42" cx="4.98561984" cy="13.8885124" rx="4.98561984" ry="13.8885124"></ellipse>
                        <path d="M4.98561984,27.7770248 L4.98561984,13.8885124 L4.98561984,1.77635684e-13 C2.23213803,1.77635684e-13 2.35367281e-13,6.21809881 2.35367281e-13,13.8885124 C2.35367281e-13,21.558926 2.23213803,27.7770248 4.98561984,27.7770248 Z" id="Oval-3" fill="#82BD5D"></path>
                    </g>
                    <path d="M25.5,27.5 L25.5,100.5" id="Line" stroke="#4F9C42" stroke-width="5" stroke-linecap="round"></path>
                </g>
                <g id="Group-3" transform="translate(1263.000000, 356.000000)">
                    <path d="M25.5,25.2429466 C29.6421356,25.2429466 33,25.6126984 33,16.5 C33,7.38730163 29.6421356,0 25.5,0 C21.3578644,0 18,7.38730163 18,16.5 C18,25.6126984 21.3578644,25.2429466 25.5,25.2429466 Z" id="Oval-13" fill="#FAB233"></path>
                    <g id="Group-2" transform="translate(36.870860, 38.349942) rotate(-320.000000) translate(-36.870860, -38.349942) translate(30.370860, 19.849942)">
                        <ellipse id="Oval-3" fill="#4F9C42" cx="6.48922652" cy="18.077131" rx="6.48922652" ry="18.077131"></ellipse>
                        <path d="M6.48922652,36.154262 L6.48922652,18.077131 L6.48922652,-8.8817842e-15 C2.90532567,-8.8817842e-15 7.10542736e-15,8.09340723 7.10542736e-15,18.077131 C7.10542736e-15,28.0608548 2.90532567,36.154262 6.48922652,36.154262 Z" id="Oval-3" fill="#82BD5D"></path>
                    </g>
                    <g id="Group-2" transform="translate(36.603443, 63.806371) rotate(-320.000000) translate(-36.603443, -63.806371) translate(30.603443, 47.806371)">
                        <ellipse id="Oval-3" fill="#4F9C42" cx="5.6661235" cy="15.7842012" rx="5.6661235" ry="15.7842012"></ellipse>
                        <path d="M5.6661235,31.5684024 L5.6661235,15.7842012 L5.6661235,1.0658141e-14 C2.5368099,1.0658141e-14 -7.10542736e-15,7.06682759 -7.10542736e-15,15.7842012 C-7.10542736e-15,24.5015748 2.5368099,31.5684024 5.6661235,31.5684024 Z" id="Oval-3" fill="#82BD5D"></path>
                    </g>
                    <g id="Group-2" transform="translate(34.199865, 21.752808) rotate(-320.000000) translate(-34.199865, -21.752808) translate(29.199865, 8.252808)">
                        <ellipse id="Oval-3" fill="#4F9C42" cx="4.69595093" cy="13.0815776" rx="4.69595093" ry="13.0815776"></ellipse>
                        <path d="M4.69595093,26.1631552 L4.69595093,13.0815776 L4.69595093,-2.84217094e-14 C2.10244885,-2.84217094e-14 1.63424829e-13,5.85682179 1.63424829e-13,13.0815776 C1.63424829e-13,20.3063334 2.10244885,26.1631552 4.69595093,26.1631552 Z" id="Oval-3" fill="#82BD5D"></path>
                    </g>
                    <g id="Group-2" transform="translate(14.880868, 70.113437) scale(-1, 1) rotate(-320.000000) translate(-14.880868, -70.113437) translate(8.880868, 54.113437)">
                        <ellipse id="Oval-3" fill="#4F9C42" cx="5.6661235" cy="15.7842012" rx="5.6661235" ry="15.7842012"></ellipse>
                        <path d="M5.6661235,31.5684024 L5.6661235,15.7842012 L5.6661235,1.42108547e-14 C2.5368099,1.42108547e-14 -1.42108547e-14,7.06682759 -1.42108547e-14,15.7842012 C-1.42108547e-14,24.5015748 2.5368099,31.5684024 5.6661235,31.5684024 Z" id="Oval-3" fill="#82BD5D"></path>
                    </g>
                    <g id="Group-2" transform="translate(14.855059, 48.025999) scale(-1, 1) rotate(-320.000000) translate(-14.855059, -48.025999) translate(9.355059, 33.025999)">
                        <ellipse id="Oval-3" fill="#4F9C42" cx="5.28333873" cy="14.7178722" rx="5.28333873" ry="14.7178722"></ellipse>
                        <path d="M5.28333873,29.4357443 L5.28333873,14.7178722 L5.28333873,6.75015599e-14 C2.36543132,6.75015599e-14 -3.73034936e-14,6.58941582 -3.73034936e-14,14.7178722 C-3.73034936e-14,22.8463285 2.36543132,29.4357443 5.28333873,29.4357443 Z" id="Oval-3" fill="#82BD5D"></path>
                    </g>
                    <g id="Group-2" transform="translate(14.829249, 19.938560) scale(-1, 1) rotate(-320.000000) translate(-14.829249, -19.938560) translate(9.829249, 5.938560)">
                        <ellipse id="Oval-3" fill="#4F9C42" cx="4.98561984" cy="13.8885124" rx="4.98561984" ry="13.8885124"></ellipse>
                        <path d="M4.98561984,27.7770248 L4.98561984,13.8885124 L4.98561984,3.23296945e-13 C2.23213803,3.23296945e-13 6.1284311e-14,6.21809881 6.1284311e-14,13.8885124 C6.1284311e-14,21.558926 2.23213803,27.7770248 4.98561984,27.7770248 Z" id="Oval-3" fill="#82BD5D"></path>
                    </g>
                    <path d="M25.5,27.5 L25.5,100.5" id="Line" stroke="#4F9C42" stroke-width="5" stroke-linecap="round"></path>
                </g>
                <g id="Group-3" transform="translate(1155.000000, 356.000000)">
                    <path d="M25.5,25.2429466 C29.6421356,25.2429466 33,25.6126984 33,16.5 C33,7.38730163 29.6421356,0 25.5,0 C21.3578644,0 18,7.38730163 18,16.5 C18,25.6126984 21.3578644,25.2429466 25.5,25.2429466 Z" id="Oval-13" fill="#FAB233"></path>
                    <g id="Group-2" transform="translate(36.870860, 38.349942) rotate(-320.000000) translate(-36.870860, -38.349942) translate(30.370860, 19.849942)">
                        <ellipse id="Oval-3" fill="#4F9C42" cx="6.48922652" cy="18.077131" rx="6.48922652" ry="18.077131"></ellipse>
                        <path d="M6.48922652,36.154262 L6.48922652,18.077131 L6.48922652,-8.8817842e-15 C2.90532567,-8.8817842e-15 7.10542736e-15,8.09340723 7.10542736e-15,18.077131 C7.10542736e-15,28.0608548 2.90532567,36.154262 6.48922652,36.154262 Z" id="Oval-3" fill="#82BD5D"></path>
                    </g>
                    <g id="Group-2" transform="translate(36.603443, 63.806371) rotate(-320.000000) translate(-36.603443, -63.806371) translate(30.603443, 47.806371)">
                        <ellipse id="Oval-3" fill="#4F9C42" cx="5.6661235" cy="15.7842012" rx="5.6661235" ry="15.7842012"></ellipse>
                        <path d="M5.6661235,31.5684024 L5.6661235,15.7842012 L5.6661235,1.0658141e-14 C2.5368099,1.0658141e-14 -7.10542736e-15,7.06682759 -7.10542736e-15,15.7842012 C-7.10542736e-15,24.5015748 2.5368099,31.5684024 5.6661235,31.5684024 Z" id="Oval-3" fill="#82BD5D"></path>
                    </g>
                    <g id="Group-2" transform="translate(34.199865, 21.752808) rotate(-320.000000) translate(-34.199865, -21.752808) translate(29.199865, 8.252808)">
                        <ellipse id="Oval-3" fill="#4F9C42" cx="4.69595093" cy="13.0815776" rx="4.69595093" ry="13.0815776"></ellipse>
                        <path d="M4.69595093,26.1631552 L4.69595093,13.0815776 L4.69595093,-2.84217094e-14 C2.10244885,-2.84217094e-14 1.63424829e-13,5.85682179 1.63424829e-13,13.0815776 C1.63424829e-13,20.3063334 2.10244885,26.1631552 4.69595093,26.1631552 Z" id="Oval-3" fill="#82BD5D"></path>
                    </g>
                    <g id="Group-2" transform="translate(14.880868, 70.113437) scale(-1, 1) rotate(-320.000000) translate(-14.880868, -70.113437) translate(8.880868, 54.113437)">
                        <ellipse id="Oval-3" fill="#4F9C42" cx="5.6661235" cy="15.7842012" rx="5.6661235" ry="15.7842012"></ellipse>
                        <path d="M5.6661235,31.5684024 L5.6661235,15.7842012 L5.6661235,1.42108547e-14 C2.5368099,1.42108547e-14 -1.42108547e-14,7.06682759 -1.42108547e-14,15.7842012 C-1.42108547e-14,24.5015748 2.5368099,31.5684024 5.6661235,31.5684024 Z" id="Oval-3" fill="#82BD5D"></path>
                    </g>
                    <g id="Group-2" transform="translate(14.855059, 48.025999) scale(-1, 1) rotate(-320.000000) translate(-14.855059, -48.025999) translate(9.355059, 33.025999)">
                        <ellipse id="Oval-3" fill="#4F9C42" cx="5.28333873" cy="14.7178722" rx="5.28333873" ry="14.7178722"></ellipse>
                        <path d="M5.28333873,29.4357443 L5.28333873,14.7178722 L5.28333873,6.75015599e-14 C2.36543132,6.75015599e-14 -3.73034936e-14,6.58941582 -3.73034936e-14,14.7178722 C-3.73034936e-14,22.8463285 2.36543132,29.4357443 5.28333873,29.4357443 Z" id="Oval-3" fill="#82BD5D"></path>
                    </g>
                    <g id="Group-2" transform="translate(14.829249, 19.938560) scale(-1, 1) rotate(-320.000000) translate(-14.829249, -19.938560) translate(9.829249, 5.938560)">
                        <ellipse id="Oval-3" fill="#4F9C42" cx="4.98561984" cy="13.8885124" rx="4.98561984" ry="13.8885124"></ellipse>
                        <path d="M4.98561984,27.7770248 L4.98561984,13.8885124 L4.98561984,3.19744231e-13 C2.23213803,3.19744231e-13 6.1284311e-14,6.21809881 6.1284311e-14,13.8885124 C6.1284311e-14,21.558926 2.23213803,27.7770248 4.98561984,27.7770248 Z" id="Oval-3" fill="#82BD5D"></path>
                    </g>
                    <path d="M25.5,27.5 L25.5,100.5" id="Line" stroke="#4F9C42" stroke-width="5" stroke-linecap="round"></path>
                </g>
                <g id="Group-3" transform="translate(993.000000, 384.000000)">
                    <path d="M25.5,25.2429466 C29.6421356,25.2429466 33,25.6126984 33,16.5 C33,7.38730163 29.6421356,0 25.5,0 C21.3578644,0 18,7.38730163 18,16.5 C18,25.6126984 21.3578644,25.2429466 25.5,25.2429466 Z" id="Oval-13" fill="#FAB233"></path>
                    <g id="Group-2" transform="translate(36.870860, 38.349942) rotate(-320.000000) translate(-36.870860, -38.349942) translate(30.370860, 19.849942)">
                        <ellipse id="Oval-3" fill="#4F9C42" cx="6.48922652" cy="18.077131" rx="6.48922652" ry="18.077131"></ellipse>
                        <path d="M6.48922652,36.154262 L6.48922652,18.077131 L6.48922652,-8.8817842e-15 C2.90532567,-8.8817842e-15 7.10542736e-15,8.09340723 7.10542736e-15,18.077131 C7.10542736e-15,28.0608548 2.90532567,36.154262 6.48922652,36.154262 Z" id="Oval-3" fill="#82BD5D"></path>
                    </g>
                    <g id="Group-2" transform="translate(36.603443, 63.806371) rotate(-320.000000) translate(-36.603443, -63.806371) translate(30.603443, 47.806371)">
                        <ellipse id="Oval-3" fill="#4F9C42" cx="5.6661235" cy="15.7842012" rx="5.6661235" ry="15.7842012"></ellipse>
                        <path d="M5.6661235,31.5684024 L5.6661235,15.7842012 L5.6661235,1.0658141e-14 C2.5368099,1.0658141e-14 -7.10542736e-15,7.06682759 -7.10542736e-15,15.7842012 C-7.10542736e-15,24.5015748 2.5368099,31.5684024 5.6661235,31.5684024 Z" id="Oval-3" fill="#82BD5D"></path>
                    </g>
                    <g id="Group-2" transform="translate(34.199865, 21.752808) rotate(-320.000000) translate(-34.199865, -21.752808) translate(29.199865, 8.252808)">
                        <ellipse id="Oval-3" fill="#4F9C42" cx="4.69595093" cy="13.0815776" rx="4.69595093" ry="13.0815776"></ellipse>
                        <path d="M4.69595093,26.1631552 L4.69595093,13.0815776 L4.69595093,-2.84217094e-14 C2.10244885,-2.84217094e-14 1.63424829e-13,5.85682179 1.63424829e-13,13.0815776 C1.63424829e-13,20.3063334 2.10244885,26.1631552 4.69595093,26.1631552 Z" id="Oval-3" fill="#82BD5D"></path>
                    </g>
                    <g id="Group-2" transform="translate(14.880868, 70.113437) scale(-1, 1) rotate(-320.000000) translate(-14.880868, -70.113437) translate(8.880868, 54.113437)">
                        <ellipse id="Oval-3" fill="#4F9C42" cx="5.6661235" cy="15.7842012" rx="5.6661235" ry="15.7842012"></ellipse>
                        <path d="M5.6661235,31.5684024 L5.6661235,15.7842012 L5.6661235,1.42108547e-14 C2.5368099,1.42108547e-14 -1.42108547e-14,7.06682759 -1.42108547e-14,15.7842012 C-1.42108547e-14,24.5015748 2.5368099,31.5684024 5.6661235,31.5684024 Z" id="Oval-3" fill="#82BD5D"></path>
                    </g>
                    <g id="Group-2" transform="translate(14.855059, 48.025999) scale(-1, 1) rotate(-320.000000) translate(-14.855059, -48.025999) translate(9.355059, 33.025999)">
                        <ellipse id="Oval-3" fill="#4F9C42" cx="5.28333873" cy="14.7178722" rx="5.28333873" ry="14.7178722"></ellipse>
                        <path d="M5.28333873,29.4357443 L5.28333873,14.7178722 L5.28333873,6.75015599e-14 C2.36543132,6.75015599e-14 -3.73034936e-14,6.58941582 -3.73034936e-14,14.7178722 C-3.73034936e-14,22.8463285 2.36543132,29.4357443 5.28333873,29.4357443 Z" id="Oval-3" fill="#82BD5D"></path>
                    </g>
                    <g id="Group-2" transform="translate(14.829249, 19.938560) scale(-1, 1) rotate(-320.000000) translate(-14.829249, -19.938560) translate(9.829249, 5.938560)">
                        <ellipse id="Oval-3" fill="#4F9C42" cx="4.98561984" cy="13.8885124" rx="4.98561984" ry="13.8885124"></ellipse>
                        <path d="M4.98561984,27.7770248 L4.98561984,13.8885124 L4.98561984,3.19744231e-13 C2.23213803,3.19744231e-13 6.1284311e-14,6.21809881 6.1284311e-14,13.8885124 C6.1284311e-14,21.558926 2.23213803,27.7770248 4.98561984,27.7770248 Z" id="Oval-3" fill="#82BD5D"></path>
                    </g>
                    <path d="M25.5,27.5 L25.5,100.5" id="Line" stroke="#4F9C42" stroke-width="5" stroke-linecap="round"></path>
                </g>
                <g id="Group-3" transform="translate(1047.000000, 356.000000)">
                    <path d="M25.5,25.2429466 C29.6421356,25.2429466 33,25.6126984 33,16.5 C33,7.38730163 29.6421356,0 25.5,0 C21.3578644,0 18,7.38730163 18,16.5 C18,25.6126984 21.3578644,25.2429466 25.5,25.2429466 Z" id="Oval-13" fill="#FAB233"></path>
                    <g id="Group-2" transform="translate(36.870860, 38.349942) rotate(-320.000000) translate(-36.870860, -38.349942) translate(30.370860, 19.849942)">
                        <ellipse id="Oval-3" fill="#4F9C42" cx="6.48922652" cy="18.077131" rx="6.48922652" ry="18.077131"></ellipse>
                        <path d="M6.48922652,36.154262 L6.48922652,18.077131 L6.48922652,-8.8817842e-15 C2.90532567,-8.8817842e-15 7.10542736e-15,8.09340723 7.10542736e-15,18.077131 C7.10542736e-15,28.0608548 2.90532567,36.154262 6.48922652,36.154262 Z" id="Oval-3" fill="#82BD5D"></path>
                    </g>
                    <g id="Group-2" transform="translate(36.603443, 63.806371) rotate(-320.000000) translate(-36.603443, -63.806371) translate(30.603443, 47.806371)">
                        <ellipse id="Oval-3" fill="#4F9C42" cx="5.6661235" cy="15.7842012" rx="5.6661235" ry="15.7842012"></ellipse>
                        <path d="M5.6661235,31.5684024 L5.6661235,15.7842012 L5.6661235,1.0658141e-14 C2.5368099,1.0658141e-14 -7.10542736e-15,7.06682759 -7.10542736e-15,15.7842012 C-7.10542736e-15,24.5015748 2.5368099,31.5684024 5.6661235,31.5684024 Z" id="Oval-3" fill="#82BD5D"></path>
                    </g>
                    <g id="Group-2" transform="translate(34.199865, 21.752808) rotate(-320.000000) translate(-34.199865, -21.752808) translate(29.199865, 8.252808)">
                        <ellipse id="Oval-3" fill="#4F9C42" cx="4.69595093" cy="13.0815776" rx="4.69595093" ry="13.0815776"></ellipse>
                        <path d="M4.69595093,26.1631552 L4.69595093,13.0815776 L4.69595093,-2.84217094e-14 C2.10244885,-2.84217094e-14 1.63424829e-13,5.85682179 1.63424829e-13,13.0815776 C1.63424829e-13,20.3063334 2.10244885,26.1631552 4.69595093,26.1631552 Z" id="Oval-3" fill="#82BD5D"></path>
                    </g>
                    <g id="Group-2" transform="translate(14.880868, 70.113437) scale(-1, 1) rotate(-320.000000) translate(-14.880868, -70.113437) translate(8.880868, 54.113437)">
                        <ellipse id="Oval-3" fill="#4F9C42" cx="5.6661235" cy="15.7842012" rx="5.6661235" ry="15.7842012"></ellipse>
                        <path d="M5.6661235,31.5684024 L5.6661235,15.7842012 L5.6661235,1.42108547e-14 C2.5368099,1.42108547e-14 -1.42108547e-14,7.06682759 -1.42108547e-14,15.7842012 C-1.42108547e-14,24.5015748 2.5368099,31.5684024 5.6661235,31.5684024 Z" id="Oval-3" fill="#82BD5D"></path>
                    </g>
                    <g id="Group-2" transform="translate(14.855059, 48.025999) scale(-1, 1) rotate(-320.000000) translate(-14.855059, -48.025999) translate(9.355059, 33.025999)">
                        <ellipse id="Oval-3" fill="#4F9C42" cx="5.28333873" cy="14.7178722" rx="5.28333873" ry="14.7178722"></ellipse>
                        <path d="M5.28333873,29.4357443 L5.28333873,14.7178722 L5.28333873,6.75015599e-14 C2.36543132,6.75015599e-14 -3.73034936e-14,6.58941582 -3.73034936e-14,14.7178722 C-3.73034936e-14,22.8463285 2.36543132,29.4357443 5.28333873,29.4357443 Z" id="Oval-3" fill="#82BD5D"></path>
                    </g>
                    <g id="Group-2" transform="translate(14.829249, 19.938560) scale(-1, 1) rotate(-320.000000) translate(-14.829249, -19.938560) translate(9.829249, 5.938560)">
                        <ellipse id="Oval-3" fill="#4F9C42" cx="4.98561984" cy="13.8885124" rx="4.98561984" ry="13.8885124"></ellipse>
                        <path d="M4.98561984,27.7770248 L4.98561984,13.8885124 L4.98561984,3.19744231e-13 C2.23213803,3.19744231e-13 6.1284311e-14,6.21809881 6.1284311e-14,13.8885124 C6.1284311e-14,21.558926 2.23213803,27.7770248 4.98561984,27.7770248 Z" id="Oval-3" fill="#82BD5D"></path>
                    </g>
                    <path d="M25.5,27.5 L25.5,100.5" id="Line" stroke="#4F9C42" stroke-width="5" stroke-linecap="round"></path>
                </g>
                <g id="Group-3" transform="translate(1101.000000, 371.000000)">
                    <path d="M25.5,25.2429466 C29.6421356,25.2429466 33,25.6126984 33,16.5 C33,7.38730163 29.6421356,0 25.5,0 C21.3578644,0 18,7.38730163 18,16.5 C18,25.6126984 21.3578644,25.2429466 25.5,25.2429466 Z" id="Oval-13" fill="#FAB233"></path>
                    <g id="Group-2" transform="translate(36.870860, 38.349942) rotate(-320.000000) translate(-36.870860, -38.349942) translate(30.370860, 19.849942)">
                        <ellipse id="Oval-3" fill="#4F9C42" cx="6.48922652" cy="18.077131" rx="6.48922652" ry="18.077131"></ellipse>
                        <path d="M6.48922652,36.154262 L6.48922652,18.077131 L6.48922652,-8.8817842e-15 C2.90532567,-8.8817842e-15 7.10542736e-15,8.09340723 7.10542736e-15,18.077131 C7.10542736e-15,28.0608548 2.90532567,36.154262 6.48922652,36.154262 Z" id="Oval-3" fill="#82BD5D"></path>
                    </g>
                    <g id="Group-2" transform="translate(36.603443, 63.806371) rotate(-320.000000) translate(-36.603443, -63.806371) translate(30.603443, 47.806371)">
                        <ellipse id="Oval-3" fill="#4F9C42" cx="5.6661235" cy="15.7842012" rx="5.6661235" ry="15.7842012"></ellipse>
                        <path d="M5.6661235,31.5684024 L5.6661235,15.7842012 L5.6661235,1.0658141e-14 C2.5368099,1.0658141e-14 -7.10542736e-15,7.06682759 -7.10542736e-15,15.7842012 C-7.10542736e-15,24.5015748 2.5368099,31.5684024 5.6661235,31.5684024 Z" id="Oval-3" fill="#82BD5D"></path>
                    </g>
                    <g id="Group-2" transform="translate(34.199865, 21.752808) rotate(-320.000000) translate(-34.199865, -21.752808) translate(29.199865, 8.252808)">
                        <ellipse id="Oval-3" fill="#4F9C42" cx="4.69595093" cy="13.0815776" rx="4.69595093" ry="13.0815776"></ellipse>
                        <path d="M4.69595093,26.1631552 L4.69595093,13.0815776 L4.69595093,-2.84217094e-14 C2.10244885,-2.84217094e-14 1.63424829e-13,5.85682179 1.63424829e-13,13.0815776 C1.63424829e-13,20.3063334 2.10244885,26.1631552 4.69595093,26.1631552 Z" id="Oval-3" fill="#82BD5D"></path>
                    </g>
                    <g id="Group-2" transform="translate(14.880868, 70.113437) scale(-1, 1) rotate(-320.000000) translate(-14.880868, -70.113437) translate(8.880868, 54.113437)">
                        <ellipse id="Oval-3" fill="#4F9C42" cx="5.6661235" cy="15.7842012" rx="5.6661235" ry="15.7842012"></ellipse>
                        <path d="M5.6661235,31.5684024 L5.6661235,15.7842012 L5.6661235,1.42108547e-14 C2.5368099,1.42108547e-14 -1.42108547e-14,7.06682759 -1.42108547e-14,15.7842012 C-1.42108547e-14,24.5015748 2.5368099,31.5684024 5.6661235,31.5684024 Z" id="Oval-3" fill="#82BD5D"></path>
                    </g>
                    <g id="Group-2" transform="translate(14.855059, 48.025999) scale(-1, 1) rotate(-320.000000) translate(-14.855059, -48.025999) translate(9.355059, 33.025999)">
                        <ellipse id="Oval-3" fill="#4F9C42" cx="5.28333873" cy="14.7178722" rx="5.28333873" ry="14.7178722"></ellipse>
                        <path d="M5.28333873,29.4357443 L5.28333873,14.7178722 L5.28333873,6.75015599e-14 C2.36543132,6.75015599e-14 -3.73034936e-14,6.58941582 -3.73034936e-14,14.7178722 C-3.73034936e-14,22.8463285 2.36543132,29.4357443 5.28333873,29.4357443 Z" id="Oval-3" fill="#82BD5D"></path>
                    </g>
                    <g id="Group-2" transform="translate(14.829249, 19.938560) scale(-1, 1) rotate(-320.000000) translate(-14.829249, -19.938560) translate(9.829249, 5.938560)">
                        <ellipse id="Oval-3" fill="#4F9C42" cx="4.98561984" cy="13.8885124" rx="4.98561984" ry="13.8885124"></ellipse>
                        <path d="M4.98561984,27.7770248 L4.98561984,13.8885124 L4.98561984,3.19744231e-13 C2.23213803,3.19744231e-13 6.1284311e-14,6.21809881 6.1284311e-14,13.8885124 C6.1284311e-14,21.558926 2.23213803,27.7770248 4.98561984,27.7770248 Z" id="Oval-3" fill="#82BD5D"></path>
                    </g>
                    <path d="M25.5,27.5 L25.5,100.5" id="Line" stroke="#4F9C42" stroke-width="5" stroke-linecap="round"></path>
                </g>
                <g id="Group-3" transform="translate(1767.000000, 407.000000)">
                    <path d="M25.5,25.2429466 C29.6421356,25.2429466 33,25.6126984 33,16.5 C33,7.38730163 29.6421356,0 25.5,0 C21.3578644,0 18,7.38730163 18,16.5 C18,25.6126984 21.3578644,25.2429466 25.5,25.2429466 Z" id="Oval-13" fill="#FAB233"></path>
                    <g id="Group-2" transform="translate(36.870860, 38.349942) rotate(-320.000000) translate(-36.870860, -38.349942) translate(30.370860, 19.849942)">
                        <ellipse id="Oval-3" fill="#4F9C42" cx="6.48922652" cy="18.077131" rx="6.48922652" ry="18.077131"></ellipse>
                        <path d="M6.48922652,36.154262 L6.48922652,18.077131 L6.48922652,-8.8817842e-15 C2.90532567,-8.8817842e-15 7.10542736e-15,8.09340723 7.10542736e-15,18.077131 C7.10542736e-15,28.0608548 2.90532567,36.154262 6.48922652,36.154262 Z" id="Oval-3" fill="#82BD5D"></path>
                    </g>
                    <g id="Group-2" transform="translate(36.603443, 63.806371) rotate(-320.000000) translate(-36.603443, -63.806371) translate(30.603443, 47.806371)">
                        <ellipse id="Oval-3" fill="#4F9C42" cx="5.6661235" cy="15.7842012" rx="5.6661235" ry="15.7842012"></ellipse>
                        <path d="M5.6661235,31.5684024 L5.6661235,15.7842012 L5.6661235,1.0658141e-14 C2.5368099,1.0658141e-14 -7.10542736e-15,7.06682759 -7.10542736e-15,15.7842012 C-7.10542736e-15,24.5015748 2.5368099,31.5684024 5.6661235,31.5684024 Z" id="Oval-3" fill="#82BD5D"></path>
                    </g>
                    <g id="Group-2" transform="translate(34.199865, 21.752808) rotate(-320.000000) translate(-34.199865, -21.752808) translate(29.199865, 8.252808)">
                        <ellipse id="Oval-3" fill="#4F9C42" cx="4.69595093" cy="13.0815776" rx="4.69595093" ry="13.0815776"></ellipse>
                        <path d="M4.69595093,26.1631552 L4.69595093,13.0815776 L4.69595093,-2.48689958e-14 C2.10244885,-2.48689958e-14 1.70530257e-13,5.85682179 1.70530257e-13,13.0815776 C1.70530257e-13,20.3063334 2.10244885,26.1631552 4.69595093,26.1631552 Z" id="Oval-3" fill="#82BD5D"></path>
                    </g>
                    <g id="Group-2" transform="translate(14.880868, 70.113437) scale(-1, 1) rotate(-320.000000) translate(-14.880868, -70.113437) translate(8.880868, 54.113437)">
                        <ellipse id="Oval-3" fill="#4F9C42" cx="5.6661235" cy="15.7842012" rx="5.6661235" ry="15.7842012"></ellipse>
                        <path d="M5.6661235,31.5684024 L5.6661235,15.7842012 L5.6661235,1.42108547e-14 C2.5368099,1.42108547e-14 -1.42108547e-14,7.06682759 -1.42108547e-14,15.7842012 C-1.42108547e-14,24.5015748 2.5368099,31.5684024 5.6661235,31.5684024 Z" id="Oval-3" fill="#82BD5D"></path>
                    </g>
                    <g id="Group-2" transform="translate(14.855059, 48.025999) scale(-1, 1) rotate(-320.000000) translate(-14.855059, -48.025999) translate(9.355059, 33.025999)">
                        <ellipse id="Oval-3" fill="#4F9C42" cx="5.28333873" cy="14.7178722" rx="5.28333873" ry="14.7178722"></ellipse>
                        <path d="M5.28333873,29.4357443 L5.28333873,14.7178722 L5.28333873,-7.81597009e-14 C2.36543132,-7.81597009e-14 1.36779477e-13,6.58941582 1.36779477e-13,14.7178722 C1.36779477e-13,22.8463285 2.36543132,29.4357443 5.28333873,29.4357443 Z" id="Oval-3" fill="#82BD5D"></path>
                    </g>
                    <g id="Group-2" transform="translate(14.829249, 19.938560) scale(-1, 1) rotate(-320.000000) translate(-14.829249, -19.938560) translate(9.829249, 5.938560)">
                        <ellipse id="Oval-3" fill="#4F9C42" cx="4.98561984" cy="13.8885124" rx="4.98561984" ry="13.8885124"></ellipse>
                        <path d="M4.98561984,27.7770248 L4.98561984,13.8885124 L4.98561984,1.7408297e-13 C2.23213803,1.7408297e-13 2.35367281e-13,6.21809881 2.35367281e-13,13.8885124 C2.35367281e-13,21.558926 2.23213803,27.7770248 4.98561984,27.7770248 Z" id="Oval-3" fill="#82BD5D"></path>
                    </g>
                    <path d="M25.5,27.5 L25.5,100.5" id="Line" stroke="#4F9C42" stroke-width="5" stroke-linecap="round"></path>
                </g>
                <g id="Group-3" transform="translate(1821.000000, 365.000000)">
                    <path d="M25.5,25.2429466 C29.6421356,25.2429466 33,25.6126984 33,16.5 C33,7.38730163 29.6421356,0 25.5,0 C21.3578644,0 18,7.38730163 18,16.5 C18,25.6126984 21.3578644,25.2429466 25.5,25.2429466 Z" id="Oval-13" fill="#FAB233"></path>
                    <g id="Group-2" transform="translate(36.870860, 38.349942) rotate(-320.000000) translate(-36.870860, -38.349942) translate(30.370860, 19.849942)">
                        <ellipse id="Oval-3" fill="#4F9C42" cx="6.48922652" cy="18.077131" rx="6.48922652" ry="18.077131"></ellipse>
                        <path d="M6.48922652,36.154262 L6.48922652,18.077131 L6.48922652,-8.8817842e-15 C2.90532567,-8.8817842e-15 7.10542736e-15,8.09340723 7.10542736e-15,18.077131 C7.10542736e-15,28.0608548 2.90532567,36.154262 6.48922652,36.154262 Z" id="Oval-3" fill="#82BD5D"></path>
                    </g>
                    <g id="Group-2" transform="translate(36.603443, 63.806371) rotate(-320.000000) translate(-36.603443, -63.806371) translate(30.603443, 47.806371)">
                        <ellipse id="Oval-3" fill="#4F9C42" cx="5.6661235" cy="15.7842012" rx="5.6661235" ry="15.7842012"></ellipse>
                        <path d="M5.6661235,31.5684024 L5.6661235,15.7842012 L5.6661235,1.0658141e-14 C2.5368099,1.0658141e-14 -7.10542736e-15,7.06682759 -7.10542736e-15,15.7842012 C-7.10542736e-15,24.5015748 2.5368099,31.5684024 5.6661235,31.5684024 Z" id="Oval-3" fill="#82BD5D"></path>
                    </g>
                    <g id="Group-2" transform="translate(34.199865, 21.752808) rotate(-320.000000) translate(-34.199865, -21.752808) translate(29.199865, 8.252808)">
                        <ellipse id="Oval-3" fill="#4F9C42" cx="4.69595093" cy="13.0815776" rx="4.69595093" ry="13.0815776"></ellipse>
                        <path d="M4.69595093,26.1631552 L4.69595093,13.0815776 L4.69595093,-2.48689958e-14 C2.10244885,-2.48689958e-14 1.70530257e-13,5.85682179 1.70530257e-13,13.0815776 C1.70530257e-13,20.3063334 2.10244885,26.1631552 4.69595093,26.1631552 Z" id="Oval-3" fill="#82BD5D"></path>
                    </g>
                    <g id="Group-2" transform="translate(14.880868, 70.113437) scale(-1, 1) rotate(-320.000000) translate(-14.880868, -70.113437) translate(8.880868, 54.113437)">
                        <ellipse id="Oval-3" fill="#4F9C42" cx="5.6661235" cy="15.7842012" rx="5.6661235" ry="15.7842012"></ellipse>
                        <path d="M5.6661235,31.5684024 L5.6661235,15.7842012 L5.6661235,1.42108547e-14 C2.5368099,1.42108547e-14 -1.42108547e-14,7.06682759 -1.42108547e-14,15.7842012 C-1.42108547e-14,24.5015748 2.5368099,31.5684024 5.6661235,31.5684024 Z" id="Oval-3" fill="#82BD5D"></path>
                    </g>
                    <g id="Group-2" transform="translate(14.855059, 48.025999) scale(-1, 1) rotate(-320.000000) translate(-14.855059, -48.025999) translate(9.355059, 33.025999)">
                        <ellipse id="Oval-3" fill="#4F9C42" cx="5.28333873" cy="14.7178722" rx="5.28333873" ry="14.7178722"></ellipse>
                        <path d="M5.28333873,29.4357443 L5.28333873,14.7178722 L5.28333873,-7.81597009e-14 C2.36543132,-7.81597009e-14 1.36779477e-13,6.58941582 1.36779477e-13,14.7178722 C1.36779477e-13,22.8463285 2.36543132,29.4357443 5.28333873,29.4357443 Z" id="Oval-3" fill="#82BD5D"></path>
                    </g>
                    <g id="Group-2" transform="translate(14.829249, 19.938560) scale(-1, 1) rotate(-320.000000) translate(-14.829249, -19.938560) translate(9.829249, 5.938560)">
                        <ellipse id="Oval-3" fill="#4F9C42" cx="4.98561984" cy="13.8885124" rx="4.98561984" ry="13.8885124"></ellipse>
                        <path d="M4.98561984,27.7770248 L4.98561984,13.8885124 L4.98561984,1.7408297e-13 C2.23213803,1.7408297e-13 2.35367281e-13,6.21809881 2.35367281e-13,13.8885124 C2.35367281e-13,21.558926 2.23213803,27.7770248 4.98561984,27.7770248 Z" id="Oval-3" fill="#82BD5D"></path>
                    </g>
                    <path d="M25.5,27.5 L25.5,100.5" id="Line" stroke="#4F9C42" stroke-width="5" stroke-linecap="round"></path>
                </g>
                <g id="Group-3" transform="translate(1713.000000, 380.000000)">
                    <path d="M25.5,25.2429466 C29.6421356,25.2429466 33,25.6126984 33,16.5 C33,7.38730163 29.6421356,0 25.5,0 C21.3578644,0 18,7.38730163 18,16.5 C18,25.6126984 21.3578644,25.2429466 25.5,25.2429466 Z" id="Oval-13" fill="#FAB233"></path>
                    <g id="Group-2" transform="translate(36.870860, 38.349942) rotate(-320.000000) translate(-36.870860, -38.349942) translate(30.370860, 19.849942)">
                        <ellipse id="Oval-3" fill="#4F9C42" cx="6.48922652" cy="18.077131" rx="6.48922652" ry="18.077131"></ellipse>
                        <path d="M6.48922652,36.154262 L6.48922652,18.077131 L6.48922652,-8.8817842e-15 C2.90532567,-8.8817842e-15 7.10542736e-15,8.09340723 7.10542736e-15,18.077131 C7.10542736e-15,28.0608548 2.90532567,36.154262 6.48922652,36.154262 Z" id="Oval-3" fill="#82BD5D"></path>
                    </g>
                    <g id="Group-2" transform="translate(36.603443, 63.806371) rotate(-320.000000) translate(-36.603443, -63.806371) translate(30.603443, 47.806371)">
                        <ellipse id="Oval-3" fill="#4F9C42" cx="5.6661235" cy="15.7842012" rx="5.6661235" ry="15.7842012"></ellipse>
                        <path d="M5.6661235,31.5684024 L5.6661235,15.7842012 L5.6661235,1.0658141e-14 C2.5368099,1.0658141e-14 -7.10542736e-15,7.06682759 -7.10542736e-15,15.7842012 C-7.10542736e-15,24.5015748 2.5368099,31.5684024 5.6661235,31.5684024 Z" id="Oval-3" fill="#82BD5D"></path>
                    </g>
                    <g id="Group-2" transform="translate(34.199865, 21.752808) rotate(-320.000000) translate(-34.199865, -21.752808) translate(29.199865, 8.252808)">
                        <ellipse id="Oval-3" fill="#4F9C42" cx="4.69595093" cy="13.0815776" rx="4.69595093" ry="13.0815776"></ellipse>
                        <path d="M4.69595093,26.1631552 L4.69595093,13.0815776 L4.69595093,-2.48689958e-14 C2.10244885,-2.48689958e-14 1.70530257e-13,5.85682179 1.70530257e-13,13.0815776 C1.70530257e-13,20.3063334 2.10244885,26.1631552 4.69595093,26.1631552 Z" id="Oval-3" fill="#82BD5D"></path>
                    </g>
                    <g id="Group-2" transform="translate(14.880868, 70.113437) scale(-1, 1) rotate(-320.000000) translate(-14.880868, -70.113437) translate(8.880868, 54.113437)">
                        <ellipse id="Oval-3" fill="#4F9C42" cx="5.6661235" cy="15.7842012" rx="5.6661235" ry="15.7842012"></ellipse>
                        <path d="M5.6661235,31.5684024 L5.6661235,15.7842012 L5.6661235,1.42108547e-14 C2.5368099,1.42108547e-14 -1.42108547e-14,7.06682759 -1.42108547e-14,15.7842012 C-1.42108547e-14,24.5015748 2.5368099,31.5684024 5.6661235,31.5684024 Z" id="Oval-3" fill="#82BD5D"></path>
                    </g>
                    <g id="Group-2" transform="translate(14.855059, 48.025999) scale(-1, 1) rotate(-320.000000) translate(-14.855059, -48.025999) translate(9.355059, 33.025999)">
                        <ellipse id="Oval-3" fill="#4F9C42" cx="5.28333873" cy="14.7178722" rx="5.28333873" ry="14.7178722"></ellipse>
                        <path d="M5.28333873,29.4357443 L5.28333873,14.7178722 L5.28333873,-7.81597009e-14 C2.36543132,-7.81597009e-14 1.36779477e-13,6.58941582 1.36779477e-13,14.7178722 C1.36779477e-13,22.8463285 2.36543132,29.4357443 5.28333873,29.4357443 Z" id="Oval-3" fill="#82BD5D"></path>
                    </g>
                    <g id="Group-2" transform="translate(14.829249, 19.938560) scale(-1, 1) rotate(-320.000000) translate(-14.829249, -19.938560) translate(9.829249, 5.938560)">
                        <ellipse id="Oval-3" fill="#4F9C42" cx="4.98561984" cy="13.8885124" rx="4.98561984" ry="13.8885124"></ellipse>
                        <path d="M4.98561984,27.7770248 L4.98561984,13.8885124 L4.98561984,1.7408297e-13 C2.23213803,1.7408297e-13 2.35367281e-13,6.21809881 2.35367281e-13,13.8885124 C2.35367281e-13,21.558926 2.23213803,27.7770248 4.98561984,27.7770248 Z" id="Oval-3" fill="#82BD5D"></path>
                    </g>
                    <path d="M25.5,27.5 L25.5,100.5" id="Line" stroke="#4F9C42" stroke-width="5" stroke-linecap="round"></path>
                </g>
                <g id="Group-3" transform="translate(1605.000000, 393.000000)">
                    <path d="M25.5,25.2429466 C29.6421356,25.2429466 33,25.6126984 33,16.5 C33,7.38730163 29.6421356,0 25.5,0 C21.3578644,0 18,7.38730163 18,16.5 C18,25.6126984 21.3578644,25.2429466 25.5,25.2429466 Z" id="Oval-13" fill="#FAB233"></path>
                    <g id="Group-2" transform="translate(36.870860, 38.349942) rotate(-320.000000) translate(-36.870860, -38.349942) translate(30.370860, 19.849942)">
                        <ellipse id="Oval-3" fill="#4F9C42" cx="6.48922652" cy="18.077131" rx="6.48922652" ry="18.077131"></ellipse>
                        <path d="M6.48922652,36.154262 L6.48922652,18.077131 L6.48922652,-8.8817842e-15 C2.90532567,-8.8817842e-15 7.10542736e-15,8.09340723 7.10542736e-15,18.077131 C7.10542736e-15,28.0608548 2.90532567,36.154262 6.48922652,36.154262 Z" id="Oval-3" fill="#82BD5D"></path>
                    </g>
                    <g id="Group-2" transform="translate(36.603443, 63.806371) rotate(-320.000000) translate(-36.603443, -63.806371) translate(30.603443, 47.806371)">
                        <ellipse id="Oval-3" fill="#4F9C42" cx="5.6661235" cy="15.7842012" rx="5.6661235" ry="15.7842012"></ellipse>
                        <path d="M5.6661235,31.5684024 L5.6661235,15.7842012 L5.6661235,1.0658141e-14 C2.5368099,1.0658141e-14 -7.10542736e-15,7.06682759 -7.10542736e-15,15.7842012 C-7.10542736e-15,24.5015748 2.5368099,31.5684024 5.6661235,31.5684024 Z" id="Oval-3" fill="#82BD5D"></path>
                    </g>
                    <g id="Group-2" transform="translate(34.199865, 21.752808) rotate(-320.000000) translate(-34.199865, -21.752808) translate(29.199865, 8.252808)">
                        <ellipse id="Oval-3" fill="#4F9C42" cx="4.69595093" cy="13.0815776" rx="4.69595093" ry="13.0815776"></ellipse>
                        <path d="M4.69595093,26.1631552 L4.69595093,13.0815776 L4.69595093,-2.48689958e-14 C2.10244885,-2.48689958e-14 1.70530257e-13,5.85682179 1.70530257e-13,13.0815776 C1.70530257e-13,20.3063334 2.10244885,26.1631552 4.69595093,26.1631552 Z" id="Oval-3" fill="#82BD5D"></path>
                    </g>
                    <g id="Group-2" transform="translate(14.880868, 70.113437) scale(-1, 1) rotate(-320.000000) translate(-14.880868, -70.113437) translate(8.880868, 54.113437)">
                        <ellipse id="Oval-3" fill="#4F9C42" cx="5.6661235" cy="15.7842012" rx="5.6661235" ry="15.7842012"></ellipse>
                        <path d="M5.6661235,31.5684024 L5.6661235,15.7842012 L5.6661235,1.42108547e-14 C2.5368099,1.42108547e-14 -1.42108547e-14,7.06682759 -1.42108547e-14,15.7842012 C-1.42108547e-14,24.5015748 2.5368099,31.5684024 5.6661235,31.5684024 Z" id="Oval-3" fill="#82BD5D"></path>
                    </g>
                    <g id="Group-2" transform="translate(14.855059, 48.025999) scale(-1, 1) rotate(-320.000000) translate(-14.855059, -48.025999) translate(9.355059, 33.025999)">
                        <ellipse id="Oval-3" fill="#4F9C42" cx="5.28333873" cy="14.7178722" rx="5.28333873" ry="14.7178722"></ellipse>
                        <path d="M5.28333873,29.4357443 L5.28333873,14.7178722 L5.28333873,-7.81597009e-14 C2.36543132,-7.81597009e-14 1.36779477e-13,6.58941582 1.36779477e-13,14.7178722 C1.36779477e-13,22.8463285 2.36543132,29.4357443 5.28333873,29.4357443 Z" id="Oval-3" fill="#82BD5D"></path>
                    </g>
                    <g id="Group-2" transform="translate(14.829249, 19.938560) scale(-1, 1) rotate(-320.000000) translate(-14.829249, -19.938560) translate(9.829249, 5.938560)">
                        <ellipse id="Oval-3" fill="#4F9C42" cx="4.98561984" cy="13.8885124" rx="4.98561984" ry="13.8885124"></ellipse>
                        <path d="M4.98561984,27.7770248 L4.98561984,13.8885124 L4.98561984,1.7408297e-13 C2.23213803,1.7408297e-13 2.35367281e-13,6.21809881 2.35367281e-13,13.8885124 C2.35367281e-13,21.558926 2.23213803,27.7770248 4.98561984,27.7770248 Z" id="Oval-3" fill="#82BD5D"></path>
                    </g>
                    <path d="M25.5,27.5 L25.5,100.5" id="Line" stroke="#4F9C42" stroke-width="5" stroke-linecap="round"></path>
                </g>
                <g id="Group-3" transform="translate(1659.000000, 407.000000)">
                    <path d="M25.5,25.2429466 C29.6421356,25.2429466 33,25.6126984 33,16.5 C33,7.38730163 29.6421356,0 25.5,0 C21.3578644,0 18,7.38730163 18,16.5 C18,25.6126984 21.3578644,25.2429466 25.5,25.2429466 Z" id="Oval-13" fill="#FAB233"></path>
                    <g id="Group-2" transform="translate(36.870860, 38.349942) rotate(-320.000000) translate(-36.870860, -38.349942) translate(30.370860, 19.849942)">
                        <ellipse id="Oval-3" fill="#4F9C42" cx="6.48922652" cy="18.077131" rx="6.48922652" ry="18.077131"></ellipse>
                        <path d="M6.48922652,36.154262 L6.48922652,18.077131 L6.48922652,-8.8817842e-15 C2.90532567,-8.8817842e-15 7.10542736e-15,8.09340723 7.10542736e-15,18.077131 C7.10542736e-15,28.0608548 2.90532567,36.154262 6.48922652,36.154262 Z" id="Oval-3" fill="#82BD5D"></path>
                    </g>
                    <g id="Group-2" transform="translate(36.603443, 63.806371) rotate(-320.000000) translate(-36.603443, -63.806371) translate(30.603443, 47.806371)">
                        <ellipse id="Oval-3" fill="#4F9C42" cx="5.6661235" cy="15.7842012" rx="5.6661235" ry="15.7842012"></ellipse>
                        <path d="M5.6661235,31.5684024 L5.6661235,15.7842012 L5.6661235,1.0658141e-14 C2.5368099,1.0658141e-14 -7.10542736e-15,7.06682759 -7.10542736e-15,15.7842012 C-7.10542736e-15,24.5015748 2.5368099,31.5684024 5.6661235,31.5684024 Z" id="Oval-3" fill="#82BD5D"></path>
                    </g>
                    <g id="Group-2" transform="translate(34.199865, 21.752808) rotate(-320.000000) translate(-34.199865, -21.752808) translate(29.199865, 8.252808)">
                        <ellipse id="Oval-3" fill="#4F9C42" cx="4.69595093" cy="13.0815776" rx="4.69595093" ry="13.0815776"></ellipse>
                        <path d="M4.69595093,26.1631552 L4.69595093,13.0815776 L4.69595093,-2.48689958e-14 C2.10244885,-2.48689958e-14 1.70530257e-13,5.85682179 1.70530257e-13,13.0815776 C1.70530257e-13,20.3063334 2.10244885,26.1631552 4.69595093,26.1631552 Z" id="Oval-3" fill="#82BD5D"></path>
                    </g>
                    <g id="Group-2" transform="translate(14.880868, 70.113437) scale(-1, 1) rotate(-320.000000) translate(-14.880868, -70.113437) translate(8.880868, 54.113437)">
                        <ellipse id="Oval-3" fill="#4F9C42" cx="5.6661235" cy="15.7842012" rx="5.6661235" ry="15.7842012"></ellipse>
                        <path d="M5.6661235,31.5684024 L5.6661235,15.7842012 L5.6661235,1.42108547e-14 C2.5368099,1.42108547e-14 -1.42108547e-14,7.06682759 -1.42108547e-14,15.7842012 C-1.42108547e-14,24.5015748 2.5368099,31.5684024 5.6661235,31.5684024 Z" id="Oval-3" fill="#82BD5D"></path>
                    </g>
                    <g id="Group-2" transform="translate(14.855059, 48.025999) scale(-1, 1) rotate(-320.000000) translate(-14.855059, -48.025999) translate(9.355059, 33.025999)">
                        <ellipse id="Oval-3" fill="#4F9C42" cx="5.28333873" cy="14.7178722" rx="5.28333873" ry="14.7178722"></ellipse>
                        <path d="M5.28333873,29.4357443 L5.28333873,14.7178722 L5.28333873,-7.81597009e-14 C2.36543132,-7.81597009e-14 1.36779477e-13,6.58941582 1.36779477e-13,14.7178722 C1.36779477e-13,22.8463285 2.36543132,29.4357443 5.28333873,29.4357443 Z" id="Oval-3" fill="#82BD5D"></path>
                    </g>
                    <g id="Group-2" transform="translate(14.829249, 19.938560) scale(-1, 1) rotate(-320.000000) translate(-14.829249, -19.938560) translate(9.829249, 5.938560)">
                        <ellipse id="Oval-3" fill="#4F9C42" cx="4.98561984" cy="13.8885124" rx="4.98561984" ry="13.8885124"></ellipse>
                        <path d="M4.98561984,27.7770248 L4.98561984,13.8885124 L4.98561984,1.7408297e-13 C2.23213803,1.7408297e-13 2.35367281e-13,6.21809881 2.35367281e-13,13.8885124 C2.35367281e-13,21.558926 2.23213803,27.7770248 4.98561984,27.7770248 Z" id="Oval-3" fill="#82BD5D"></path>
                    </g>
                    <path d="M25.5,27.5 L25.5,100.5" id="Line" stroke="#4F9C42" stroke-width="5" stroke-linecap="round"></path>
                </g>
                <g id="Group-9" transform="translate(2195.000000, 481.000000)">
                    <g id="Group-5" transform="translate(76.000000, 3.000000)">
                        <path d="M12.5,34.5 L12.5,97.5" id="Line" stroke="#C57C43" stroke-width="5" stroke-linecap="round" stroke-linejoin="round"></path>
                        <path d="M0,13.0000817 C0,5.82033481 5.81558287,0 13,0 L13,0 L13,0 C20.1797017,0 26,5.82810753 26,13.0000817 L26,52.9999183 C26,60.1796652 20.1844171,66 13,66 L13,66 L13,66 C5.82029825,66 0,60.1718925 0,52.9999183 L0,13.0000817 Z" id="Rectangle-10" fill="#F6E61D"></path>
                        <path d="M13,0 L13,0 L13,0 C20.1797017,0 26,5.82810753 26,13.0000817 L26,52.9999183 C26,60.1796652 20.1844171,66 13,66 L13,66 L13,66" id="Rectangle-10" fill="#FFCB29"></path>
                    </g>
                    <g id="Group-5" transform="translate(153.000000, 3.000000)">
                        <path d="M12.5,34.5 L12.5,97.5" id="Line" stroke="#C57C43" stroke-width="5" stroke-linecap="round" stroke-linejoin="round"></path>
                        <path d="M0,13.0000817 C0,5.82033481 5.81558287,0 13,0 L13,0 L13,0 C20.1797017,0 26,5.82810753 26,13.0000817 L26,52.9999183 C26,60.1796652 20.1844171,66 13,66 L13,66 L13,66 C5.82029825,66 0,60.1718925 0,52.9999183 L0,13.0000817 Z" id="Rectangle-10" fill="#F6E61D"></path>
                        <path d="M13,0 L13,0 L13,0 C20.1797017,0 26,5.82810753 26,13.0000817 L26,52.9999183 C26,60.1796652 20.1844171,66 13,66 L13,66 L13,66" id="Rectangle-10" fill="#FFCB29"></path>
                    </g>
                    <g id="Group-5" transform="translate(230.000000, 3.000000)">
                        <path d="M12.5,34.5 L12.5,97.5" id="Line" stroke="#C57C43" stroke-width="5" stroke-linecap="round" stroke-linejoin="round"></path>
                        <path d="M0,13.0000817 C0,5.82033481 5.81558287,0 13,0 L13,0 L13,0 C20.1797017,0 26,5.82810753 26,13.0000817 L26,52.9999183 C26,60.1796652 20.1844171,66 13,66 L13,66 L13,66 C5.82029825,66 0,60.1718925 0,52.9999183 L0,13.0000817 Z" id="Rectangle-10" fill="#F6E61D"></path>
                        <path d="M13,0 L13,0 L13,0 C20.1797017,0 26,5.82810753 26,13.0000817 L26,52.9999183 C26,60.1796652 20.1844171,66 13,66 L13,66 L13,66" id="Rectangle-10" fill="#FFCB29"></path>
                    </g>
                    <g id="Group-5" transform="translate(115.000000, 3.000000)">
                        <path d="M12.5,34.5 L12.5,97.5" id="Line" stroke="#C57C43" stroke-width="5" stroke-linecap="round" stroke-linejoin="round"></path>
                        <path d="M0,13.0000817 C0,5.82033481 5.81558287,0 13,0 L13,0 L13,0 C20.1797017,0 26,5.82810753 26,13.0000817 L26,52.9999183 C26,60.1796652 20.1844171,66 13,66 L13,66 L13,66 C5.82029825,66 0,60.1718925 0,52.9999183 L0,13.0000817 Z" id="Rectangle-10" fill="#F6E61D"></path>
                        <path d="M13,0 L13,0 L13,0 C20.1797017,0 26,5.82810753 26,13.0000817 L26,52.9999183 C26,60.1796652 20.1844171,66 13,66 L13,66 L13,66" id="Rectangle-10" fill="#FFCB29"></path>
                    </g>
                    <g id="Group-5" transform="translate(38.000000, 0.000000)">
                        <path d="M12.5,34.5 L12.5,97.5" id="Line" stroke="#C57C43" stroke-width="5" stroke-linecap="round" stroke-linejoin="round"></path>
                        <path d="M0,13.0000817 C0,5.82033481 5.81558287,0 13,0 L13,0 L13,0 C20.1797017,0 26,5.82810753 26,13.0000817 L26,52.9999183 C26,60.1796652 20.1844171,66 13,66 L13,66 L13,66 C5.82029825,66 0,60.1718925 0,52.9999183 L0,13.0000817 Z" id="Rectangle-10" fill="#F6E61D"></path>
                        <path d="M13,0 L13,0 L13,0 C20.1797017,0 26,5.82810753 26,13.0000817 L26,52.9999183 C26,60.1796652 20.1844171,66 13,66 L13,66 L13,66" id="Rectangle-10" fill="#FFCB29"></path>
                    </g>
                    <g id="Group-5" transform="translate(0.000000, 3.000000)">
                        <path d="M12.5,34.5 L12.5,97.5" id="Line" stroke="#C57C43" stroke-width="5" stroke-linecap="round" stroke-linejoin="round"></path>
                        <path d="M0,13.0000817 C0,5.82033481 5.81558287,0 13,0 L13,0 L13,0 C20.1797017,0 26,5.82810753 26,13.0000817 L26,52.9999183 C26,60.1796652 20.1844171,66 13,66 L13,66 L13,66 C5.82029825,66 0,60.1718925 0,52.9999183 L0,13.0000817 Z" id="Rectangle-10" fill="#F6E61D"></path>
                        <path d="M13,0 L13,0 L13,0 C20.1797017,0 26,5.82810753 26,13.0000817 L26,52.9999183 C26,60.1796652 20.1844171,66 13,66 L13,66 L13,66" id="Rectangle-10" fill="#FFCB29"></path>
                    </g>
                    <g id="Group-5" transform="translate(187.000000, 3.000000)">
                        <path d="M12.5,34.5 L12.5,97.5" id="Line" stroke="#C57C43" stroke-width="5" stroke-linecap="round" stroke-linejoin="round"></path>
                        <path d="M0,13.0000817 C0,5.82033481 5.81558287,0 13,0 L13,0 L13,0 C20.1797017,0 26,5.82810753 26,13.0000817 L26,52.9999183 C26,60.1796652 20.1844171,66 13,66 L13,66 L13,66 C5.82029825,66 0,60.1718925 0,52.9999183 L0,13.0000817 Z" id="Rectangle-10" fill="#F6E61D"></path>
                        <path d="M13,0 L13,0 L13,0 C20.1797017,0 26,5.82810753 26,13.0000817 L26,52.9999183 C26,60.1796652 20.1844171,66 13,66 L13,66 L13,66" id="Rectangle-10" fill="#FFCB29"></path>
                    </g>
                </g>
            </g>
        </g>
    </g>
</svg>