<?xml version="1.0" encoding="UTF-8" standalone="no"?>
<svg width="112px" height="98px" viewBox="0 0 112 98" version="1.1" xmlns="http://www.w3.org/2000/svg" xmlns:xlink="http://www.w3.org/1999/xlink">
    <!-- Generator: Sketch 3.7 (28169) - http://www.bohemiancoding.com/sketch -->
    <title>Group 11</title>
    <desc>Created with Sketch.</desc>
    <defs></defs>
    <g id="Page-1" stroke="none" stroke-width="1" fill="none" fill-rule="evenodd">
        <g id="farm" transform="translate(-2083.000000, -718.000000)">
            <g id="trolley-oranges" transform="translate(2083.000000, 688.000000)">
                <g id="Group-11" transform="translate(0.000000, 30.000000)">
                    <g id="Group-7" transform="translate(16.000000, 62.000000)">
                        <g id="Group-4">
                            <circle id="Oval-192" fill="#F68D2F" cx="18" cy="18" r="18"></circle>
                            <path d="M18,36 C27.9411255,36 36,27.9411255 36,18 C36,8.0588745 27.9411255,0 18,0 C18.0000002,0 18,8.0588745 18,18 C18,27.9411255 18.0000002,36 18,36 Z" id="Oval-192" fill="#F76A28"></path>
                        </g>
                    </g>
                    <g id="Group-7" transform="translate(20.000000, 30.000000)">
                        <g id="Group-4">
                            <circle id="Oval-192" fill="#F68D2F" cx="18" cy="18" r="18"></circle>
                            <path d="M18,36 C27.9411255,36 36,27.9411255 36,18 C36,8.0588745 27.9411255,0 18,0 C18.0000002,0 18,8.0588745 18,18 C18,27.9411255 18.0000002,36 18,36 Z" id="Oval-192" fill="#F76A28"></path>
                        </g>
                    </g>
                    <g id="Group-7">
                        <g id="Group-4">
                            <circle id="Oval-192" fill="#F68D2F" cx="18" cy="18" r="18"></circle>
                            <path d="M18,36 C27.9411255,36 36,27.9411255 36,18 C36,8.0588745 27.9411255,0 18,0 C18.0000002,0 18,8.0588745 18,18 C18,27.9411255 18.0000002,36 18,36 Z" id="Oval-192" fill="#F76A28"></path>
                        </g>
                    </g>
                    <g id="Group-7" transform="translate(76.000000, 0.000000)">
                        <g id="Group-4">
                            <circle id="Oval-192" fill="#F68D2F" cx="18" cy="18" r="18"></circle>
                            <path d="M18,36 C27.9411255,36 36,27.9411255 36,18 C36,8.0588745 27.9411255,0 18,0 C18.0000002,0 18,8.0588745 18,18 C18,27.9411255 18.0000002,36 18,36 Z" id="Oval-192" fill="#F76A28"></path>
                        </g>
                    </g>
                </g>
            </g>
        </g>
    </g>
</svg>